<svg width="16" height="16" viewBox="0 0 16 16" fill="none" xmlns="http://www.w3.org/2000/svg">
<g clip-path="url(#clip0_658_1336)">
<path d="M0.49762 10.7825C1.62796 13.8289 4.56031 15.9999 8.00003 15.9999C11.4397 15.9999 14.3721 13.8289 15.5024 10.7825L8.00003 10.0869L0.49762 10.7825Z" fill="#FFDA44"/>
<path d="M8.00003 0C4.56031 0 1.62796 2.171 0.49762 5.21741L8.00003 5.91303L15.5024 5.21738C14.3721 2.171 11.4397 0 8.00003 0Z" fill="black"/>
<path d="M0.497594 5.21753C0.176031 6.08419 0 7.02156 0 8.00012C0 8.97869 0.176031 9.91606 0.497594 10.7827H15.5024C15.824 9.91606 16 8.97869 16 8.00012C16 7.02156 15.824 6.08419 15.5024 5.21753H0.497594Z" fill="#D80027"/>
</g>
<defs>
<clipPath id="clip0_658_1336">
<rect width="16" height="16" fill="white"/>
</clipPath>
</defs>
</svg>
