<svg width="16" height="16" viewBox="0 0 16 16" fill="none" xmlns="http://www.w3.org/2000/svg">
<g clip-path="url(#clip0_658_1317)">
<path d="M8 15.9998C12.4183 15.9998 16 12.418 16 7.99976C16 3.58148 12.4183 -0.000244141 8 -0.000244141C3.58172 -0.000244141 0 3.58148 0 7.99976C0 12.418 3.58172 15.9998 8 15.9998Z" fill="#F0F0F0"/>
<path d="M1.65367 3.12939C1.02526 3.94699 0.551419 4.88933 0.275513 5.91305H4.43733L1.65367 3.12939Z" fill="#0052B4"/>
<path d="M15.7243 5.91302C15.4484 4.88933 14.9745 3.94699 14.3462 3.12939L11.5626 5.91302H15.7243Z" fill="#0052B4"/>
<path d="M0.275513 10.0869C0.55145 11.1106 1.02529 12.0529 1.65367 12.8705L4.43723 10.0869H0.275513Z" fill="#0052B4"/>
<path d="M12.8705 1.65382C12.0529 1.02542 11.1106 0.551572 10.0869 0.275635V4.43742L12.8705 1.65382Z" fill="#0052B4"/>
<path d="M3.12933 14.3463C3.94693 14.9747 4.88927 15.4486 5.91296 15.7245V11.5627L3.12933 14.3463Z" fill="#0052B4"/>
<path d="M5.91293 0.275635C4.88924 0.551572 3.9469 1.02542 3.12933 1.65379L5.91293 4.43738V0.275635Z" fill="#0052B4"/>
<path d="M10.0869 15.7245C11.1106 15.4486 12.0529 14.9747 12.8705 14.3463L10.0869 11.5627V15.7245Z" fill="#0052B4"/>
<path d="M11.5626 10.0869L14.3462 12.8705C14.9745 12.053 15.4484 11.1106 15.7243 10.0869H11.5626Z" fill="#0052B4"/>
<path d="M15.9323 6.95629H9.04353H9.0435V0.0674746C8.70191 0.0230059 8.35366 -0.000244141 8 -0.000244141C7.64628 -0.000244141 7.29809 0.0230059 6.95653 0.0674746V6.95622V6.95626H0.0677188C0.02325 7.29785 0 7.6461 0 7.99976C0 8.35347 0.02325 8.70166 0.0677188 9.04322H6.95647H6.9565V15.932C7.29809 15.9765 7.64628 15.9998 8 15.9998C8.35366 15.9998 8.70191 15.9765 9.04347 15.932V9.04329V9.04326H15.9323C15.9768 8.70166 16 8.35347 16 7.99976C16 7.6461 15.9768 7.29785 15.9323 6.95629Z" fill="#D80027"/>
<path d="M10.087 10.0869L13.6569 13.6568C13.821 13.4927 13.9777 13.3211 14.1271 13.1432L11.0708 10.0869H10.087V10.0869Z" fill="#D80027"/>
<path d="M5.91305 10.0869H5.91298L2.34314 13.6568C2.50726 13.8209 2.67886 13.9776 2.85673 14.127L5.91305 11.0706V10.0869Z" fill="#D80027"/>
<path d="M5.91305 5.91299V5.91292L2.34317 2.34302C2.17899 2.50714 2.02236 2.67874 1.87292 2.85661L4.92927 5.91296H5.91305V5.91299Z" fill="#D80027"/>
<path d="M10.087 5.91296L13.6569 2.34302C13.4928 2.17883 13.3212 2.02221 13.1433 1.8728L10.087 4.92915V5.91296Z" fill="#D80027"/>
</g>
<defs>
<clipPath id="clip0_658_1317">
<rect width="16" height="16" fill="white"/>
</clipPath>
</defs>
</svg>
