<svg width="16" height="16" viewBox="0 0 16 16" fill="none" xmlns="http://www.w3.org/2000/svg">
<g clip-path="url(#clip0_658_1348)">
<path d="M8 15.9998C12.4183 15.9998 16 12.418 16 7.99976C16 3.58148 12.4183 -0.000244141 8 -0.000244141C3.58172 -0.000244141 0 3.58148 0 7.99976C0 12.418 3.58172 15.9998 8 15.9998Z" fill="#F0F0F0"/>
<path d="M8.00003 0C4.56031 0 1.62796 2.171 0.49762 5.21741H15.5025C14.3721 2.171 11.4397 0 8.00003 0Z" fill="#A2001D"/>
<path d="M8.00003 15.9999C11.4397 15.9999 14.3721 13.8289 15.5024 10.7825H0.49762C1.62796 13.8289 4.56031 15.9999 8.00003 15.9999Z" fill="#0052B4"/>
</g>
<defs>
<clipPath id="clip0_658_1348">
<rect width="16" height="16" fill="white"/>
</clipPath>
</defs>
</svg>
