<svg width="16" height="16" viewBox="0 0 16 16" fill="none" xmlns="http://www.w3.org/2000/svg">
<g clip-path="url(#clip0_659_1427)">
<path d="M8 15.9998C12.4183 15.9998 16 12.418 16 7.99976C16 3.58148 12.4183 -0.000244141 8 -0.000244141C3.58172 -0.000244141 0 3.58148 0 7.99976C0 12.418 3.58172 15.9998 8 15.9998Z" fill="#F0F0F0"/>
<path d="M0.275513 10.0869C0.738388 11.8044 1.75854 13.2929 3.13036 14.347V10.0869H0.275513Z" fill="#D80027"/>
<path d="M7.30426 15.9695C7.53357 15.9893 7.76548 15.9999 7.99992 15.9999C11.6961 15.9999 14.8063 13.493 15.7243 10.0869H7.30426V15.9695Z" fill="#D80027"/>
<path d="M15.7243 5.91303C14.8063 2.50691 11.6961 0 7.99992 0C7.76548 0 7.53357 0.0106875 7.30426 0.0304375V5.91303H15.7243Z" fill="#D80027"/>
<path d="M3.13036 1.65283C1.75854 2.70689 0.738388 4.19543 0.275513 5.91289H3.13036V1.65283Z" fill="#D80027"/>
<path d="M15.9323 6.95656H6.26091H6.26088V0.190186C5.52156 0.354123 4.82066 0.619842 4.17391 0.972748V6.9565V6.95653H0.0677188C0.0231875 7.29812 0 7.64637 0 8.00003C0 8.35369 0.0231875 8.70194 0.0677188 9.0435H4.17387H4.17391V15.0273C4.82066 15.3802 5.52156 15.6459 6.26088 15.8098V9.04359V9.04353H15.9323C15.9768 8.70194 16 8.35369 16 8.00003C16 7.64637 15.9768 7.29812 15.9323 6.95656Z" fill="#0052B4"/>
</g>
<defs>
<clipPath id="clip0_659_1427">
<rect width="16" height="16" fill="white"/>
</clipPath>
</defs>
</svg>
