<svg xmlns="http://www.w3.org/2000/svg" width="28" height="20" fill="none" viewBox="0 0 28 20">
	<rect width="28" height="20" fill="#fff" rx="2"/>
	<mask id="PT-lang-a" width="28" height="20" x="0" y="0" maskUnits="userSpaceOnUse">
		<rect width="28" height="20" fill="#fff" rx="2"/>
	</mask>
	<g mask="url(#PT-lang-a)">
		<path fill="#FF2936" d="M0 0h28v20H0z"/>
		<path fill="#128415" fill-rule="evenodd" d="M0 20h10.667V0H0v20z" clip-rule="evenodd"/>
		<path stroke="#FAF94F" stroke-width="1.333" d="M10.667 13.333a3.333 3.333 0 100-6.666 3.333 3.333 0 000 6.666z"/>
		<path fill="#fff" fill-rule="evenodd" d="M9.333 8.333c0-.184.15-.333.334-.333h2c.184 0 .333.15.333.333v2.334a1.333 1.333 0 01-2.667 0V8.333z" clip-rule="evenodd"/>
		<path fill="#1D50B5" fill-rule="evenodd" d="M10.667 10.667c.368 0 .666-.965.666-1.334a.667.667 0 10-1.333 0c0 .369.299 1.334.667 1.334z" clip-rule="evenodd"/>
	</g>
</svg>
