<svg width="16" height="16" viewBox="0 0 16 16" fill="none" xmlns="http://www.w3.org/2000/svg">
<g clip-path="url(#clip0_659_1442)">
<path d="M8 15.9998C12.4183 15.9998 16 12.418 16 7.99976C16 3.58148 12.4183 -0.000244141 8 -0.000244141C3.58172 -0.000244141 0 3.58148 0 7.99976C0 12.418 3.58172 15.9998 8 15.9998Z" fill="#F0F0F0"/>
<path d="M15.5024 10.7825C15.824 9.91582 16 8.97844 16 7.99988C16 7.02132 15.824 6.08394 15.5024 5.21729H0.497594C0.176031 6.08394 0 7.02132 0 7.99988C0 8.97844 0.176031 9.91582 0.497594 10.7825L8 11.4781L15.5024 10.7825Z" fill="#0052B4"/>
<path d="M7.99999 15.9999C11.4397 15.9999 14.3721 13.8289 15.5024 10.7825H0.497589C1.62793 13.8289 4.56028 15.9999 7.99999 15.9999Z" fill="#D80027"/>
</g>
<defs>
<clipPath id="clip0_659_1442">
<rect width="16" height="16" fill="white"/>
</clipPath>
</defs>
</svg>
