<svg width="16" height="16" viewBox="0 0 16 16" fill="none" xmlns="http://www.w3.org/2000/svg">
<g clip-path="url(#clip0_659_1395)">
<path d="M8 15.9998C12.4183 15.9998 16 12.418 16 7.99976C16 3.58148 12.4183 -0.000244141 8 -0.000244141C3.58172 -0.000244141 0 3.58148 0 7.99976C0 12.418 3.58172 15.9998 8 15.9998Z" fill="#6DA544"/>
<path d="M4.5217 9.56519C4.5217 10.1415 4.98889 10.6087 5.56517 10.6087H8.6956C8.6956 11.0889 9.08492 11.4782 9.56517 11.4782H10.6086C11.0889 11.4782 11.4782 11.0889 11.4782 10.6087V9.56519H4.5217Z" fill="#F0F0F0"/>
<path d="M11.5651 4.52173V6.95651C11.5651 7.3401 11.2531 7.65217 10.8695 7.65217V8.69563C11.8284 8.69563 12.6086 7.91545 12.6086 6.95651V4.52173H11.5651Z" fill="#F0F0F0"/>
<path d="M4.08692 6.95675C4.08692 7.34035 3.77486 7.65241 3.39127 7.65241V8.69588C4.35023 8.69588 5.13039 7.91569 5.13039 6.95675V4.52197H4.08692V6.95675Z" fill="#F0F0F0"/>
<path d="M9.99994 4.52173H11.0434V6.95651H9.99994V4.52173Z" fill="#F0F0F0"/>
<path d="M8.43469 5.91304C8.43469 6.00895 8.35666 6.08695 8.26079 6.08695C8.16491 6.08695 8.08688 6.00892 8.08688 5.91304V4.52173H7.04341V5.91304C7.04341 6.00895 6.96538 6.08695 6.86951 6.08695C6.77363 6.08695 6.6956 6.00892 6.6956 5.91304V4.52173H5.6521V5.91304C5.6521 6.58432 6.19822 7.13045 6.86951 7.13045C7.12804 7.13045 7.36779 7.0492 7.56516 6.9112C7.76251 7.04917 8.00229 7.13045 8.26082 7.13045C8.31288 7.13045 8.36407 7.12679 8.41441 7.12038C8.34048 7.42504 8.0661 7.65217 7.73907 7.65217V8.69563C8.69804 8.69563 9.47819 7.91545 9.47819 6.95651V5.91304V4.52173H8.43472V5.91304H8.43469Z" fill="#F0F0F0"/>
<path d="M5.6521 7.6521H7.21732V8.69557H5.6521V7.6521Z" fill="#F0F0F0"/>
</g>
<defs>
<clipPath id="clip0_659_1395">
<rect width="16" height="16" fill="white"/>
</clipPath>
</defs>
</svg>
