<svg width="16" height="16" viewBox="0 0 16 16" fill="none" xmlns="http://www.w3.org/2000/svg">
<g clip-path="url(#clip0_658_1363)">
<path d="M8 15.9998C12.4183 15.9998 16 12.418 16 7.99976C16 3.58148 12.4183 -0.000244141 8 -0.000244141C3.58172 -0.000244141 0 3.58148 0 7.99976C0 12.418 3.58172 15.9998 8 15.9998Z" fill="#D80027"/>
<path d="M4.37812 4.86865L5.06875 6.99365H7.30312L5.49687 8.30928L6.1875 10.4343L4.37812 9.12178L2.56875 10.4343L3.2625 8.30928L1.45312 6.99365H3.6875L4.37812 4.86865Z" fill="#FFDA44"/>
<path d="M9.48435 12.3906L8.95623 11.7406L8.17498 12.0437L8.6281 11.3406L8.09998 10.6875L8.90935 10.9031L9.3656 10.2L9.40935 11.0375L10.2219 11.2531L9.43748 11.5531L9.48435 12.3906Z" fill="#FFDA44"/>
<path d="M10.5344 10.4843L10.7844 9.68433L10.1 9.19995L10.9375 9.18745L11.1844 8.38745L11.4562 9.1812L12.2937 9.17183L11.6219 9.67183L11.8906 10.4656L11.2062 9.9812L10.5344 10.4843Z" fill="#FFDA44"/>
<path d="M11.95 5.87173L11.5813 6.62485L12.1813 7.20923L11.3531 7.09048L10.9844 7.84048L10.8406 7.01548L10.0094 6.89673L10.7531 6.5061L10.6094 5.67798L11.2094 6.26235L11.95 5.87173Z" fill="#FFDA44"/>
<path d="M9.50626 3.59058L9.44376 4.42495L10.2219 4.74058L9.40626 4.94058L9.34689 5.77808L8.90626 5.06558L8.09064 5.26558L8.63126 4.62495L8.18751 3.91558L8.96564 4.2312L9.50626 3.59058Z" fill="#FFDA44"/>
</g>
<defs>
<clipPath id="clip0_658_1363">
<rect width="16" height="16" fill="white"/>
</clipPath>
</defs>
</svg>
