<svg xmlns="http://www.w3.org/2000/svg" width="28" height="20" fill="none" viewBox="0 0 28 20">
	<rect width="28" height="20" fill="#fff" rx="2"/>
	<mask id="ES-lang-a" width="28" height="20" x="0" y="0" maskUnits="userSpaceOnUse">
		<rect width="28" height="20" fill="#fff" rx="2"/>
	</mask>
	<g mask="url(#ES-lang-a)">
		<path fill="#DD172C" fill-rule="evenodd" d="M0 5.333h28V0H0v5.333zM0 20h28v-5.333H0V20z" clip-rule="evenodd"/>
		<path fill="#FFD133" fill-rule="evenodd" d="M0 14.667h28V5.333H0v9.334z" clip-rule="evenodd"/>
		<path fill="#FFEDB1" fill-rule="evenodd" d="M7.333 9.333h1.334V10H7.333v-.667z" clip-rule="evenodd"/>
		<path stroke="#A41517" stroke-width=".667" d="M6.059 9.361A.333.333 0 016.391 9h1.884c.195 0 .349.167.333.361l-.172 2.055a1 1 0 01-.996.917h-.213a1 1 0 01-.997-.917L6.06 9.361z"/>
		<path fill="#A41517" fill-rule="evenodd" d="M6 10h2.667v.667H8L7.333 12l-.666-1.333H6V10z" clip-rule="evenodd"/>
		<rect width="1.333" height="4.667" x="4" y="8" fill="#A41517" rx=".667"/>
		<rect width="1.333" height="4.667" x="9.333" y="8" fill="#A41517" rx=".667"/>
		<path fill="#A41517" d="M6 7.733c0-.589.478-1.066 1.067-1.066H7.6c.59 0 1.067.477 1.067 1.066 0 .148-.12.267-.267.267H6.267A.267.267 0 016 7.733z"/>
	</g>
</svg>
