<svg width="16" height="16" viewBox="0 0 16 16" fill="none" xmlns="http://www.w3.org/2000/svg">
<g clip-path="url(#clip0_659_1406)">
<path d="M0 7.99998C0 8.97854 0.176031 9.91592 0.497594 10.7826L8 11.4782L15.5024 10.7826C15.824 9.91592 16 8.97854 16 7.99998C16 7.02142 15.824 6.08404 15.5024 5.21738L8 4.52173L0.497594 5.21738C0.176031 6.08404 0 7.02142 0 7.99998H0Z" fill="#FFDA44"/>
<path d="M15.5025 5.21741C14.3721 2.17103 11.4398 0 8.00009 0C4.56037 0 1.62802 2.17103 0.497681 5.21741H15.5025Z" fill="#D80027"/>
<path d="M0.497681 10.7827C1.62802 13.8291 4.56037 16.0001 8.00009 16.0001C11.4398 16.0001 14.3721 13.8291 15.5025 10.7827H0.497681Z" fill="#D80027"/>
</g>
<defs>
<clipPath id="clip0_659_1406">
<rect width="16" height="16" fill="white"/>
</clipPath>
</defs>
</svg>
