<svg width="16" height="16" viewBox="0 0 16 16" fill="none" xmlns="http://www.w3.org/2000/svg">
<g clip-path="url(#clip0_659_1419)">
<path d="M0 7.99996C0 11.4397 2.171 14.372 5.21734 15.5023L5.91303 7.99993L5.21734 0.497559C2.171 1.62793 0 4.56025 0 7.99996Z" fill="#6DA544"/>
<path d="M16 8C16 3.58175 12.4183 0 8 0C7.02144 0 6.08403 0.176031 5.21735 0.497594V15.5024C6.08403 15.824 7.02144 16 8 16C12.4183 16 16 12.4183 16 8Z" fill="#D80027"/>
<path d="M5.21741 10.7825C6.75419 10.7825 8 9.53666 8 7.99988C8 6.46309 6.75419 5.21729 5.21741 5.21729C3.68062 5.21729 2.43481 6.46309 2.43481 7.99988C2.43481 9.53666 3.68062 10.7825 5.21741 10.7825Z" fill="#FFDA44"/>
<path d="M3.65216 6.60864V8.34777C3.65216 9.21221 4.35291 9.91299 5.21738 9.91299C6.08185 9.91299 6.7826 9.21224 6.7826 8.34777V6.60864H3.65216Z" fill="#D80027"/>
<path d="M5.21743 8.86947C4.92974 8.86947 4.69568 8.63541 4.69568 8.34772V7.6521H5.73915V8.34776C5.73915 8.63541 5.50508 8.86947 5.21743 8.86947Z" fill="#F0F0F0"/>
</g>
<defs>
<clipPath id="clip0_659_1419">
<rect width="16" height="16" fill="white"/>
</clipPath>
</defs>
</svg>
