<svg width="16" height="16" viewBox="0 0 16 16" fill="none" xmlns="http://www.w3.org/2000/svg">
<g clip-path="url(#clip0_658_1354)">
<path d="M8 15.9998C12.4183 15.9998 16 12.418 16 7.99976C16 3.58148 12.4183 -0.000244141 8 -0.000244141C3.58172 -0.000244141 0 3.58148 0 7.99976C0 12.418 3.58172 15.9998 8 15.9998Z" fill="#FFDA44"/>
<path d="M6.26096 6.95653H15.9323C15.421 3.03131 12.0646 0 8.00005 0C7.40274 0 6.82089 0.0660313 6.26093 0.190156V6.95653H6.26096Z" fill="#0052B4"/>
<path d="M4.17394 6.95644V0.972656C1.97725 2.17122 0.404718 4.36969 0.067749 6.95647H4.17394V6.95644Z" fill="#0052B4"/>
<path d="M4.1739 9.04346H0.067749C0.404718 11.6302 1.97725 13.8287 4.17394 15.0272L4.1739 9.04346Z" fill="#0052B4"/>
<path d="M6.26093 9.04349V15.8098C6.82089 15.934 7.40274 16 8.00005 16C12.0646 16 15.421 12.9687 15.9323 9.04346H6.26093V9.04349Z" fill="#0052B4"/>
</g>
<defs>
<clipPath id="clip0_658_1354">
<rect width="16" height="16" fill="white"/>
</clipPath>
</defs>
</svg>
