<svg width="16" height="16" viewBox="0 0 16 16" fill="none" xmlns="http://www.w3.org/2000/svg">
<g clip-path="url(#clip0_658_1373)">
<path d="M8 15.9998C12.4183 15.9998 16 12.418 16 7.99976C16 3.58148 12.4183 -0.000244141 8 -0.000244141C3.58172 -0.000244141 0 3.58148 0 7.99976C0 12.418 3.58172 15.9998 8 15.9998Z" fill="#D80027"/>
<path d="M7.67245 6.53711L8.32886 7.44164L9.39189 7.09695L8.73445 8.0007L9.39077 8.9052L8.32811 8.5592L7.6707 9.46295L7.67139 8.34542L6.6087 7.99942L7.67177 7.65473L7.67245 6.53711Z" fill="#F0F0F0"/>
<path d="M5.8811 10.2608C4.63247 10.2608 3.62022 9.24854 3.62022 7.99991C3.62022 6.75129 4.63247 5.73904 5.8811 5.73904C6.27041 5.73904 6.63672 5.8375 6.95654 6.01079C6.45482 5.5201 5.76866 5.21729 5.01154 5.21729C3.47472 5.21729 2.22894 6.4631 2.22894 7.99988C2.22894 9.53666 3.47476 10.7825 5.01154 10.7825C5.76872 10.7825 6.45485 10.4796 6.95654 9.98897C6.63672 10.1623 6.27041 10.2608 5.8811 10.2608Z" fill="#F0F0F0"/>
</g>
<defs>
<clipPath id="clip0_658_1373">
<rect width="16" height="16" fill="white"/>
</clipPath>
</defs>
</svg>
