<svg xmlns="http://www.w3.org/2000/svg" width="28" height="20" fill="none" viewBox="0 0 28 20">
	<rect width="28" height="20" fill="#fff" rx="2"/>
	<mask id="US-lang-a" width="28" height="20" x="0" y="0" maskUnits="userSpaceOnUse">
		<rect width="28" height="20" fill="#fff" rx="2"/>
	</mask>
	<g mask="url(#US-lang-a)">
		<path fill="#D02F44" fill-rule="evenodd" d="M28 0H0v1.333h28V0zm0 2.667H0V4h28V2.667zM0 5.333h28v1.334H0V5.333zM28 8H0v1.333h28V8zM0 10.667h28V12H0v-1.333zm28 2.666H0v1.334h28v-1.334zM0 16h28v1.333H0V16zm28 2.667H0V20h28v-1.333z" clip-rule="evenodd"/>
		<path fill="#46467F" d="M0 0h12v9.333H0z"/>
		<g filter="url(#filter0_d)">
			<path fill="url(#paint0_linear)" fill-rule="evenodd" d="M2.667 2a.667.667 0 11-1.334 0 .667.667 0 011.334 0zm2.666 0A.667.667 0 114 2a.667.667 0 011.333 0zm2 .667a.667.667 0 100-1.334.667.667 0 000 1.334zM10.667 2a.667.667 0 11-1.334 0 .667.667 0 011.334 0zM3.333 4a.667.667 0 100-1.333.667.667 0 000 1.333zm3.334-.667a.667.667 0 11-1.334 0 .667.667 0 011.334 0zm2 .667a.667.667 0 100-1.333.667.667 0 000 1.333zm2 .667a.667.667 0 11-1.334 0 .667.667 0 011.334 0zm-3.334.666a.667.667 0 100-1.333.667.667 0 000 1.333zm-2-.666a.667.667 0 11-1.333 0 .667.667 0 011.333 0zM2 5.333A.667.667 0 102 4a.667.667 0 000 1.333zM4 6a.667.667 0 11-1.333 0A.667.667 0 014 6zm2 .667a.667.667 0 100-1.334.667.667 0 000 1.334zM9.333 6A.667.667 0 118 6a.667.667 0 011.333 0zM10 8a.667.667 0 100-1.333A.667.667 0 0010 8zm-2-.667a.667.667 0 11-1.333 0 .667.667 0 011.333 0zM4.667 8a.667.667 0 100-1.333.667.667 0 000 1.333zm-2-.667a.667.667 0 11-1.334 0 .667.667 0 011.334 0z" clip-rule="evenodd"/>
		</g>
	</g>
	<defs>
		<linearGradient id="paint0_linear" x1="1.333" x2="1.333" y1="1.333" y2="8" gradientUnits="userSpaceOnUse">
			<stop stop-color="#fff"/>
			<stop offset="1" stop-color="#F0F0F0"/>
		</linearGradient>
		<filter id="filter0_d" width="9.333" height="7.667" x="1.333" y="1.333" color-interpolation-filters="sRGB" filterUnits="userSpaceOnUse">
			<feFlood flood-opacity="0" result="BackgroundImageFix"/>
			<feColorMatrix in="SourceAlpha" result="hardAlpha" values="0 0 0 0 0 0 0 0 0 0 0 0 0 0 0 0 0 0 127 0"/>
			<feOffset dy="1"/>
			<feColorMatrix values="0 0 0 0 0 0 0 0 0 0 0 0 0 0 0 0 0 0 0.06 0"/>
			<feBlend in2="BackgroundImageFix" result="effect1_dropShadow"/>
			<feBlend in="SourceGraphic" in2="effect1_dropShadow" result="shape"/>
		</filter>
	</defs>
</svg>
