<svg width="16" height="16" viewBox="0 0 16 16" fill="none" xmlns="http://www.w3.org/2000/svg">
<g clip-path="url(#clip0_547_1473)">
<path fill-rule="evenodd" clip-rule="evenodd" d="M8 16C12.4183 16 16 12.4183 16 8C16 3.58172 12.4183 0 8 0C3.58172 0 0 3.58172 0 8C0 12.4183 3.58172 16 8 16ZM2.64418 10L2.95514 9.23108H4.62868L4.93964 10H6.10434L4.35164 6.04231H3.24914L1.50211 10H2.64418ZM3.79191 7.13915L4.30076 8.40561H3.28307L3.79191 7.13915ZM9.59916 10V9.13496H7.52986V8.41127H9.2882V7.5745H7.52986V6.90735H9.52566V6.04231H6.4217V10H9.59916ZM12.0918 6.04231H10.2204V10H12.0918C12.5253 10 12.9097 9.91896 13.2452 9.75688C13.5807 9.59481 13.8407 9.36488 14.0254 9.06712C14.2101 8.76935 14.3025 8.42069 14.3025 8.02115C14.3025 7.62162 14.2101 7.27296 14.0254 6.97519C13.8407 6.67742 13.5807 6.4475 13.2452 6.28542C12.9097 6.12335 12.5253 6.04231 12.0918 6.04231ZM12.8607 8.81835C12.6572 9.01058 12.3858 9.10669 12.0466 9.10669H11.3398V6.93562H12.0466C12.3858 6.93562 12.6572 7.03173 12.8607 7.22396C13.068 7.41619 13.1717 7.68192 13.1717 8.02115C13.1717 8.36038 13.068 8.62611 12.8607 8.81835Z" fill="white"/>
</g>
<defs>
<clipPath id="clip0_547_1473">
<rect width="16" height="16" fill="white"/>
</clipPath>
</defs>
</svg>
