<svg width="48" height="49" viewBox="0 0 48 49" fill="none" xmlns="http://www.w3.org/2000/svg">
<rect y="0.321289" width="48" height="48" rx="24" fill="#809E35"/>
<path d="M24 39.3213C15.7155 39.3213 9 32.6058 9 24.3213C9 16.0368 15.7155 9.32129 24 9.32129C32.2845 9.32129 39 16.0368 39 24.3213C39 32.6058 32.2845 39.3213 24 39.3213ZM18.75 27.3213V30.3213H22.5V33.3213H25.5V30.3213H27C27.9946 30.3213 28.9484 29.9262 29.6516 29.2229C30.3549 28.5197 30.75 27.5659 30.75 26.5713C30.75 25.5767 30.3549 24.6229 29.6516 23.9196C28.9484 23.2164 27.9946 22.8213 27 22.8213H21C20.8011 22.8213 20.6103 22.7423 20.4697 22.6016C20.329 22.461 20.25 22.2702 20.25 22.0713C20.25 21.8724 20.329 21.6816 20.4697 21.541C20.6103 21.4003 20.8011 21.3213 21 21.3213H29.25V18.3213H25.5V15.3213H22.5V18.3213H21C20.0054 18.3213 19.0516 18.7164 18.3483 19.4196C17.6451 20.1229 17.25 21.0767 17.25 22.0713C17.25 23.0659 17.6451 24.0197 18.3483 24.7229C19.0516 25.4262 20.0054 25.8213 21 25.8213H27C27.1989 25.8213 27.3897 25.9003 27.5303 26.041C27.671 26.1816 27.75 26.3724 27.75 26.5713C27.75 26.7702 27.671 26.961 27.5303 27.1016C27.3897 27.2423 27.1989 27.3213 27 27.3213H18.75Z" fill="white"/>
</svg>
