<svg width="48" height="48" viewBox="0 0 48 48" fill="none" xmlns="http://www.w3.org/2000/svg">
<path fill-rule="evenodd" clip-rule="evenodd" d="M33.2672 16.1347C34.5127 16.4045 35.4106 17.6946 35.3145 18.9653C35.296 19.2087 35.2867 19.4545 35.2867 19.7024C35.2867 25.1419 39.7938 29.5514 45.3536 29.5514C46.3737 29.5514 47.2546 30.4721 46.9159 31.4343C43.7272 40.4923 34.9395 47.0001 24.5982 47.0001C11.5652 47.0001 0.999939 36.6636 0.999939 23.9128C0.999939 12.1478 9.99491 2.43812 21.6237 1.00723C22.8745 0.853329 23.791 2.08193 23.6807 3.33732C23.6505 3.68152 23.635 4.02985 23.635 4.38171C23.635 10.1322 27.7566 14.9409 33.2672 16.1347ZM31.8224 34.7489C33.1526 34.7489 34.2309 33.6941 34.2309 32.3931C34.2309 31.092 33.1526 30.0372 31.8224 30.0372C30.4923 30.0372 29.414 31.092 29.414 32.3931C29.414 33.6941 30.4923 34.7489 31.8224 34.7489ZM26.5254 24.8543C26.5254 26.1554 25.4471 27.2101 24.1169 27.2101C22.7868 27.2101 21.7085 26.1554 21.7085 24.8543C21.7085 23.5532 22.7868 22.4984 24.1169 22.4984C25.4471 22.4984 26.5254 23.5532 26.5254 24.8543ZM16.4114 18.7294C17.7416 18.7294 18.8198 17.6746 18.8198 16.3735C18.8198 15.0724 17.7416 14.0177 16.4114 14.0177C15.0813 14.0177 14.003 15.0724 14.003 16.3735C14.003 17.6746 15.0813 18.7294 16.4114 18.7294ZM17.8569 33.3358C17.8569 34.6369 16.7786 35.6916 15.4485 35.6916C14.1183 35.6916 13.04 34.6369 13.04 33.3358C13.04 32.0347 14.1183 30.9799 15.4485 30.9799C16.7786 30.9799 17.8569 32.0347 17.8569 33.3358ZM31.8687 10.1445C33.1157 10.1445 34.1266 9.13348 34.1266 7.88627C34.1266 6.63906 33.1157 5.628 31.8687 5.628C30.6216 5.628 29.6107 6.63906 29.6107 7.88627C29.6107 9.13348 30.6216 10.1445 31.8687 10.1445ZM45.5067 22.2597C45.5067 23.5069 44.4958 24.5179 43.2488 24.5179C42.0018 24.5179 40.9909 23.5069 40.9909 22.2597C40.9909 21.0125 42.0018 20.0014 43.2488 20.0014C44.4958 20.0014 45.5067 21.0125 45.5067 22.2597ZM43.2488 9.51658C44.4958 9.51658 45.5067 8.50552 45.5067 7.25831C45.5067 6.0111 44.4958 5.00004 43.2488 5.00004C42.0018 5.00004 40.9909 6.0111 40.9909 7.25831C40.9909 8.50552 42.0018 9.51658 43.2488 9.51658Z" fill="#EAB11F"/>
</svg>
