<svg width="94" height="24" viewBox="0 0 94 24" fill="none" xmlns="http://www.w3.org/2000/svg">
<path fill-rule="evenodd" clip-rule="evenodd" d="M11.9978 0.389593L11.9979 0.389341L11.9979 0.389406L11.998 0.389343V0.389468L18.9958 11.8737L11.998 15.9649V15.965L11.9979 15.965L5.00013 11.8738L5.00006 11.8737L11.9978 0.389593ZM11.9978 22.9394L5.00006 13.1862L11.998 17.2754L19 13.1863L11.998 22.9397L11.9979 22.9398L11.9978 22.9394Z" fill="#00B3FF"/>
<path d="M37.428 15.692V17H31.128V8.6H37.26V9.908H32.688V12.092H36.744V13.376H32.688V15.692H37.428ZM42.7579 16.652C42.5819 16.796 42.3659 16.904 42.1099 16.976C41.8619 17.048 41.5979 17.084 41.3179 17.084C40.6139 17.084 40.0699 16.9 39.6859 16.532C39.3019 16.164 39.1099 15.628 39.1099 14.924V11.84H38.0539V10.64H39.1099V9.176H40.6099V10.64H42.3259V11.84H40.6099V14.888C40.6099 15.2 40.6859 15.44 40.8379 15.608C40.9899 15.768 41.2099 15.848 41.4979 15.848C41.8339 15.848 42.1139 15.76 42.3379 15.584L42.7579 16.652ZM47.6278 10.52C48.4358 10.52 49.0838 10.756 49.5718 11.228C50.0598 11.7 50.3038 12.4 50.3038 13.328V17H48.8038V13.52C48.8038 12.96 48.6718 12.54 48.4078 12.26C48.1438 11.972 47.7678 11.828 47.2798 11.828C46.7278 11.828 46.2918 11.996 45.9718 12.332C45.6518 12.66 45.4918 13.136 45.4918 13.76V17H43.9918V8.096H45.4918V11.336C45.7398 11.072 46.0438 10.872 46.4038 10.736C46.7718 10.592 47.1798 10.52 47.6278 10.52ZM58.2893 13.832C58.2893 13.936 58.2813 14.084 58.2653 14.276H53.2373C53.3253 14.748 53.5533 15.124 53.9213 15.404C54.2973 15.676 54.7613 15.812 55.3133 15.812C56.0173 15.812 56.5973 15.58 57.0533 15.116L57.8573 16.04C57.5693 16.384 57.2053 16.644 56.7653 16.82C56.3253 16.996 55.8293 17.084 55.2773 17.084C54.5733 17.084 53.9533 16.944 53.4173 16.664C52.8813 16.384 52.4653 15.996 52.1693 15.5C51.8813 14.996 51.7373 14.428 51.7373 13.796C51.7373 13.172 51.8773 12.612 52.1573 12.116C52.4453 11.612 52.8413 11.22 53.3453 10.94C53.8493 10.66 54.4173 10.52 55.0493 10.52C55.6733 10.52 56.2293 10.66 56.7173 10.94C57.2133 11.212 57.5973 11.6 57.8693 12.104C58.1493 12.6 58.2893 13.176 58.2893 13.832ZM55.0493 11.72C54.5693 11.72 54.1613 11.864 53.8253 12.152C53.4973 12.432 53.2973 12.808 53.2253 13.28H56.8613C56.7973 12.816 56.6013 12.44 56.2733 12.152C55.9453 11.864 55.5373 11.72 55.0493 11.72ZM61.1581 11.528C61.5901 10.856 62.3501 10.52 63.4381 10.52V11.948C63.3101 11.924 63.1941 11.912 63.0901 11.912C62.5061 11.912 62.0501 12.084 61.7221 12.428C61.3941 12.764 61.2301 13.252 61.2301 13.892V17H59.7301V10.592H61.1581V11.528ZM70.676 13.832C70.676 13.936 70.668 14.084 70.652 14.276H65.624C65.712 14.748 65.94 15.124 66.308 15.404C66.684 15.676 67.148 15.812 67.7 15.812C68.404 15.812 68.984 15.58 69.44 15.116L70.244 16.04C69.956 16.384 69.592 16.644 69.152 16.82C68.712 16.996 68.216 17.084 67.664 17.084C66.96 17.084 66.34 16.944 65.804 16.664C65.268 16.384 64.852 15.996 64.556 15.5C64.268 14.996 64.124 14.428 64.124 13.796C64.124 13.172 64.264 12.612 64.544 12.116C64.832 11.612 65.228 11.22 65.732 10.94C66.236 10.66 66.804 10.52 67.436 10.52C68.06 10.52 68.616 10.66 69.104 10.94C69.6 11.212 69.984 11.6 70.256 12.104C70.536 12.6 70.676 13.176 70.676 13.832ZM67.436 11.72C66.956 11.72 66.548 11.864 66.212 12.152C65.884 12.432 65.684 12.808 65.612 13.28H69.248C69.184 12.816 68.988 12.44 68.66 12.152C68.332 11.864 67.924 11.72 67.436 11.72ZM78.3208 10.592V17H76.8928V16.184C76.6528 16.472 76.3528 16.696 75.9928 16.856C75.6328 17.008 75.2448 17.084 74.8288 17.084C73.9728 17.084 73.2968 16.848 72.8008 16.376C72.3128 15.896 72.0688 15.188 72.0688 14.252V10.592H73.5688V14.048C73.5688 14.624 73.6968 15.056 73.9528 15.344C74.2168 15.624 74.5888 15.764 75.0688 15.764C75.6048 15.764 76.0288 15.6 76.3408 15.272C76.6608 14.936 76.8208 14.456 76.8208 13.832V10.592H78.3208ZM88.3728 10.52C89.1808 10.52 89.8208 10.756 90.2928 11.228C90.7648 11.692 91.0008 12.392 91.0008 13.328V17H89.5008V13.52C89.5008 12.96 89.3768 12.54 89.1288 12.26C88.8808 11.972 88.5248 11.828 88.0608 11.828C87.5568 11.828 87.1528 11.996 86.8488 12.332C86.5448 12.66 86.3928 13.132 86.3928 13.748V17H84.8928V13.52C84.8928 12.96 84.7688 12.54 84.5208 12.26C84.2728 11.972 83.9168 11.828 83.4528 11.828C82.9408 11.828 82.5328 11.992 82.2288 12.32C81.9328 12.648 81.7848 13.124 81.7848 13.748V17H80.2848V10.592H81.7128V11.408C81.9528 11.12 82.2528 10.9 82.6128 10.748C82.9728 10.596 83.3728 10.52 83.8128 10.52C84.2928 10.52 84.7168 10.612 85.0848 10.796C85.4608 10.972 85.7568 11.236 85.9728 11.588C86.2368 11.252 86.5768 10.992 86.9928 10.808C87.4088 10.616 87.8688 10.52 88.3728 10.52Z" fill="white"/>
</svg>
