<svg width="22" height="20" viewBox="0 0 22 20" fill="none" xmlns="http://www.w3.org/2000/svg">
<path d="M18.8 19.8573L14.6 15.7073C14.0167 15.8906 13.4293 16.0283 12.838 16.1203C12.246 16.2116 11.6333 16.2573 11 16.2573C8.48333 16.2573 6.24167 15.5616 4.275 14.1703C2.30833 12.7783 0.883333 10.9739 0 8.75725C0.35 7.87392 0.791667 7.05292 1.325 6.29425C1.85833 5.53625 2.46667 4.85725 3.15 4.25725L0.4 1.45725L1.8 0.057251L20.2 18.4573L18.8 19.8573ZM11 13.2573C11.1833 13.2573 11.354 13.2489 11.512 13.2323C11.6707 13.2156 11.8417 13.1823 12.025 13.1323L6.625 7.73225C6.575 7.91558 6.54167 8.08658 6.525 8.24525C6.50833 8.40325 6.5 8.57392 6.5 8.75725C6.5 10.0073 6.93733 11.0699 7.812 11.9453C8.68733 12.8199 9.75 13.2573 11 13.2573ZM18.3 13.7073L15.125 10.5573C15.2417 10.2739 15.3333 9.98658 15.4 9.69525C15.4667 9.40325 15.5 9.09058 15.5 8.75725C15.5 7.50725 15.0627 6.44458 14.188 5.56925C13.3127 4.69458 12.25 4.25725 11 4.25725C10.6667 4.25725 10.354 4.29058 10.062 4.35725C9.77067 4.42392 9.48333 4.52392 9.2 4.65725L6.65 2.10725C7.33333 1.82392 8.03333 1.61125 8.75 1.46925C9.46667 1.32792 10.2167 1.25725 11 1.25725C13.5167 1.25725 15.7583 1.95292 17.725 3.34425C19.6917 4.73625 21.1167 6.54058 22 8.75725C21.6167 9.74058 21.1127 10.6533 20.488 11.4953C19.8627 12.3366 19.1333 13.0739 18.3 13.7073ZM13.675 9.10725L10.675 6.10725C11.1417 6.02392 11.571 6.06125 11.963 6.21925C12.3543 6.37792 12.6917 6.60725 12.975 6.90725C13.2583 7.20725 13.4627 7.55325 13.588 7.94525C13.7127 8.33658 13.7417 8.72392 13.675 9.10725Z" fill="white"/>
</svg>
