<svg xmlns="http://www.w3.org/2000/svg" xmlns:svgjs="http://svgjs.com/svgjs" xmlns:xlink="http://www.w3.org/1999/xlink" width="288" height="288"><svg xmlns="http://www.w3.org/2000/svg" width="288" height="288" viewBox="0 0 24 24"><path fill="none" stroke="#fff" stroke-linecap="round" stroke-linejoin="round" stroke-width="2" d="M14.12 14.12a2.998 2.998 0 01-5.194-2.098A3 3 0 019.88 9.88m8.06 8.06A10.07 10.07 0 0112 20c-7 0-11-8-11-8a18.45 18.45 0 015.06-5.94l11.88 11.88zM9.9 4.24A9.12 9.12 0 0112 4c7 0 11 8 11 8a18.494 18.494 0 01-2.16 3.19L9.9 4.24zM1 1l22 22" class="colorStrokecurrentColor svgStroke"/></svg></svg>