<svg width="245" height="93" viewBox="0 0 245 93" fill="none" xmlns="http://www.w3.org/2000/svg">
<rect x="22" width="202" height="52" rx="26" fill="#2B3B67"/>
<circle cx="48" cy="26" r="18" fill="#1EC794"/>
<path d="M56.979 21.4265L56.9784 21.4109C56.9692 21.2188 56.9631 21.0156 56.9593 20.7895C56.9421 19.6867 56.0156 18.7745 54.85 18.7129C52.4196 18.5846 50.5396 17.8348 48.9332 16.3533L48.9195 16.3409C48.3955 15.8864 47.6051 15.8864 47.081 16.3409L47.0673 16.3533C45.4609 17.8348 43.5808 18.5846 41.1505 18.713C39.985 18.7745 39.0584 19.6867 39.0411 20.7896C39.0376 21.0142 39.0313 21.2175 39.0221 21.4109L39.0211 21.4471C38.9739 23.7919 38.9152 26.7102 39.947 29.3589C40.5143 30.8155 41.3735 32.0817 42.5007 33.1225C43.7843 34.3078 45.4657 35.2488 47.498 35.9193C47.5642 35.9411 47.6329 35.9588 47.7029 35.9721C47.8015 35.9907 47.9009 36 48.0002 36C48.0996 36 48.1991 35.9907 48.2976 35.9721C48.3676 35.9588 48.4368 35.9409 48.5032 35.919C50.5331 35.2473 52.2127 34.3058 53.4953 33.1207C54.6219 32.0796 55.4812 30.8131 56.049 29.3562C57.0847 26.6995 57.0261 23.7757 56.979 21.4265ZM54.8853 28.9501C53.797 31.7419 51.5756 33.6592 48.0939 34.8112C48.0815 34.8152 48.0683 34.8187 48.0546 34.8213C48.0186 34.828 47.982 34.828 47.9456 34.8211C47.932 34.8185 47.9188 34.8152 47.9065 34.8112C44.4212 33.6613 42.1983 31.7451 41.1108 28.9532C40.1598 26.5116 40.2137 23.8328 40.2613 21.4695L40.2616 21.4564C40.2713 21.2533 40.2777 21.0406 40.2813 20.8069C40.289 20.3172 40.7012 19.9121 41.2197 19.8848C42.595 19.8121 43.8032 19.5607 44.9134 19.116C46.0221 18.672 47.0068 18.0461 47.9235 17.2026C47.9701 17.1653 48.0306 17.1652 48.077 17.2026C48.9938 18.0461 49.9785 18.672 51.0871 19.116C52.1972 19.5607 53.4055 19.8121 54.7809 19.8848C55.2994 19.9121 55.7116 20.3172 55.7192 20.807C55.7229 21.042 55.7294 21.2547 55.739 21.4564C55.7864 23.8224 55.839 26.5034 54.8853 28.9501Z" fill="white"/>
<path d="M50.38 23.2644L46.6361 26.8226L45.62 25.8568C45.2493 25.5046 44.6484 25.5046 44.2778 25.8568C43.9074 26.2091 43.9074 26.7802 44.2778 27.1322L45.9652 28.7359C46.1505 28.9121 46.3933 29 46.6361 29C46.8789 29 47.1218 28.9121 47.3071 28.7359L51.7222 24.5397C52.0926 24.1875 52.0926 23.6164 51.7222 23.2644C51.3516 22.9119 50.7507 22.9119 50.38 23.2644Z" fill="white"/>
<path d="M78.736 17.184H76.048V15.6H83.368V17.184H80.68V24H78.736V17.184ZM88.206 17.448C89.006 17.448 89.65 17.688 90.138 18.168C90.634 18.648 90.882 19.36 90.882 20.304V24H89.01V20.592C89.01 20.08 88.898 19.7 88.674 19.452C88.45 19.196 88.126 19.068 87.702 19.068C87.23 19.068 86.854 19.216 86.574 19.512C86.294 19.8 86.154 20.232 86.154 20.808V24H84.282V15.096H86.154V18.216C86.402 17.968 86.702 17.78 87.054 17.652C87.406 17.516 87.79 17.448 88.206 17.448ZM92.5788 17.544H94.4508V24H92.5788V17.544ZM93.5148 16.644C93.1708 16.644 92.8908 16.544 92.6748 16.344C92.4588 16.144 92.3508 15.896 92.3508 15.6C92.3508 15.304 92.4588 15.056 92.6748 14.856C92.8908 14.656 93.1708 14.556 93.5148 14.556C93.8588 14.556 94.1388 14.652 94.3548 14.844C94.5708 15.036 94.6788 15.276 94.6788 15.564C94.6788 15.876 94.5708 16.136 94.3548 16.344C94.1388 16.544 93.8588 16.644 93.5148 16.644ZM98.3602 24.096C97.8242 24.096 97.3002 24.032 96.7882 23.904C96.2762 23.768 95.8682 23.6 95.5642 23.4L96.1882 22.056C96.4762 22.24 96.8242 22.392 97.2322 22.512C97.6402 22.624 98.0402 22.68 98.4322 22.68C99.2242 22.68 99.6202 22.484 99.6202 22.092C99.6202 21.908 99.5122 21.776 99.2962 21.696C99.0802 21.616 98.7482 21.548 98.3002 21.492C97.7722 21.412 97.3362 21.32 96.9922 21.216C96.6482 21.112 96.3482 20.928 96.0922 20.664C95.8442 20.4 95.7202 20.024 95.7202 19.536C95.7202 19.128 95.8362 18.768 96.0682 18.456C96.3082 18.136 96.6522 17.888 97.1002 17.712C97.5562 17.536 98.0922 17.448 98.7082 17.448C99.1642 17.448 99.6162 17.5 100.064 17.604C100.52 17.7 100.896 17.836 101.192 18.012L100.568 19.344C100 19.024 99.3802 18.864 98.7082 18.864C98.3082 18.864 98.0082 18.92 97.8082 19.032C97.6082 19.144 97.5082 19.288 97.5082 19.464C97.5082 19.664 97.6162 19.804 97.8322 19.884C98.0482 19.964 98.3922 20.04 98.8642 20.112C99.3922 20.2 99.8242 20.296 100.16 20.4C100.496 20.496 100.788 20.676 101.036 20.94C101.284 21.204 101.408 21.572 101.408 22.044C101.408 22.444 101.288 22.8 101.048 23.112C100.808 23.424 100.456 23.668 99.9922 23.844C99.5362 24.012 98.9922 24.096 98.3602 24.096ZM116.33 17.544L113.99 24H112.19L110.738 19.992L109.238 24H107.438L105.11 17.544H106.874L108.398 21.912L109.982 17.544H111.566L113.102 21.912L114.674 17.544H116.33ZM123.348 20.796C123.348 20.82 123.336 20.988 123.312 21.3H118.428C118.516 21.7 118.724 22.016 119.052 22.248C119.38 22.48 119.788 22.596 120.276 22.596C120.612 22.596 120.908 22.548 121.164 22.452C121.428 22.348 121.672 22.188 121.896 21.972L122.892 23.052C122.284 23.748 121.396 24.096 120.228 24.096C119.5 24.096 118.856 23.956 118.296 23.676C117.736 23.388 117.304 22.992 117 22.488C116.696 21.984 116.544 21.412 116.544 20.772C116.544 20.14 116.692 19.572 116.988 19.068C117.292 18.556 117.704 18.16 118.224 17.88C118.752 17.592 119.34 17.448 119.988 17.448C120.62 17.448 121.192 17.584 121.704 17.856C122.216 18.128 122.616 18.52 122.904 19.032C123.2 19.536 123.348 20.124 123.348 20.796ZM120 18.864C119.576 18.864 119.22 18.984 118.932 19.224C118.644 19.464 118.468 19.792 118.404 20.208H121.584C121.52 19.8 121.344 19.476 121.056 19.236C120.768 18.988 120.416 18.864 120 18.864ZM128.41 17.448C129.01 17.448 129.554 17.588 130.042 17.868C130.538 18.14 130.926 18.528 131.206 19.032C131.486 19.528 131.626 20.108 131.626 20.772C131.626 21.436 131.486 22.02 131.206 22.524C130.926 23.02 130.538 23.408 130.042 23.688C129.554 23.96 129.01 24.096 128.41 24.096C127.522 24.096 126.846 23.816 126.382 23.256V24H124.594V15.096H126.466V18.228C126.938 17.708 127.586 17.448 128.41 17.448ZM128.086 22.56C128.566 22.56 128.958 22.4 129.262 22.08C129.574 21.752 129.73 21.316 129.73 20.772C129.73 20.228 129.574 19.796 129.262 19.476C128.958 19.148 128.566 18.984 128.086 18.984C127.606 18.984 127.21 19.148 126.898 19.476C126.594 19.796 126.442 20.228 126.442 20.772C126.442 21.316 126.594 21.752 126.898 22.08C127.21 22.4 127.606 22.56 128.086 22.56ZM135.052 24.096C134.516 24.096 133.992 24.032 133.48 23.904C132.968 23.768 132.56 23.6 132.256 23.4L132.88 22.056C133.168 22.24 133.516 22.392 133.924 22.512C134.332 22.624 134.732 22.68 135.124 22.68C135.916 22.68 136.312 22.484 136.312 22.092C136.312 21.908 136.204 21.776 135.988 21.696C135.772 21.616 135.44 21.548 134.992 21.492C134.464 21.412 134.028 21.32 133.684 21.216C133.34 21.112 133.04 20.928 132.784 20.664C132.536 20.4 132.412 20.024 132.412 19.536C132.412 19.128 132.528 18.768 132.76 18.456C133 18.136 133.344 17.888 133.792 17.712C134.248 17.536 134.784 17.448 135.4 17.448C135.856 17.448 136.308 17.5 136.756 17.604C137.212 17.7 137.588 17.836 137.884 18.012L137.26 19.344C136.692 19.024 136.072 18.864 135.4 18.864C135 18.864 134.7 18.92 134.5 19.032C134.3 19.144 134.2 19.288 134.2 19.464C134.2 19.664 134.308 19.804 134.524 19.884C134.74 19.964 135.084 20.04 135.556 20.112C136.084 20.2 136.516 20.296 136.852 20.4C137.188 20.496 137.48 20.676 137.728 20.94C137.976 21.204 138.1 21.572 138.1 22.044C138.1 22.444 137.98 22.8 137.74 23.112C137.5 23.424 137.148 23.668 136.684 23.844C136.228 24.012 135.684 24.096 135.052 24.096ZM139.255 17.544H141.127V24H139.255V17.544ZM140.191 16.644C139.847 16.644 139.567 16.544 139.351 16.344C139.135 16.144 139.027 15.896 139.027 15.6C139.027 15.304 139.135 15.056 139.351 14.856C139.567 14.656 139.847 14.556 140.191 14.556C140.535 14.556 140.815 14.652 141.031 14.844C141.247 15.036 141.355 15.276 141.355 15.564C141.355 15.876 141.247 16.136 141.031 16.344C140.815 16.544 140.535 16.644 140.191 16.644ZM147.028 23.688C146.844 23.824 146.616 23.928 146.344 24C146.08 24.064 145.8 24.096 145.504 24.096C144.736 24.096 144.14 23.9 143.716 23.508C143.3 23.116 143.092 22.54 143.092 21.78V19.128H142.096V17.688H143.092V16.116H144.964V17.688H146.572V19.128H144.964V21.756C144.964 22.028 145.032 22.24 145.168 22.392C145.312 22.536 145.512 22.608 145.768 22.608C146.064 22.608 146.316 22.528 146.524 22.368L147.028 23.688ZM154.204 20.796C154.204 20.82 154.192 20.988 154.168 21.3H149.284C149.372 21.7 149.58 22.016 149.908 22.248C150.236 22.48 150.644 22.596 151.132 22.596C151.468 22.596 151.764 22.548 152.02 22.452C152.284 22.348 152.528 22.188 152.752 21.972L153.748 23.052C153.14 23.748 152.252 24.096 151.084 24.096C150.356 24.096 149.712 23.956 149.152 23.676C148.592 23.388 148.16 22.992 147.856 22.488C147.552 21.984 147.4 21.412 147.4 20.772C147.4 20.14 147.548 19.572 147.844 19.068C148.148 18.556 148.56 18.16 149.08 17.88C149.608 17.592 150.196 17.448 150.844 17.448C151.476 17.448 152.048 17.584 152.56 17.856C153.072 18.128 153.472 18.52 153.76 19.032C154.056 19.536 154.204 20.124 154.204 20.796ZM150.856 18.864C150.432 18.864 150.076 18.984 149.788 19.224C149.5 19.464 149.324 19.792 149.26 20.208H152.44C152.376 19.8 152.2 19.476 151.912 19.236C151.624 18.988 151.272 18.864 150.856 18.864ZM158.848 17.544H160.72V24H158.848V17.544ZM159.784 16.644C159.44 16.644 159.16 16.544 158.944 16.344C158.728 16.144 158.62 15.896 158.62 15.6C158.62 15.304 158.728 15.056 158.944 14.856C159.16 14.656 159.44 14.556 159.784 14.556C160.128 14.556 160.408 14.652 160.624 14.844C160.84 15.036 160.948 15.276 160.948 15.564C160.948 15.876 160.84 16.136 160.624 16.344C160.408 16.544 160.128 16.644 159.784 16.644ZM164.63 24.096C164.094 24.096 163.57 24.032 163.058 23.904C162.546 23.768 162.138 23.6 161.834 23.4L162.458 22.056C162.746 22.24 163.094 22.392 163.502 22.512C163.91 22.624 164.31 22.68 164.702 22.68C165.494 22.68 165.89 22.484 165.89 22.092C165.89 21.908 165.782 21.776 165.566 21.696C165.35 21.616 165.018 21.548 164.57 21.492C164.042 21.412 163.606 21.32 163.262 21.216C162.918 21.112 162.618 20.928 162.362 20.664C162.114 20.4 161.99 20.024 161.99 19.536C161.99 19.128 162.106 18.768 162.338 18.456C162.578 18.136 162.922 17.888 163.37 17.712C163.826 17.536 164.362 17.448 164.978 17.448C165.434 17.448 165.886 17.5 166.334 17.604C166.79 17.7 167.166 17.836 167.462 18.012L166.838 19.344C166.27 19.024 165.65 18.864 164.978 18.864C164.578 18.864 164.278 18.92 164.078 19.032C163.878 19.144 163.778 19.288 163.778 19.464C163.778 19.664 163.886 19.804 164.102 19.884C164.318 19.964 164.662 20.04 165.134 20.112C165.662 20.2 166.094 20.296 166.43 20.4C166.766 20.496 167.058 20.676 167.306 20.94C167.554 21.204 167.678 21.572 167.678 22.044C167.678 22.444 167.558 22.8 167.318 23.112C167.078 23.424 166.726 23.668 166.262 23.844C165.806 24.012 165.262 24.096 164.63 24.096ZM174.403 24.096C173.867 24.096 173.343 24.032 172.831 23.904C172.319 23.768 171.911 23.6 171.607 23.4L172.231 22.056C172.519 22.24 172.867 22.392 173.275 22.512C173.683 22.624 174.083 22.68 174.475 22.68C175.267 22.68 175.663 22.484 175.663 22.092C175.663 21.908 175.555 21.776 175.339 21.696C175.123 21.616 174.791 21.548 174.343 21.492C173.815 21.412 173.379 21.32 173.035 21.216C172.691 21.112 172.391 20.928 172.135 20.664C171.887 20.4 171.763 20.024 171.763 19.536C171.763 19.128 171.879 18.768 172.111 18.456C172.351 18.136 172.695 17.888 173.143 17.712C173.599 17.536 174.135 17.448 174.751 17.448C175.207 17.448 175.659 17.5 176.107 17.604C176.563 17.7 176.939 17.836 177.235 18.012L176.611 19.344C176.043 19.024 175.423 18.864 174.751 18.864C174.351 18.864 174.051 18.92 173.851 19.032C173.651 19.144 173.551 19.288 173.551 19.464C173.551 19.664 173.659 19.804 173.875 19.884C174.091 19.964 174.435 20.04 174.907 20.112C175.435 20.2 175.867 20.296 176.203 20.4C176.539 20.496 176.831 20.676 177.079 20.94C177.327 21.204 177.451 21.572 177.451 22.044C177.451 22.444 177.331 22.8 177.091 23.112C176.851 23.424 176.499 23.668 176.035 23.844C175.579 24.012 175.035 24.096 174.403 24.096ZM181.21 17.448C182.21 17.448 182.978 17.688 183.514 18.168C184.05 18.64 184.318 19.356 184.318 20.316V24H182.566V23.196C182.214 23.796 181.558 24.096 180.598 24.096C180.102 24.096 179.67 24.012 179.302 23.844C178.942 23.676 178.666 23.444 178.474 23.148C178.282 22.852 178.186 22.516 178.186 22.14C178.186 21.54 178.41 21.068 178.858 20.724C179.314 20.38 180.014 20.208 180.958 20.208H182.446C182.446 19.8 182.322 19.488 182.074 19.272C181.826 19.048 181.454 18.936 180.958 18.936C180.614 18.936 180.274 18.992 179.938 19.104C179.61 19.208 179.33 19.352 179.098 19.536L178.426 18.228C178.778 17.98 179.198 17.788 179.686 17.652C180.182 17.516 180.69 17.448 181.21 17.448ZM181.066 22.836C181.386 22.836 181.67 22.764 181.918 22.62C182.166 22.468 182.342 22.248 182.446 21.96V21.3H181.162C180.394 21.3 180.01 21.552 180.01 22.056C180.01 22.296 180.102 22.488 180.286 22.632C180.478 22.768 180.738 22.836 181.066 22.836ZM188.064 17.688H189.72V19.128H188.112V24H186.24V19.128H185.244V17.688H186.24V17.4C186.24 16.664 186.456 16.08 186.888 15.648C187.328 15.216 187.944 15 188.736 15C189.016 15 189.28 15.032 189.528 15.096C189.784 15.152 189.996 15.236 190.164 15.348L189.672 16.704C189.456 16.552 189.204 16.476 188.916 16.476C188.348 16.476 188.064 16.788 188.064 17.412V17.688ZM196.895 20.796C196.895 20.82 196.883 20.988 196.859 21.3H191.975C192.063 21.7 192.271 22.016 192.599 22.248C192.927 22.48 193.335 22.596 193.823 22.596C194.159 22.596 194.455 22.548 194.711 22.452C194.975 22.348 195.219 22.188 195.443 21.972L196.439 23.052C195.831 23.748 194.943 24.096 193.775 24.096C193.047 24.096 192.403 23.956 191.843 23.676C191.283 23.388 190.851 22.992 190.547 22.488C190.243 21.984 190.091 21.412 190.091 20.772C190.091 20.14 190.239 19.572 190.535 19.068C190.839 18.556 191.251 18.16 191.771 17.88C192.299 17.592 192.887 17.448 193.535 17.448C194.167 17.448 194.739 17.584 195.251 17.856C195.763 18.128 196.163 18.52 196.451 19.032C196.747 19.536 196.895 20.124 196.895 20.796ZM193.547 18.864C193.123 18.864 192.767 18.984 192.479 19.224C192.191 19.464 192.015 19.792 191.951 20.208H195.131C195.067 19.8 194.891 19.476 194.603 19.236C194.315 18.988 193.963 18.864 193.547 18.864ZM84.592 30.6V39H83.308L78.676 33.312V39H77.128V30.6H78.412L83.044 36.288V30.6H84.592ZM89.5788 39.084C88.9308 39.084 88.3468 38.944 87.8268 38.664C87.3068 38.384 86.8988 37.996 86.6028 37.5C86.3148 36.996 86.1708 36.428 86.1708 35.796C86.1708 35.164 86.3148 34.6 86.6028 34.104C86.8988 33.608 87.3068 33.22 87.8268 32.94C88.3468 32.66 88.9308 32.52 89.5788 32.52C90.2348 32.52 90.8228 32.66 91.3428 32.94C91.8628 33.22 92.2668 33.608 92.5548 34.104C92.8508 34.6 92.9988 35.164 92.9988 35.796C92.9988 36.428 92.8508 36.996 92.5548 37.5C92.2668 37.996 91.8628 38.384 91.3428 38.664C90.8228 38.944 90.2348 39.084 89.5788 39.084ZM89.5788 37.8C90.1308 37.8 90.5868 37.616 90.9468 37.248C91.3068 36.88 91.4868 36.396 91.4868 35.796C91.4868 35.196 91.3068 34.712 90.9468 34.344C90.5868 33.976 90.1308 33.792 89.5788 33.792C89.0268 33.792 88.5708 33.976 88.2108 34.344C87.8588 34.712 87.6828 35.196 87.6828 35.796C87.6828 36.396 87.8588 36.88 88.2108 37.248C88.5708 37.616 89.0268 37.8 89.5788 37.8ZM101.602 38.652C101.426 38.796 101.21 38.904 100.954 38.976C100.706 39.048 100.442 39.084 100.162 39.084C99.4576 39.084 98.9136 38.9 98.5296 38.532C98.1456 38.164 97.9536 37.628 97.9536 36.924V33.84H96.8976V32.64H97.9536V31.176H99.4536V32.64H101.17V33.84H99.4536V36.888C99.4536 37.2 99.5296 37.44 99.6816 37.608C99.8336 37.768 100.054 37.848 100.342 37.848C100.678 37.848 100.958 37.76 101.182 37.584L101.602 38.652ZM106.472 32.52C107.28 32.52 107.928 32.756 108.416 33.228C108.904 33.7 109.148 34.4 109.148 35.328V39H107.648V35.52C107.648 34.96 107.516 34.54 107.252 34.26C106.988 33.972 106.612 33.828 106.124 33.828C105.572 33.828 105.136 33.996 104.816 34.332C104.496 34.66 104.336 35.136 104.336 35.76V39H102.836V30.096H104.336V33.336C104.584 33.072 104.888 32.872 105.248 32.736C105.616 32.592 106.024 32.52 106.472 32.52ZM112.478 33.528C112.91 32.856 113.67 32.52 114.758 32.52V33.948C114.63 33.924 114.514 33.912 114.41 33.912C113.826 33.912 113.37 34.084 113.042 34.428C112.714 34.764 112.55 35.252 112.55 35.892V39H111.05V32.592H112.478V33.528ZM121.996 35.832C121.996 35.936 121.988 36.084 121.972 36.276H116.944C117.032 36.748 117.26 37.124 117.628 37.404C118.004 37.676 118.468 37.812 119.02 37.812C119.724 37.812 120.304 37.58 120.76 37.116L121.564 38.04C121.276 38.384 120.912 38.644 120.472 38.82C120.032 38.996 119.536 39.084 118.984 39.084C118.28 39.084 117.66 38.944 117.124 38.664C116.588 38.384 116.172 37.996 115.876 37.5C115.588 36.996 115.444 36.428 115.444 35.796C115.444 35.172 115.584 34.612 115.864 34.116C116.152 33.612 116.548 33.22 117.052 32.94C117.556 32.66 118.124 32.52 118.756 32.52C119.38 32.52 119.936 32.66 120.424 32.94C120.92 33.212 121.304 33.6 121.576 34.104C121.856 34.6 121.996 35.176 121.996 35.832ZM118.756 33.72C118.276 33.72 117.868 33.864 117.532 34.152C117.204 34.432 117.004 34.808 116.932 35.28H120.568C120.504 34.816 120.308 34.44 119.98 34.152C119.652 33.864 119.244 33.72 118.756 33.72ZM125.709 32.52C126.653 32.52 127.373 32.748 127.869 33.204C128.373 33.652 128.625 34.332 128.625 35.244V39H127.209V38.22C127.025 38.5 126.761 38.716 126.417 38.868C126.081 39.012 125.673 39.084 125.193 39.084C124.713 39.084 124.293 39.004 123.933 38.844C123.573 38.676 123.293 38.448 123.093 38.16C122.901 37.864 122.805 37.532 122.805 37.164C122.805 36.588 123.017 36.128 123.441 35.784C123.873 35.432 124.549 35.256 125.469 35.256H127.125V35.16C127.125 34.712 126.989 34.368 126.717 34.128C126.453 33.888 126.057 33.768 125.529 33.768C125.169 33.768 124.813 33.824 124.461 33.936C124.117 34.048 123.825 34.204 123.585 34.404L122.997 33.312C123.333 33.056 123.737 32.86 124.209 32.724C124.681 32.588 125.181 32.52 125.709 32.52ZM125.505 37.992C125.881 37.992 126.213 37.908 126.501 37.74C126.797 37.564 127.005 37.316 127.125 36.996V36.252H125.577C124.713 36.252 124.281 36.536 124.281 37.104C124.281 37.376 124.389 37.592 124.605 37.752C124.821 37.912 125.121 37.992 125.505 37.992ZM134.402 38.652C134.226 38.796 134.01 38.904 133.754 38.976C133.506 39.048 133.242 39.084 132.962 39.084C132.258 39.084 131.714 38.9 131.33 38.532C130.946 38.164 130.754 37.628 130.754 36.924V33.84H129.698V32.64H130.754V31.176H132.254V32.64H133.97V33.84H132.254V36.888C132.254 37.2 132.33 37.44 132.482 37.608C132.634 37.768 132.854 37.848 133.142 37.848C133.478 37.848 133.758 37.76 133.982 37.584L134.402 38.652ZM137.616 39.084C137.096 39.084 136.588 39.016 136.092 38.88C135.596 38.744 135.2 38.572 134.904 38.364L135.48 37.224C135.768 37.416 136.112 37.572 136.512 37.692C136.92 37.804 137.32 37.86 137.712 37.86C138.608 37.86 139.056 37.624 139.056 37.152C139.056 36.928 138.94 36.772 138.708 36.684C138.484 36.596 138.12 36.512 137.616 36.432C137.088 36.352 136.656 36.26 136.32 36.156C135.992 36.052 135.704 35.872 135.456 35.616C135.216 35.352 135.096 34.988 135.096 34.524C135.096 33.916 135.348 33.432 135.852 33.072C136.364 32.704 137.052 32.52 137.916 32.52C138.356 32.52 138.796 32.572 139.236 32.676C139.676 32.772 140.036 32.904 140.316 33.072L139.74 34.212C139.196 33.892 138.584 33.732 137.904 33.732C137.464 33.732 137.128 33.8 136.896 33.936C136.672 34.064 136.56 34.236 136.56 34.452C136.56 34.692 136.68 34.864 136.92 34.968C137.168 35.064 137.548 35.156 138.06 35.244C138.572 35.324 138.992 35.416 139.32 35.52C139.648 35.624 139.928 35.8 140.16 36.048C140.4 36.296 140.52 36.648 140.52 37.104C140.52 37.704 140.26 38.184 139.74 38.544C139.22 38.904 138.512 39.084 137.616 39.084ZM151.405 30.096V39H149.965V38.172C149.717 38.476 149.409 38.704 149.041 38.856C148.681 39.008 148.281 39.084 147.841 39.084C147.225 39.084 146.669 38.948 146.173 38.676C145.685 38.404 145.301 38.02 145.021 37.524C144.741 37.02 144.601 36.444 144.601 35.796C144.601 35.148 144.741 34.576 145.021 34.08C145.301 33.584 145.685 33.2 146.173 32.928C146.669 32.656 147.225 32.52 147.841 32.52C148.265 32.52 148.653 32.592 149.005 32.736C149.357 32.88 149.657 33.096 149.905 33.384V30.096H151.405ZM148.021 37.8C148.381 37.8 148.705 37.72 148.993 37.56C149.281 37.392 149.509 37.156 149.677 36.852C149.845 36.548 149.929 36.196 149.929 35.796C149.929 35.396 149.845 35.044 149.677 34.74C149.509 34.436 149.281 34.204 148.993 34.044C148.705 33.876 148.381 33.792 148.021 33.792C147.661 33.792 147.337 33.876 147.049 34.044C146.761 34.204 146.533 34.436 146.365 34.74C146.197 35.044 146.113 35.396 146.113 35.796C146.113 36.196 146.197 36.548 146.365 36.852C146.533 37.156 146.761 37.392 147.049 37.56C147.337 37.72 147.661 37.8 148.021 37.8ZM159.391 35.832C159.391 35.936 159.383 36.084 159.367 36.276H154.339C154.427 36.748 154.655 37.124 155.023 37.404C155.399 37.676 155.863 37.812 156.415 37.812C157.119 37.812 157.699 37.58 158.155 37.116L158.959 38.04C158.671 38.384 158.307 38.644 157.867 38.82C157.427 38.996 156.931 39.084 156.379 39.084C155.675 39.084 155.055 38.944 154.519 38.664C153.983 38.384 153.567 37.996 153.271 37.5C152.983 36.996 152.839 36.428 152.839 35.796C152.839 35.172 152.979 34.612 153.259 34.116C153.547 33.612 153.943 33.22 154.447 32.94C154.951 32.66 155.519 32.52 156.151 32.52C156.775 32.52 157.331 32.66 157.819 32.94C158.315 33.212 158.699 33.6 158.971 34.104C159.251 34.6 159.391 35.176 159.391 35.832ZM156.151 33.72C155.671 33.72 155.263 33.864 154.927 34.152C154.599 34.432 154.399 34.808 154.327 35.28H157.963C157.899 34.816 157.703 34.44 157.375 34.152C157.047 33.864 156.639 33.72 156.151 33.72ZM164.684 38.652C164.508 38.796 164.292 38.904 164.036 38.976C163.788 39.048 163.524 39.084 163.244 39.084C162.54 39.084 161.996 38.9 161.612 38.532C161.228 38.164 161.036 37.628 161.036 36.924V33.84H159.98V32.64H161.036V31.176H162.536V32.64H164.252V33.84H162.536V36.888C162.536 37.2 162.612 37.44 162.764 37.608C162.916 37.768 163.136 37.848 163.424 37.848C163.76 37.848 164.04 37.76 164.264 37.584L164.684 38.652ZM171.731 35.832C171.731 35.936 171.723 36.084 171.707 36.276H166.679C166.767 36.748 166.995 37.124 167.363 37.404C167.739 37.676 168.203 37.812 168.755 37.812C169.459 37.812 170.039 37.58 170.495 37.116L171.299 38.04C171.011 38.384 170.647 38.644 170.207 38.82C169.767 38.996 169.271 39.084 168.719 39.084C168.015 39.084 167.395 38.944 166.859 38.664C166.323 38.384 165.907 37.996 165.611 37.5C165.323 36.996 165.179 36.428 165.179 35.796C165.179 35.172 165.319 34.612 165.599 34.116C165.887 33.612 166.283 33.22 166.787 32.94C167.291 32.66 167.859 32.52 168.491 32.52C169.115 32.52 169.671 32.66 170.159 32.94C170.655 33.212 171.039 33.6 171.311 34.104C171.591 34.6 171.731 35.176 171.731 35.832ZM168.491 33.72C168.011 33.72 167.603 33.864 167.267 34.152C166.939 34.432 166.739 34.808 166.667 35.28H170.303C170.239 34.816 170.043 34.44 169.715 34.152C169.387 33.864 168.979 33.72 168.491 33.72ZM176.112 39.084C175.448 39.084 174.852 38.944 174.324 38.664C173.796 38.384 173.384 37.996 173.088 37.5C172.792 36.996 172.644 36.428 172.644 35.796C172.644 35.164 172.792 34.6 173.088 34.104C173.384 33.608 173.792 33.22 174.312 32.94C174.84 32.66 175.44 32.52 176.112 32.52C176.744 32.52 177.296 32.648 177.768 32.904C178.248 33.16 178.608 33.528 178.848 34.008L177.696 34.68C177.512 34.384 177.28 34.164 177 34.02C176.728 33.868 176.428 33.792 176.1 33.792C175.54 33.792 175.076 33.976 174.708 34.344C174.34 34.704 174.156 35.188 174.156 35.796C174.156 36.404 174.336 36.892 174.696 37.26C175.064 37.62 175.532 37.8 176.1 37.8C176.428 37.8 176.728 37.728 177 37.584C177.28 37.432 177.512 37.208 177.696 36.912L178.848 37.584C178.6 38.064 178.236 38.436 177.756 38.7C177.284 38.956 176.736 39.084 176.112 39.084ZM184.078 38.652C183.902 38.796 183.686 38.904 183.43 38.976C183.182 39.048 182.918 39.084 182.638 39.084C181.934 39.084 181.39 38.9 181.006 38.532C180.622 38.164 180.43 37.628 180.43 36.924V33.84H179.374V32.64H180.43V31.176H181.93V32.64H183.646V33.84H181.93V36.888C181.93 37.2 182.006 37.44 182.158 37.608C182.31 37.768 182.53 37.848 182.818 37.848C183.154 37.848 183.434 37.76 183.658 37.584L184.078 38.652ZM191.125 35.832C191.125 35.936 191.117 36.084 191.101 36.276H186.073C186.161 36.748 186.389 37.124 186.757 37.404C187.133 37.676 187.597 37.812 188.149 37.812C188.853 37.812 189.433 37.58 189.889 37.116L190.693 38.04C190.405 38.384 190.041 38.644 189.601 38.82C189.161 38.996 188.665 39.084 188.113 39.084C187.409 39.084 186.789 38.944 186.253 38.664C185.717 38.384 185.301 37.996 185.005 37.5C184.717 36.996 184.573 36.428 184.573 35.796C184.573 35.172 184.713 34.612 184.993 34.116C185.281 33.612 185.677 33.22 186.181 32.94C186.685 32.66 187.253 32.52 187.885 32.52C188.509 32.52 189.065 32.66 189.553 32.94C190.049 33.212 190.433 33.6 190.705 34.104C190.985 34.6 191.125 35.176 191.125 35.832ZM187.885 33.72C187.405 33.72 186.997 33.864 186.661 34.152C186.333 34.432 186.133 34.808 186.061 35.28H189.697C189.633 34.816 189.437 34.44 189.109 34.152C188.781 33.864 188.373 33.72 187.885 33.72ZM198.842 30.096V39H197.402V38.172C197.154 38.476 196.846 38.704 196.478 38.856C196.118 39.008 195.718 39.084 195.278 39.084C194.662 39.084 194.106 38.948 193.61 38.676C193.122 38.404 192.738 38.02 192.458 37.524C192.178 37.02 192.038 36.444 192.038 35.796C192.038 35.148 192.178 34.576 192.458 34.08C192.738 33.584 193.122 33.2 193.61 32.928C194.106 32.656 194.662 32.52 195.278 32.52C195.702 32.52 196.09 32.592 196.442 32.736C196.794 32.88 197.094 33.096 197.342 33.384V30.096H198.842ZM195.458 37.8C195.818 37.8 196.142 37.72 196.43 37.56C196.718 37.392 196.946 37.156 197.114 36.852C197.282 36.548 197.366 36.196 197.366 35.796C197.366 35.396 197.282 35.044 197.114 34.74C196.946 34.436 196.718 34.204 196.43 34.044C196.142 33.876 195.818 33.792 195.458 33.792C195.098 33.792 194.774 33.876 194.486 34.044C194.198 34.204 193.97 34.436 193.802 34.74C193.634 35.044 193.55 35.396 193.55 35.796C193.55 36.196 193.634 36.548 193.802 36.852C193.97 37.156 194.198 37.392 194.486 37.56C194.774 37.72 195.098 37.8 195.458 37.8Z" fill="white"/>
<path d="M19.5117 63.6C20.2397 63.6 20.8717 63.72 21.4077 63.96C21.9517 64.2 22.3677 64.544 22.6557 64.992C22.9437 65.44 23.0877 65.972 23.0877 66.588C23.0877 67.196 22.9437 67.728 22.6557 68.184C22.3677 68.632 21.9517 68.976 21.4077 69.216C20.8717 69.456 20.2397 69.576 19.5117 69.576H17.6157V72H16.0557V63.6H19.5117ZM19.4397 68.256C20.1197 68.256 20.6357 68.112 20.9877 67.824C21.3397 67.536 21.5157 67.124 21.5157 66.588C21.5157 66.052 21.3397 65.64 20.9877 65.352C20.6357 65.064 20.1197 64.92 19.4397 64.92H17.6157V68.256H19.4397ZM27.3581 72.084C26.7101 72.084 26.1261 71.944 25.6061 71.664C25.0861 71.384 24.6781 70.996 24.3821 70.5C24.0941 69.996 23.9501 69.428 23.9501 68.796C23.9501 68.164 24.0941 67.6 24.3821 67.104C24.6781 66.608 25.0861 66.22 25.6061 65.94C26.1261 65.66 26.7101 65.52 27.3581 65.52C28.0141 65.52 28.6021 65.66 29.1221 65.94C29.6421 66.22 30.0461 66.608 30.3341 67.104C30.6301 67.6 30.7781 68.164 30.7781 68.796C30.7781 69.428 30.6301 69.996 30.3341 70.5C30.0461 70.996 29.6421 71.384 29.1221 71.664C28.6021 71.944 28.0141 72.084 27.3581 72.084ZM27.3581 70.8C27.9101 70.8 28.3661 70.616 28.7261 70.248C29.0861 69.88 29.2661 69.396 29.2661 68.796C29.2661 68.196 29.0861 67.712 28.7261 67.344C28.3661 66.976 27.9101 66.792 27.3581 66.792C26.8061 66.792 26.3501 66.976 25.9901 67.344C25.6381 67.712 25.4621 68.196 25.4621 68.796C25.4621 69.396 25.6381 69.88 25.9901 70.248C26.3501 70.616 26.8061 70.8 27.3581 70.8ZM42.0327 65.592L39.6687 72H38.2287L36.5727 67.584L34.8927 72H33.4527L31.1007 65.592H32.5167L34.2087 70.32L35.9727 65.592H37.2327L38.9607 70.344L40.7007 65.592H42.0327ZM48.9123 68.832C48.9123 68.936 48.9043 69.084 48.8883 69.276H43.8603C43.9483 69.748 44.1763 70.124 44.5443 70.404C44.9203 70.676 45.3843 70.812 45.9363 70.812C46.6403 70.812 47.2203 70.58 47.6763 70.116L48.4803 71.04C48.1923 71.384 47.8283 71.644 47.3883 71.82C46.9483 71.996 46.4523 72.084 45.9003 72.084C45.1963 72.084 44.5763 71.944 44.0403 71.664C43.5043 71.384 43.0883 70.996 42.7923 70.5C42.5043 69.996 42.3603 69.428 42.3603 68.796C42.3603 68.172 42.5003 67.612 42.7803 67.116C43.0683 66.612 43.4643 66.22 43.9683 65.94C44.4723 65.66 45.0403 65.52 45.6723 65.52C46.2963 65.52 46.8523 65.66 47.3403 65.94C47.8363 66.212 48.2203 66.6 48.4923 67.104C48.7723 67.6 48.9123 68.176 48.9123 68.832ZM45.6723 66.72C45.1923 66.72 44.7843 66.864 44.4483 67.152C44.1203 67.432 43.9203 67.808 43.8483 68.28H47.4843C47.4203 67.816 47.2243 67.44 46.8963 67.152C46.5683 66.864 46.1603 66.72 45.6723 66.72ZM51.7811 66.528C52.2131 65.856 52.9731 65.52 54.0611 65.52V66.948C53.9331 66.924 53.8171 66.912 53.7131 66.912C53.1291 66.912 52.6731 67.084 52.3451 67.428C52.0171 67.764 51.8531 68.252 51.8531 68.892V72H50.3531V65.592H51.7811V66.528ZM61.299 68.832C61.299 68.936 61.291 69.084 61.275 69.276H56.247C56.335 69.748 56.563 70.124 56.931 70.404C57.307 70.676 57.771 70.812 58.323 70.812C59.027 70.812 59.607 70.58 60.063 70.116L60.867 71.04C60.579 71.384 60.215 71.644 59.775 71.82C59.335 71.996 58.839 72.084 58.287 72.084C57.583 72.084 56.963 71.944 56.427 71.664C55.891 71.384 55.475 70.996 55.179 70.5C54.891 69.996 54.747 69.428 54.747 68.796C54.747 68.172 54.887 67.612 55.167 67.116C55.455 66.612 55.851 66.22 56.355 65.94C56.859 65.66 57.427 65.52 58.059 65.52C58.683 65.52 59.239 65.66 59.727 65.94C60.223 66.212 60.607 66.6 60.879 67.104C61.159 67.6 61.299 68.176 61.299 68.832ZM58.059 66.72C57.579 66.72 57.171 66.864 56.835 67.152C56.507 67.432 56.307 67.808 56.235 68.28H59.871C59.807 67.816 59.611 67.44 59.283 67.152C58.955 66.864 58.547 66.72 58.059 66.72ZM69.0159 63.096V72H67.5759V71.172C67.3279 71.476 67.0199 71.704 66.6519 71.856C66.2919 72.008 65.8919 72.084 65.4519 72.084C64.8359 72.084 64.2799 71.948 63.7839 71.676C63.2959 71.404 62.9119 71.02 62.6319 70.524C62.3519 70.02 62.2119 69.444 62.2119 68.796C62.2119 68.148 62.3519 67.576 62.6319 67.08C62.9119 66.584 63.2959 66.2 63.7839 65.928C64.2799 65.656 64.8359 65.52 65.4519 65.52C65.8759 65.52 66.2639 65.592 66.6159 65.736C66.9679 65.88 67.2679 66.096 67.5159 66.384V63.096H69.0159ZM65.6319 70.8C65.9919 70.8 66.3159 70.72 66.6039 70.56C66.8919 70.392 67.1199 70.156 67.2879 69.852C67.4559 69.548 67.5399 69.196 67.5399 68.796C67.5399 68.396 67.4559 68.044 67.2879 67.74C67.1199 67.436 66.8919 67.204 66.6039 67.044C66.3159 66.876 65.9919 66.792 65.6319 66.792C65.2719 66.792 64.9479 66.876 64.6599 67.044C64.3719 67.204 64.1439 67.436 63.9759 67.74C63.8079 68.044 63.7239 68.396 63.7239 68.796C63.7239 69.196 63.8079 69.548 63.9759 69.852C64.1439 70.156 64.3719 70.392 64.6599 70.56C64.9479 70.72 65.2719 70.8 65.6319 70.8ZM77.8465 65.52C78.4705 65.52 79.0265 65.656 79.5145 65.928C80.0105 66.2 80.3985 66.584 80.6785 67.08C80.9585 67.576 81.0985 68.148 81.0985 68.796C81.0985 69.444 80.9585 70.02 80.6785 70.524C80.3985 71.02 80.0105 71.404 79.5145 71.676C79.0265 71.948 78.4705 72.084 77.8465 72.084C77.4065 72.084 77.0025 72.008 76.6345 71.856C76.2745 71.704 75.9705 71.476 75.7225 71.172V72H74.2945V63.096H75.7945V66.372C76.0505 66.092 76.3505 65.88 76.6945 65.736C77.0465 65.592 77.4305 65.52 77.8465 65.52ZM77.6785 70.8C78.2305 70.8 78.6825 70.616 79.0345 70.248C79.3945 69.88 79.5745 69.396 79.5745 68.796C79.5745 68.196 79.3945 67.712 79.0345 67.344C78.6825 66.976 78.2305 66.792 77.6785 66.792C77.3185 66.792 76.9945 66.876 76.7065 67.044C76.4185 67.204 76.1905 67.436 76.0225 67.74C75.8545 68.044 75.7705 68.396 75.7705 68.796C75.7705 69.196 75.8545 69.548 76.0225 69.852C76.1905 70.156 76.4185 70.392 76.7065 70.56C76.9945 70.72 77.3185 70.8 77.6785 70.8ZM88.3453 65.592L85.3453 72.516C85.0653 73.212 84.7253 73.7 84.3253 73.98C83.9253 74.268 83.4413 74.412 82.8733 74.412C82.5533 74.412 82.2373 74.36 81.9253 74.256C81.6133 74.152 81.3573 74.008 81.1573 73.824L81.7573 72.72C81.9013 72.856 82.0693 72.964 82.2613 73.044C82.4613 73.124 82.6613 73.164 82.8613 73.164C83.1253 73.164 83.3413 73.096 83.5093 72.96C83.6853 72.824 83.8453 72.596 83.9893 72.276L84.0973 72.024L81.3013 65.592H82.8613L84.8773 70.332L86.9053 65.592H88.3453ZM98.3693 67.668H100.145V71.076C99.6893 71.42 99.1613 71.684 98.5613 71.868C97.9613 72.052 97.3573 72.144 96.7493 72.144C95.8773 72.144 95.0933 71.96 94.3973 71.592C93.7013 71.216 93.1533 70.7 92.7533 70.044C92.3613 69.38 92.1653 68.632 92.1653 67.8C92.1653 66.968 92.3613 66.224 92.7533 65.568C93.1533 64.904 93.7053 64.388 94.4093 64.02C95.1133 63.644 95.9053 63.456 96.7853 63.456C97.5213 63.456 98.1893 63.58 98.7893 63.828C99.3893 64.076 99.8933 64.436 100.301 64.908L99.0533 66.06C98.4533 65.428 97.7293 65.112 96.8813 65.112C96.3453 65.112 95.8693 65.224 95.4533 65.448C95.0373 65.672 94.7133 65.988 94.4813 66.396C94.2493 66.804 94.1333 67.272 94.1333 67.8C94.1333 68.32 94.2493 68.784 94.4813 69.192C94.7133 69.6 95.0333 69.92 95.4413 70.152C95.8573 70.376 96.3293 70.488 96.8573 70.488C97.4173 70.488 97.9213 70.368 98.3693 70.128V67.668ZM104.891 72.096C104.211 72.096 103.599 71.956 103.055 71.676C102.519 71.388 102.099 70.992 101.795 70.488C101.491 69.984 101.339 69.412 101.339 68.772C101.339 68.132 101.491 67.56 101.795 67.056C102.099 66.552 102.519 66.16 103.055 65.88C103.599 65.592 104.211 65.448 104.891 65.448C105.571 65.448 106.179 65.592 106.715 65.88C107.251 66.16 107.671 66.552 107.975 67.056C108.279 67.56 108.431 68.132 108.431 68.772C108.431 69.412 108.279 69.984 107.975 70.488C107.671 70.992 107.251 71.388 106.715 71.676C106.179 71.956 105.571 72.096 104.891 72.096ZM104.891 70.56C105.371 70.56 105.763 70.4 106.067 70.08C106.379 69.752 106.535 69.316 106.535 68.772C106.535 68.228 106.379 67.796 106.067 67.476C105.763 67.148 105.371 66.984 104.891 66.984C104.411 66.984 104.015 67.148 103.703 67.476C103.391 67.796 103.235 68.228 103.235 68.772C103.235 69.316 103.391 69.752 103.703 70.08C104.015 70.4 104.411 70.56 104.891 70.56ZM112.754 72.096C112.074 72.096 111.462 71.956 110.918 71.676C110.382 71.388 109.962 70.992 109.658 70.488C109.354 69.984 109.202 69.412 109.202 68.772C109.202 68.132 109.354 67.56 109.658 67.056C109.962 66.552 110.382 66.16 110.918 65.88C111.462 65.592 112.074 65.448 112.754 65.448C113.434 65.448 114.042 65.592 114.578 65.88C115.114 66.16 115.534 66.552 115.838 67.056C116.142 67.56 116.294 68.132 116.294 68.772C116.294 69.412 116.142 69.984 115.838 70.488C115.534 70.992 115.114 71.388 114.578 71.676C114.042 71.956 113.434 72.096 112.754 72.096ZM112.754 70.56C113.234 70.56 113.626 70.4 113.93 70.08C114.242 69.752 114.398 69.316 114.398 68.772C114.398 68.228 114.242 67.796 113.93 67.476C113.626 67.148 113.234 66.984 112.754 66.984C112.274 66.984 111.878 67.148 111.566 67.476C111.254 67.796 111.098 68.228 111.098 68.772C111.098 69.316 111.254 69.752 111.566 70.08C111.878 70.4 112.274 70.56 112.754 70.56ZM124.206 65.544V70.92C124.206 72.104 123.898 72.984 123.282 73.56C122.666 74.136 121.766 74.424 120.582 74.424C119.958 74.424 119.366 74.348 118.806 74.196C118.246 74.044 117.782 73.824 117.414 73.536L118.158 72.192C118.43 72.416 118.774 72.592 119.19 72.72C119.606 72.856 120.022 72.924 120.438 72.924C121.086 72.924 121.562 72.776 121.866 72.48C122.178 72.192 122.334 71.752 122.334 71.16V70.884C121.846 71.42 121.166 71.688 120.294 71.688C119.702 71.688 119.158 71.56 118.662 71.304C118.174 71.04 117.786 70.672 117.498 70.2C117.21 69.728 117.066 69.184 117.066 68.568C117.066 67.952 117.21 67.408 117.498 66.936C117.786 66.464 118.174 66.1 118.662 65.844C119.158 65.58 119.702 65.448 120.294 65.448C121.23 65.448 121.942 65.756 122.43 66.372V65.544H124.206ZM120.666 70.152C121.162 70.152 121.566 70.008 121.878 69.72C122.198 69.424 122.358 69.04 122.358 68.568C122.358 68.096 122.198 67.716 121.878 67.428C121.566 67.132 121.162 66.984 120.666 66.984C120.17 66.984 119.762 67.132 119.442 67.428C119.122 67.716 118.962 68.096 118.962 68.568C118.962 69.04 119.122 69.424 119.442 69.72C119.762 70.008 120.17 70.152 120.666 70.152ZM125.948 63.096H127.82V72H125.948V63.096ZM135.881 68.796C135.881 68.82 135.869 68.988 135.845 69.3H130.961C131.049 69.7 131.257 70.016 131.585 70.248C131.913 70.48 132.321 70.596 132.809 70.596C133.145 70.596 133.441 70.548 133.697 70.452C133.961 70.348 134.205 70.188 134.429 69.972L135.425 71.052C134.817 71.748 133.929 72.096 132.761 72.096C132.033 72.096 131.389 71.956 130.829 71.676C130.269 71.388 129.837 70.992 129.533 70.488C129.229 69.984 129.077 69.412 129.077 68.772C129.077 68.14 129.225 67.572 129.521 67.068C129.825 66.556 130.237 66.16 130.757 65.88C131.285 65.592 131.873 65.448 132.521 65.448C133.153 65.448 133.725 65.584 134.237 65.856C134.749 66.128 135.149 66.52 135.437 67.032C135.733 67.536 135.881 68.124 135.881 68.796ZM132.533 66.864C132.109 66.864 131.753 66.984 131.465 67.224C131.177 67.464 131.001 67.792 130.937 68.208H134.117C134.053 67.8 133.877 67.476 133.589 67.236C133.301 66.988 132.949 66.864 132.533 66.864ZM143.418 72.144C142.754 72.144 142.11 72.056 141.486 71.88C140.87 71.696 140.374 71.46 139.998 71.172L140.658 69.708C141.018 69.972 141.446 70.184 141.942 70.344C142.438 70.504 142.934 70.584 143.43 70.584C143.982 70.584 144.39 70.504 144.654 70.344C144.918 70.176 145.05 69.956 145.05 69.684C145.05 69.484 144.97 69.32 144.81 69.192C144.658 69.056 144.458 68.948 144.21 68.868C143.97 68.788 143.642 68.7 143.226 68.604C142.586 68.452 142.062 68.3 141.654 68.148C141.246 67.996 140.894 67.752 140.598 67.416C140.31 67.08 140.166 66.632 140.166 66.072C140.166 65.584 140.298 65.144 140.562 64.752C140.826 64.352 141.222 64.036 141.75 63.804C142.286 63.572 142.938 63.456 143.706 63.456C144.242 63.456 144.766 63.52 145.278 63.648C145.79 63.776 146.238 63.96 146.622 64.2L146.022 65.676C145.246 65.236 144.47 65.016 143.694 65.016C143.15 65.016 142.746 65.104 142.482 65.28C142.226 65.456 142.098 65.688 142.098 65.976C142.098 66.264 142.246 66.48 142.542 66.624C142.846 66.76 143.306 66.896 143.922 67.032C144.562 67.184 145.086 67.336 145.494 67.488C145.902 67.64 146.25 67.88 146.538 68.208C146.834 68.536 146.982 68.98 146.982 69.54C146.982 70.02 146.846 70.46 146.574 70.86C146.31 71.252 145.91 71.564 145.374 71.796C144.838 72.028 144.186 72.144 143.418 72.144ZM150.782 65.448C151.782 65.448 152.55 65.688 153.086 66.168C153.622 66.64 153.89 67.356 153.89 68.316V72H152.138V71.196C151.786 71.796 151.13 72.096 150.17 72.096C149.674 72.096 149.242 72.012 148.874 71.844C148.514 71.676 148.238 71.444 148.046 71.148C147.854 70.852 147.758 70.516 147.758 70.14C147.758 69.54 147.982 69.068 148.43 68.724C148.886 68.38 149.586 68.208 150.53 68.208H152.018C152.018 67.8 151.894 67.488 151.646 67.272C151.398 67.048 151.026 66.936 150.53 66.936C150.186 66.936 149.846 66.992 149.51 67.104C149.182 67.208 148.902 67.352 148.67 67.536L147.998 66.228C148.35 65.98 148.77 65.788 149.258 65.652C149.754 65.516 150.262 65.448 150.782 65.448ZM150.638 70.836C150.958 70.836 151.242 70.764 151.49 70.62C151.738 70.468 151.914 70.248 152.018 69.96V69.3H150.734C149.966 69.3 149.582 69.552 149.582 70.056C149.582 70.296 149.674 70.488 149.858 70.632C150.05 70.768 150.31 70.836 150.638 70.836ZM157.637 65.688H159.293V67.128H157.685V72H155.813V67.128H154.817V65.688H155.813V65.4C155.813 64.664 156.029 64.08 156.461 63.648C156.901 63.216 157.517 63 158.309 63C158.589 63 158.853 63.032 159.101 63.096C159.357 63.152 159.569 63.236 159.737 63.348L159.245 64.704C159.029 64.552 158.777 64.476 158.489 64.476C157.921 64.476 157.637 64.788 157.637 65.412V65.688ZM166.467 68.796C166.467 68.82 166.455 68.988 166.431 69.3H161.547C161.635 69.7 161.843 70.016 162.171 70.248C162.499 70.48 162.907 70.596 163.395 70.596C163.731 70.596 164.027 70.548 164.283 70.452C164.547 70.348 164.791 70.188 165.015 69.972L166.011 71.052C165.403 71.748 164.515 72.096 163.347 72.096C162.619 72.096 161.975 71.956 161.415 71.676C160.855 71.388 160.423 70.992 160.119 70.488C159.815 69.984 159.663 69.412 159.663 68.772C159.663 68.14 159.811 67.572 160.107 67.068C160.411 66.556 160.823 66.16 161.343 65.88C161.871 65.592 162.459 65.448 163.107 65.448C163.739 65.448 164.311 65.584 164.823 65.856C165.335 66.128 165.735 66.52 166.023 67.032C166.319 67.536 166.467 68.124 166.467 68.796ZM163.119 66.864C162.695 66.864 162.339 66.984 162.051 67.224C161.763 67.464 161.587 67.792 161.523 68.208H164.703C164.639 67.8 164.463 67.476 164.175 67.236C163.887 66.988 163.535 66.864 163.119 66.864ZM177.412 67.632C177.892 67.784 178.268 68.04 178.54 68.4C178.812 68.752 178.948 69.188 178.948 69.708C178.948 70.444 178.66 71.012 178.084 71.412C177.516 71.804 176.684 72 175.588 72H171.244V63.6H175.348C176.372 63.6 177.156 63.796 177.7 64.188C178.252 64.58 178.528 65.112 178.528 65.784C178.528 66.192 178.428 66.556 178.228 66.876C178.036 67.196 177.764 67.448 177.412 67.632ZM173.176 65.064V67.044H175.108C175.588 67.044 175.952 66.96 176.2 66.792C176.448 66.624 176.572 66.376 176.572 66.048C176.572 65.72 176.448 65.476 176.2 65.316C175.952 65.148 175.588 65.064 175.108 65.064H173.176ZM175.444 70.536C175.956 70.536 176.34 70.452 176.596 70.284C176.86 70.116 176.992 69.856 176.992 69.504C176.992 68.808 176.476 68.46 175.444 68.46H173.176V70.536H175.444ZM182.076 66.396C182.3 66.084 182.6 65.848 182.976 65.688C183.36 65.528 183.8 65.448 184.296 65.448V67.176C184.088 67.16 183.948 67.152 183.876 67.152C183.34 67.152 182.92 67.304 182.616 67.608C182.312 67.904 182.16 68.352 182.16 68.952V72H180.288V65.544H182.076V66.396ZM188.422 72.096C187.742 72.096 187.13 71.956 186.586 71.676C186.05 71.388 185.63 70.992 185.326 70.488C185.022 69.984 184.87 69.412 184.87 68.772C184.87 68.132 185.022 67.56 185.326 67.056C185.63 66.552 186.05 66.16 186.586 65.88C187.13 65.592 187.742 65.448 188.422 65.448C189.102 65.448 189.71 65.592 190.246 65.88C190.782 66.16 191.202 66.552 191.506 67.056C191.81 67.56 191.962 68.132 191.962 68.772C191.962 69.412 191.81 69.984 191.506 70.488C191.202 70.992 190.782 71.388 190.246 71.676C189.71 71.956 189.102 72.096 188.422 72.096ZM188.422 70.56C188.902 70.56 189.294 70.4 189.598 70.08C189.91 69.752 190.066 69.316 190.066 68.772C190.066 68.228 189.91 67.796 189.598 67.476C189.294 67.148 188.902 66.984 188.422 66.984C187.942 66.984 187.546 67.148 187.234 67.476C186.922 67.796 186.766 68.228 186.766 68.772C186.766 69.316 186.922 69.752 187.234 70.08C187.546 70.4 187.942 70.56 188.422 70.56ZM203.406 65.544L201.066 72H199.266L197.814 67.992L196.314 72H194.514L192.186 65.544H193.95L195.474 69.912L197.058 65.544H198.642L200.178 69.912L201.75 65.544H203.406ZM206.354 72.096C205.818 72.096 205.294 72.032 204.782 71.904C204.27 71.768 203.862 71.6 203.558 71.4L204.182 70.056C204.47 70.24 204.818 70.392 205.226 70.512C205.634 70.624 206.034 70.68 206.426 70.68C207.218 70.68 207.614 70.484 207.614 70.092C207.614 69.908 207.506 69.776 207.29 69.696C207.074 69.616 206.742 69.548 206.294 69.492C205.766 69.412 205.33 69.32 204.986 69.216C204.642 69.112 204.342 68.928 204.086 68.664C203.838 68.4 203.714 68.024 203.714 67.536C203.714 67.128 203.83 66.768 204.062 66.456C204.302 66.136 204.646 65.888 205.094 65.712C205.55 65.536 206.086 65.448 206.702 65.448C207.158 65.448 207.61 65.5 208.058 65.604C208.514 65.7 208.89 65.836 209.186 66.012L208.562 67.344C207.994 67.024 207.374 66.864 206.702 66.864C206.302 66.864 206.002 66.92 205.802 67.032C205.602 67.144 205.502 67.288 205.502 67.464C205.502 67.664 205.61 67.804 205.826 67.884C206.042 67.964 206.386 68.04 206.858 68.112C207.386 68.2 207.818 68.296 208.154 68.4C208.49 68.496 208.782 68.676 209.03 68.94C209.278 69.204 209.402 69.572 209.402 70.044C209.402 70.444 209.282 70.8 209.042 71.112C208.802 71.424 208.45 71.668 207.986 71.844C207.53 72.012 206.986 72.096 206.354 72.096ZM210.557 65.544H212.429V72H210.557V65.544ZM211.493 64.644C211.149 64.644 210.869 64.544 210.653 64.344C210.437 64.144 210.329 63.896 210.329 63.6C210.329 63.304 210.437 63.056 210.653 62.856C210.869 62.656 211.149 62.556 211.493 62.556C211.837 62.556 212.117 62.652 212.333 62.844C212.549 63.036 212.657 63.276 212.657 63.564C212.657 63.876 212.549 64.136 212.333 64.344C212.117 64.544 211.837 64.644 211.493 64.644ZM218.091 65.448C218.891 65.448 219.535 65.688 220.023 66.168C220.519 66.648 220.767 67.36 220.767 68.304V72H218.895V68.592C218.895 68.08 218.783 67.7 218.559 67.452C218.335 67.196 218.011 67.068 217.587 67.068C217.115 67.068 216.739 67.216 216.459 67.512C216.179 67.8 216.039 68.232 216.039 68.808V72H214.167V65.544H215.955V66.3C216.203 66.028 216.511 65.82 216.879 65.676C217.247 65.524 217.651 65.448 218.091 65.448ZM229.194 65.544V70.92C229.194 72.104 228.886 72.984 228.27 73.56C227.654 74.136 226.754 74.424 225.57 74.424C224.946 74.424 224.354 74.348 223.794 74.196C223.234 74.044 222.77 73.824 222.402 73.536L223.146 72.192C223.418 72.416 223.762 72.592 224.178 72.72C224.594 72.856 225.01 72.924 225.426 72.924C226.074 72.924 226.55 72.776 226.854 72.48C227.166 72.192 227.322 71.752 227.322 71.16V70.884C226.834 71.42 226.154 71.688 225.282 71.688C224.69 71.688 224.146 71.56 223.65 71.304C223.162 71.04 222.774 70.672 222.486 70.2C222.198 69.728 222.054 69.184 222.054 68.568C222.054 67.952 222.198 67.408 222.486 66.936C222.774 66.464 223.162 66.1 223.65 65.844C224.146 65.58 224.69 65.448 225.282 65.448C226.218 65.448 226.93 65.756 227.418 66.372V65.544H229.194ZM225.654 70.152C226.15 70.152 226.554 70.008 226.866 69.72C227.186 69.424 227.346 69.04 227.346 68.568C227.346 68.096 227.186 67.716 226.866 67.428C226.554 67.132 226.15 66.984 225.654 66.984C225.158 66.984 224.75 67.132 224.43 67.428C224.11 67.716 223.95 68.096 223.95 68.568C223.95 69.04 224.11 69.424 224.43 69.72C224.75 70.008 225.158 70.152 225.654 70.152Z" fill="#A0A1AA"/>
</svg>
