<svg width="24" height="24" viewBox="0 0 24 24" fill="none" xmlns="http://www.w3.org/2000/svg">
<rect x="10" y="6" width="5" height="13" fill="white"/>
<path d="M12.2936 7.16968C12.5769 7.16968 12.8146 7.26568 13.0066 7.45768C13.1979 7.64901 13.2936 7.88634 13.2936 8.16968C13.2936 8.45301 13.1979 8.69068 13.0066 8.88268C12.8146 9.07401 12.5769 9.16968 12.2936 9.16968C12.0102 9.16968 11.7729 9.07401 11.5816 8.88268C11.3896 8.69068 11.2936 8.45301 11.2936 8.16968C11.2936 7.88634 11.3896 7.64901 11.5816 7.45768C11.7729 7.26568 12.0102 7.16968 12.2936 7.16968ZM11.2936 11.1697H13.2936V17.1697H11.2936V11.1697ZM12.2936 2.16968C10.9102 2.16968 9.61025 2.43234 8.39358 2.95768C7.17691 3.48234 6.11858 4.19468 5.21858 5.09468C4.31858 5.99468 3.60625 7.05301 3.08158 8.26968C2.55625 9.48634 2.29358 10.7863 2.29358 12.1697C2.29358 13.553 2.55625 14.853 3.08158 16.0697C3.60625 17.2863 4.31858 18.3447 5.21858 19.2447C6.11858 20.1447 7.17691 20.8573 8.39358 21.3827C9.61025 21.9073 10.9102 22.1697 12.2936 22.1697C13.6769 22.1697 14.9769 21.9073 16.1936 21.3827C17.4102 20.8573 18.4686 20.1447 19.3686 19.2447C20.2686 18.3447 20.9809 17.2863 21.5056 16.0697C22.0309 14.853 22.2936 13.553 22.2936 12.1697C22.2936 10.7863 22.0309 9.48634 21.5056 8.26968C20.9809 7.05301 20.2686 5.99468 19.3686 5.09468C18.4686 4.19468 17.4102 3.48234 16.1936 2.95768C14.9769 2.43234 13.6769 2.16968 12.2936 2.16968Z" fill="#4285F4"/>
</svg>
