<svg width="21" height="21" viewBox="0 0 21 21" fill="none" xmlns="http://www.w3.org/2000/svg">
<path d="M10.2936 5.16968C10.5769 5.16968 10.8146 5.26568 11.0066 5.45768C11.1979 5.64901 11.2936 5.88634 11.2936 6.16968C11.2936 6.45301 11.1979 6.69068 11.0066 6.88268C10.8146 7.07401 10.5769 7.16968 10.2936 7.16968C10.0102 7.16968 9.77291 7.07401 9.58158 6.88268C9.38958 6.69068 9.29358 6.45301 9.29358 6.16968C9.29358 5.88634 9.38958 5.64901 9.58158 5.45768C9.77291 5.26568 10.0102 5.16968 10.2936 5.16968ZM9.29358 9.16968H11.2936V15.1697H9.29358V9.16968ZM10.2936 0.169678C8.91025 0.169678 7.61025 0.432344 6.39358 0.957678C5.17691 1.48234 4.11858 2.19468 3.21858 3.09468C2.31858 3.99468 1.60625 5.05301 1.08158 6.26968C0.556246 7.48635 0.293579 8.78634 0.293579 10.1697C0.293579 11.553 0.556246 12.853 1.08158 14.0697C1.60625 15.2863 2.31858 16.3447 3.21858 17.2447C4.11858 18.1447 5.17691 18.8573 6.39358 19.3827C7.61025 19.9073 8.91025 20.1697 10.2936 20.1697C11.6769 20.1697 12.9769 19.9073 14.1936 19.3827C15.4102 18.8573 16.4686 18.1447 17.3686 17.2447C18.2686 16.3447 18.9809 15.2863 19.5056 14.0697C20.0309 12.853 20.2936 11.553 20.2936 10.1697C20.2936 8.78634 20.0309 7.48635 19.5056 6.26968C18.9809 5.05301 18.2686 3.99468 17.3686 3.09468C16.4686 2.19468 15.4102 1.48234 14.1936 0.957678C12.9769 0.432344 11.6769 0.169678 10.2936 0.169678Z" fill="#4285F4"/>
</svg>
