<svg width="25" height="25" viewBox="0 0 25 25" fill="none" xmlns="http://www.w3.org/2000/svg">
<path d="M21.4471 8.80349C21.437 8.04612 21.2952 7.29627 21.0281 6.58749C20.7964 5.98964 20.4426 5.44669 19.9892 4.99332C19.5359 4.53996 18.9929 4.18614 18.3951 3.95449C17.6954 3.69185 16.9562 3.54983 16.2091 3.53449C15.2471 3.49149 14.9421 3.47949 12.5001 3.47949C10.0581 3.47949 9.74507 3.47949 8.79007 3.53449C8.04323 3.54995 7.30442 3.69196 6.60507 3.95449C6.00713 4.18598 5.46409 4.53974 5.0107 4.99312C4.55732 5.44651 4.20356 5.98955 3.97207 6.58749C3.7089 7.28662 3.56719 8.0256 3.55307 8.77249C3.51007 9.73549 3.49707 10.0405 3.49707 12.4825C3.49707 14.9245 3.49707 15.2365 3.55307 16.1925C3.56807 16.9405 3.70907 17.6785 3.97207 18.3795C4.20395 18.9773 4.55797 19.5201 5.01151 19.9733C5.46505 20.4265 6.00813 20.7801 6.60607 21.0115C7.3035 21.2847 8.04244 21.4369 8.79107 21.4615C9.75407 21.5045 10.0591 21.5175 12.5011 21.5175C14.9431 21.5175 15.2561 21.5175 16.2111 21.4615C16.9582 21.4468 17.6974 21.3051 18.3971 21.0425C18.9948 20.8106 19.5376 20.4567 19.9909 20.0033C20.4442 19.55 20.7982 19.0072 21.0301 18.4095C21.2931 17.7095 21.4341 16.9715 21.4491 16.2225C21.4921 15.2605 21.5051 14.9555 21.5051 12.5125C21.5031 10.0705 21.5031 9.76049 21.4471 8.80349ZM12.4941 17.1005C9.94007 17.1005 7.87107 15.0315 7.87107 12.4775C7.87107 9.92349 9.94007 7.85449 12.4941 7.85449C13.7202 7.85449 14.896 8.34156 15.763 9.20854C16.63 10.0755 17.1171 11.2514 17.1171 12.4775C17.1171 13.7036 16.63 14.8795 15.763 15.7464C14.896 16.6134 13.7202 17.1005 12.4941 17.1005ZM17.3011 8.76149C16.7041 8.76149 16.2231 8.27949 16.2231 7.68349C16.2231 7.54199 16.2509 7.40188 16.3051 7.27115C16.3592 7.14042 16.4386 7.02164 16.5387 6.92158C16.6387 6.82153 16.7575 6.74216 16.8882 6.68801C17.019 6.63386 17.1591 6.60599 17.3006 6.60599C17.4421 6.60599 17.5822 6.63386 17.7129 6.68801C17.8436 6.74216 17.9624 6.82153 18.0625 6.92158C18.1625 7.02164 18.2419 7.14042 18.2961 7.27115C18.3502 7.40188 18.3781 7.54199 18.3781 7.68349C18.3781 8.27949 17.8961 8.76149 17.3011 8.76149Z" fill="white"/>
<path d="M12.4942 15.4796C14.1527 15.4796 15.4972 14.1351 15.4972 12.4766C15.4972 10.8181 14.1527 9.47363 12.4942 9.47363C10.8357 9.47363 9.49121 10.8181 9.49121 12.4766C9.49121 14.1351 10.8357 15.4796 12.4942 15.4796Z" fill="white"/>
</svg>
