<svg width="59" height="21" viewBox="0 0 59 21" fill="none" xmlns="http://www.w3.org/2000/svg">
	<path fill-rule="evenodd" clip-rule="evenodd"
		d="M37.1286 0.558243C36.8018 0.629127 36.5794 0.706442 36.2647 0.858682C35.7822 1.09202 35.5629 1.24683 35.1908 1.6165C34.7988 2.00596 34.5803 2.31556 34.3005 2.8783C34.1043 3.27278 33.8793 3.87801 33.9046 3.9432C33.9125 3.96375 33.9061 3.98055 33.8903 3.98055C33.8745 3.98055 33.8678 4.00416 33.8754 4.03303C33.883 4.0619 33.88 4.08552 33.8686 4.08552C33.8573 4.08552 33.8415 4.1416 33.8335 4.21018C33.8256 4.27875 33.7937 4.49427 33.7626 4.68913C33.6913 5.13661 33.6628 5.97985 33.7059 6.36874C33.7445 6.71725 33.8666 7.35007 33.8976 7.36167C33.9105 7.36653 33.9148 7.38044 33.9072 7.39259C33.889 7.4218 33.9777 7.64403 34.1114 7.904C34.5509 8.75871 35.2492 9.3049 36.1852 9.52613C36.3919 9.575 36.5009 9.5824 37.0063 9.58201C37.6246 9.58151 37.7399 9.5677 38.3703 9.41853L38.6748 9.34647L38.7205 9.12387C38.7456 9.00144 38.7695 8.83936 38.7735 8.7637C38.7775 8.68806 38.7897 8.62605 38.8007 8.62592C38.8116 8.62581 38.8205 8.5755 38.8205 8.51412C38.8205 8.45273 38.8622 8.16636 38.9131 7.8777C38.964 7.58905 39.0057 7.33826 39.0058 7.32042C39.0059 7.29869 38.9555 7.31026 38.8536 7.35537C38.2012 7.64424 37.8327 7.74184 37.3903 7.74289C36.9037 7.74404 36.5431 7.60361 36.2229 7.28824C35.9696 7.03879 35.7203 6.55727 35.7169 6.31071C35.7161 6.25562 35.7062 6.20484 35.6948 6.19789C35.667 6.18086 35.6719 4.97781 35.6998 4.97781C35.7119 4.97781 35.7217 4.9238 35.7217 4.8578C35.7217 4.60806 35.8927 4.07526 36.0959 3.69186C36.1754 3.54185 36.2287 3.45192 36.2515 3.42942C36.2588 3.42221 36.2826 3.38145 36.3044 3.33886C36.3472 3.25535 36.6226 2.97005 36.794 2.83172C36.93 2.72189 37.2471 2.56067 37.483 2.48137C37.739 2.39531 38.2967 2.39345 38.6351 2.47753C38.8775 2.53776 39.3965 2.73606 39.586 2.84083C39.6501 2.87631 39.708 2.89995 39.7146 2.89339C39.7278 2.88032 40.0387 1.05291 40.0388 0.987881C40.0389 0.927179 39.6231 0.77772 39.0647 0.637735L38.5805 0.516357L37.9391 0.518982C37.4977 0.520793 37.2449 0.533049 37.1286 0.558243ZM2.39216 2.17615C2.24787 3.00241 2.12553 3.73614 2.12023 3.80665C2.11496 3.87714 2.00296 4.54447 1.8713 5.28956C1.50452 7.36548 1.49986 7.39327 1.51528 7.41796C1.5232 7.43069 1.51835 7.44807 1.50445 7.45657C1.49057 7.46507 1.47936 7.51609 1.47955 7.56992C1.47973 7.62377 1.41344 8.04168 1.33221 8.49861C1.25098 8.95557 1.18453 9.35413 1.18453 9.38434C1.18453 9.439 1.18892 9.43927 2.08294 9.43927H2.98133L2.99619 9.36709C3.06002 9.05739 3.31065 7.59498 3.31328 7.51698C3.31513 7.46289 3.32557 7.41862 3.33648 7.41857C3.34739 7.41852 3.35634 7.36815 3.35634 7.30664C3.35634 7.20728 3.44118 6.70747 3.83374 4.49353C3.89249 4.16223 3.93463 3.87586 3.9274 3.85712C3.92014 3.83841 3.92711 3.82308 3.94287 3.82308C3.95963 3.82308 3.96668 3.79044 3.95987 3.74435C3.95346 3.70105 3.9569 3.66562 3.96755 3.66562C3.9782 3.66562 3.98842 3.60954 3.99027 3.54096C3.99216 3.47239 4.00982 3.33363 4.02958 3.2326C4.06006 3.07673 4.06592 3.06479 4.06817 3.15386C4.06963 3.2116 4.10075 4.50477 4.13735 6.02757C4.17393 7.55036 4.21103 8.94095 4.21977 9.11778L4.23569 9.43927L4.9018 9.43892L5.56789 9.43856L5.68487 9.11846C5.74921 8.94242 5.80183 8.78314 5.80183 8.76454C5.80183 8.7459 5.81028 8.73068 5.82061 8.73068C5.83092 8.73068 5.83936 8.70383 5.83936 8.671C5.83936 8.63817 5.86402 8.55257 5.89419 8.48074C6.01711 8.18788 6.45976 6.97234 6.44345 6.97234C6.43826 6.97234 6.4694 6.88081 6.51263 6.76895C6.55588 6.6571 6.61907 6.4888 6.65308 6.39498C6.68706 6.30116 6.79382 6.01208 6.89029 5.75256C6.98677 5.49306 7.07121 5.25096 7.07794 5.21456C7.08466 5.17818 7.12691 5.05392 7.17183 4.93845C7.21675 4.82297 7.28744 4.63402 7.32897 4.51854C7.37047 4.40307 7.47109 4.13145 7.55253 3.91494C7.63397 3.69842 7.70657 3.48895 7.71385 3.4494C7.73038 3.3598 7.82899 3.11597 7.83095 3.15985C7.83174 3.17759 7.80809 3.34033 7.77837 3.52151C7.74866 3.70268 7.73096 3.86156 7.73907 3.87455C7.74717 3.88756 7.74156 3.90567 7.72659 3.91486C7.71163 3.92402 7.70146 3.9632 7.70398 4.00196C7.70652 4.0407 7.70066 4.11964 7.69102 4.17737C7.68136 4.23511 7.5479 5.03227 7.39444 5.94883C7.24095 6.8654 7.12066 7.636 7.12712 7.66125C7.13356 7.68652 7.12802 7.70717 7.1148 7.70717C7.10161 7.70717 7.09075 7.75738 7.0907 7.81871C7.09062 7.88004 7.03699 8.24777 6.97152 8.63584C6.90602 9.0239 6.85244 9.36345 6.85244 9.39035C6.85244 9.43719 6.89357 9.43927 7.81916 9.43927C8.35086 9.43927 8.78588 9.42992 8.78588 9.41853C8.78588 9.40712 8.81634 9.2284 8.85358 9.02136C8.89079 8.81432 8.91532 8.62956 8.90804 8.61077C8.90075 8.59198 8.90576 8.5729 8.91916 8.56836C8.93256 8.56382 8.95044 8.47152 8.95889 8.36327C8.96734 8.25501 9.10564 7.41652 9.26623 6.49995C9.42683 5.58339 9.56353 4.76852 9.57004 4.68913C9.58371 4.5219 9.576 4.56794 9.92487 2.56918C10.0717 1.72798 10.1852 1.02906 10.177 1.01604C10.1689 1.00302 10.1731 0.985702 10.1864 0.977567C10.1997 0.969431 10.2114 0.897654 10.2124 0.818083L10.2141 0.673374L8.72701 0.680172L7.23989 0.686942L7.16203 0.936259C7.1192 1.07338 6.94821 1.5812 6.78206 2.06474C6.61592 2.54829 6.47438 2.97509 6.46758 3.0132C6.46077 3.05128 6.36524 3.33471 6.25532 3.64305C6.14541 3.95136 6.0084 4.34534 5.95087 4.51854C5.7098 5.24455 5.48891 5.89244 5.48411 5.88769C5.48128 5.88488 5.4661 4.94976 5.4504 3.80965C5.43467 2.66953 5.41462 1.49756 5.40585 1.20526L5.3899 0.673821H4.02219L2.65448 0.673847L2.39216 2.17615ZM53.8657 1.0257C53.8324 1.21922 53.8133 1.39046 53.8231 1.40623C53.8329 1.42198 53.827 1.43489 53.8099 1.43489C53.7905 1.43489 53.7832 1.46434 53.7905 1.51362C53.7969 1.55693 53.7923 1.59236 53.7803 1.59236C53.7682 1.59236 53.7586 1.63665 53.759 1.69077C53.7593 1.74491 53.7105 2.08443 53.6506 2.44528L53.5417 3.10138L53.2491 2.81912C52.9276 2.50895 52.7799 2.41224 52.4791 2.31495C51.5798 2.02407 50.6768 2.27404 49.9568 3.0132C49.7249 3.2512 49.531 3.49763 49.4192 3.69646C49.1436 4.18617 48.8545 4.86473 48.848 5.03681C48.8465 5.07646 48.835 5.10893 48.8223 5.10898C48.8097 5.109 48.8056 5.13265 48.8133 5.16152C48.8209 5.19039 48.8164 5.21401 48.8034 5.21401C48.7903 5.21401 48.781 5.24057 48.7826 5.27306C48.7842 5.30554 48.7658 5.44731 48.7418 5.58814C48.644 6.1618 48.6419 6.96072 48.737 7.41849C48.7595 7.52675 48.785 7.66256 48.7938 7.72029C48.8225 7.91027 48.994 8.29333 49.1653 8.5502C49.4694 9.00635 49.9153 9.34025 50.3947 9.47081C50.6573 9.54235 51.2218 9.54883 51.4891 9.48341C51.8395 9.39759 52.2625 9.16591 52.5208 8.9183L52.6471 8.79713L52.6339 8.87544C52.6036 9.05422 52.5665 9.33489 52.5665 9.38526C52.5665 9.43874 52.5756 9.43927 53.4782 9.43927H54.3898L54.4046 9.36709C54.4602 9.0972 54.996 5.89228 54.9998 5.80722C55.0017 5.76542 55.0693 5.34617 55.1501 4.87557C55.2308 4.40496 55.3682 3.60311 55.4555 3.09369C55.5427 2.58427 55.6076 2.15699 55.5996 2.14416C55.5916 2.13135 55.5967 2.11372 55.6109 2.10498C55.6252 2.09624 55.6363 2.03934 55.6356 1.97851C55.6349 1.91767 55.6707 1.6667 55.7152 1.42075C55.7596 1.17482 55.804 0.906131 55.8138 0.823699L55.8315 0.673821H54.8789H53.9262L53.8657 1.0257ZM21.3273 1.31023C21.2883 1.47714 20.79 4.39885 20.789 4.4669C20.7883 4.51067 20.7279 4.88268 20.6547 5.29358C20.3197 7.17466 20.2541 7.61472 20.2541 7.98139C20.2541 8.56033 20.369 8.89628 20.6592 9.16591C20.9054 9.3947 20.9378 9.41659 21.1273 9.48173C21.5242 9.6182 22.0853 9.61321 22.698 9.46777C23.1941 9.34998 23.1487 9.38772 23.2033 9.04839C23.2291 8.88812 23.2428 8.74517 23.2338 8.73071C23.2248 8.71627 23.2305 8.70444 23.2465 8.70444C23.2634 8.70444 23.2736 8.66295 23.2708 8.60602C23.2682 8.55191 23.2932 8.33894 23.3263 8.13279C23.3595 7.92665 23.382 7.7537 23.3764 7.74848C23.3708 7.74326 23.2887 7.7552 23.194 7.77501C22.8368 7.84978 22.547 7.80687 22.3954 7.65676C22.2081 7.47134 22.2082 7.46654 22.4142 6.26376C22.5143 5.67918 22.5967 5.16249 22.5972 5.11559C22.5977 5.06869 22.6064 5.0303 22.6165 5.0303C22.6266 5.0303 22.6357 4.97422 22.6368 4.90564C22.638 4.83709 22.6655 4.62746 22.698 4.43981L22.757 4.09864L23.2495 4.09153L23.7419 4.08439L23.8007 3.69136C23.833 3.47522 23.852 3.28653 23.843 3.27204C23.834 3.25755 23.8387 3.24572 23.8536 3.24572C23.8685 3.24572 23.8801 3.19554 23.8794 3.13418C23.8786 3.07285 23.9029 2.86445 23.9333 2.67108C23.9637 2.47772 23.9886 2.31535 23.9886 2.31023C23.9886 2.30511 23.776 2.30094 23.5162 2.30094H23.0438L23.1326 1.90114C23.1815 1.68124 23.2156 1.48638 23.2086 1.46812C23.2015 1.44985 23.2086 1.43489 23.2244 1.43489C23.2408 1.43489 23.2477 1.40665 23.2405 1.36928C23.2335 1.3332 23.2388 1.30367 23.2522 1.30367C23.2656 1.30367 23.2693 1.29186 23.2602 1.27743C23.2498 1.26071 22.8982 1.25119 22.2925 1.25119H21.3411L21.3273 1.31023ZM26.6636 2.14151C26.0809 2.22614 25.5245 2.46861 25.1805 2.78787C25.1003 2.86222 25.0147 2.93368 24.9902 2.94664C24.9275 2.97989 24.5991 3.35694 24.5984 3.39662C24.598 3.41468 24.5858 3.42942 24.5713 3.42942C24.5567 3.42942 24.5448 3.44005 24.5448 3.45304C24.5448 3.46601 24.5018 3.53983 24.4492 3.61707C24.2347 3.9321 23.9277 4.62898 23.8968 4.871C23.8916 4.91147 23.8625 5.0672 23.8321 5.21708C23.685 5.9423 23.6845 6.79719 23.8308 7.41384C23.8593 7.53399 23.8886 7.66618 23.896 7.70764C23.9268 7.88085 24.1532 8.32629 24.2954 8.49346C24.4894 8.72158 24.7783 9.00207 24.8626 9.04422C24.9136 9.0697 25.0566 9.14442 25.1805 9.21026C25.6197 9.44386 26.0596 9.54107 26.7727 9.56214C27.3523 9.57928 27.7154 9.55164 28.213 9.45247C28.5248 9.39035 28.8884 9.29104 28.8884 9.26805C28.8884 9.26165 28.9599 8.86943 29.0473 8.39649C29.1347 7.92355 29.2062 7.52184 29.2062 7.50378C29.2063 7.45324 29.1381 7.46444 28.9886 7.5395C28.7242 7.67221 28.2337 7.81278 27.897 7.85233C27.4846 7.90075 26.9781 7.9009 26.6543 7.85275C26.1802 7.78223 25.8101 7.51349 25.6912 7.15335C25.6236 6.94844 25.5922 6.71576 25.6157 6.59215L25.6331 6.49995H27.4981H29.3631L29.3887 6.40154C29.4234 6.26778 29.4915 5.89543 29.493 5.83074C29.4937 5.80187 29.5129 5.63887 29.5356 5.46855C29.5899 5.06263 29.5895 4.4495 29.5347 4.14801C29.5114 4.01981 29.4891 3.89132 29.4851 3.86245C29.4811 3.83358 29.4755 3.80996 29.4725 3.80996C29.4696 3.80996 29.4621 3.78311 29.456 3.75028C29.4381 3.65486 29.3221 3.39641 29.2188 3.22181C29.1033 3.02656 28.7186 2.63211 28.5146 2.49971C28.349 2.39222 28.0305 2.27134 27.7098 2.19426C27.4712 2.13689 26.8953 2.10786 26.6636 2.14151ZM12.5336 2.15912C12.0743 2.20491 11.4305 2.32123 11.0145 2.43358C10.8637 2.47433 10.7371 2.51134 10.7333 2.51582C10.7145 2.53776 10.4515 4.14386 10.4646 4.15677C10.4729 4.16496 10.6319 4.12869 10.818 4.07615C11.3494 3.92612 11.7193 3.87163 12.3107 3.85628C12.8672 3.84185 13.1624 3.87636 13.3656 3.97965C13.5424 4.06946 13.6556 4.25385 13.6581 4.45593C13.6595 4.57442 13.6128 4.82439 13.5838 4.85313C13.5718 4.86496 13.4002 4.86181 13.2023 4.84617C12.4476 4.78647 11.5872 4.91593 11.0357 5.17217C10.83 5.26773 10.5001 5.45401 10.4254 5.5167C10.3593 5.57216 10.1269 5.81979 9.99376 5.97663C9.82367 6.17697 9.61981 6.6265 9.59258 6.86136C9.58466 6.92962 9.56686 7.05632 9.55304 7.14293C9.52014 7.34879 9.52051 7.81703 9.55367 7.99759C9.56808 8.07603 9.58506 8.18161 9.59136 8.23223C9.62757 8.52217 9.83977 8.87959 10.124 9.12943C10.5089 9.46774 10.8774 9.58794 11.4405 9.55886C11.9617 9.53196 12.3755 9.40455 12.7227 9.16407C12.8167 9.09891 12.9038 9.04561 12.9163 9.04561C12.9287 9.04561 13.0005 8.97874 13.0759 8.89702L13.2129 8.74842L13.194 9.09384L13.175 9.43927H13.9728H14.7706L14.782 9.38022C14.7882 9.34773 14.8424 8.97869 14.9025 8.5601C14.9626 8.14151 15.0412 7.61779 15.0771 7.39626C15.113 7.17474 15.1357 6.98282 15.1276 6.9698C15.1195 6.95676 15.1255 6.9461 15.1411 6.9461C15.1572 6.9461 15.168 6.89807 15.1662 6.83456C15.1644 6.77321 15.2127 6.42188 15.2734 6.05381C15.4571 4.9406 15.4859 4.70296 15.4863 4.29374C15.4868 3.8515 15.4613 3.68011 15.3519 3.392C15.199 2.98882 14.9723 2.71423 14.6149 2.49911C14.4436 2.39599 14.0953 2.27882 13.7519 2.20885C13.5466 2.16699 12.7718 2.13537 12.5336 2.15912ZM18.2942 2.15891C17.7511 2.22299 17.3044 2.33151 17.0361 2.46452C16.7129 2.62484 16.434 2.86584 16.2335 3.15809C16.1245 3.31715 15.9729 3.66811 15.9237 3.87557C15.8558 4.16221 15.8407 4.72448 15.8935 5.00406C15.9703 5.41073 16.2256 5.8326 16.5658 6.11464C16.7483 6.26594 17.2321 6.55677 17.3805 6.60435C17.4967 6.64165 17.7435 6.75896 17.7645 6.78691C17.7718 6.79659 17.8194 6.82971 17.8704 6.86047C18.0056 6.94203 18.1245 7.07643 18.1606 7.18854C18.226 7.39164 18.0951 7.69833 17.9012 7.79637C17.542 7.97796 16.3621 7.94373 15.6898 7.73221C15.5466 7.68715 15.4237 7.65589 15.4168 7.66271C15.3944 7.68497 15.2202 8.76868 15.2316 8.81471C15.2377 8.83928 15.2313 8.86316 15.2174 8.86775C15.2035 8.87235 15.1898 8.98215 15.1871 9.11177L15.1821 9.34741L15.4729 9.4052C15.966 9.50317 16.3319 9.53115 17.1156 9.5307C17.9077 9.53028 18.0553 9.51409 18.5391 9.37457C18.7809 9.30487 19.1915 9.09474 19.3713 8.94874C19.5171 8.83033 19.7279 8.55598 19.8311 8.35015C19.8745 8.26354 19.9414 8.07459 19.9798 7.93024C20.0417 7.69757 20.0499 7.61571 20.0523 7.20854C20.0545 6.81488 20.0465 6.71649 19.9962 6.51982C19.9249 6.24177 19.8381 6.06538 19.6699 5.85698C19.3955 5.51715 19.3548 5.48972 18.4222 5.01634C18.0052 4.80463 17.8858 4.70543 17.8555 4.54518C17.7976 4.23907 17.9794 4.00655 18.351 3.91163C18.4896 3.87625 18.6037 3.87137 18.9961 3.88399C19.2583 3.89244 19.6142 3.91748 19.7871 3.93963C19.9599 3.96178 20.1111 3.97391 20.1231 3.96658C20.1351 3.95924 20.1448 3.90919 20.1447 3.85536C20.1446 3.80151 20.1993 3.43501 20.2662 3.04091C20.3332 2.64678 20.382 2.31485 20.3748 2.30327C20.3323 2.2352 18.6417 2.11791 18.2942 2.15891ZM42.0782 2.17003C41.5546 2.22394 40.4731 2.45174 40.4009 2.5233C40.3538 2.5701 40.1037 4.10775 40.1378 4.14153C40.157 4.16058 40.2248 4.15134 40.3604 4.11113C41.0276 3.91331 41.585 3.83801 42.2504 3.85586C42.618 3.86573 42.7335 3.87846 42.8794 3.9253C43.2258 4.03642 43.356 4.25471 43.2965 4.62418C43.2634 4.82914 43.2473 4.87284 43.2049 4.87284C43.1867 4.87284 43.02 4.86063 42.8345 4.8457C41.8646 4.76765 40.9001 4.98503 40.2139 5.43634C40.0293 5.55775 39.7561 5.82276 39.6375 5.99539C39.5907 6.0636 39.5436 6.12546 39.5328 6.13283C39.522 6.1402 39.4957 6.19335 39.4743 6.25093C39.4529 6.30851 39.3988 6.44668 39.3541 6.55798C39.2305 6.86587 39.1806 7.16382 39.1815 7.58907C39.1824 8.02034 39.2411 8.30658 39.3881 8.59574C39.4387 8.69538 39.4728 8.78422 39.4637 8.79317C39.4547 8.80209 39.4613 8.80941 39.4782 8.80941C39.4952 8.80941 39.5091 8.82587 39.5091 8.84597C39.5091 8.86607 39.527 8.88933 39.5489 8.89764C39.5707 8.90594 39.5893 8.92788 39.5903 8.94638C39.5927 8.99588 39.9069 9.25548 40.084 9.35431C40.3714 9.51469 40.5617 9.55705 40.9791 9.55358C41.1952 9.5518 41.4335 9.53369 41.5503 9.5102C41.98 9.42376 42.4202 9.19979 42.7163 8.91704L42.8539 8.78556L42.8397 9.11242L42.8254 9.43927H43.6238L44.4222 9.43924L44.5093 8.82332C44.5572 8.48457 44.6365 7.9679 44.6854 7.67518C44.7344 7.38243 44.8118 6.91264 44.8575 6.63117C44.9032 6.34971 44.9589 6.01038 44.9812 5.87708C45.0035 5.74382 45.0143 5.62275 45.0052 5.60808C44.996 5.59341 44.9995 5.58142 45.0128 5.58142C45.0262 5.58142 45.0439 5.48398 45.0522 5.36491C45.0605 5.24584 45.0872 4.98897 45.1115 4.7941C45.1647 4.36882 45.1502 3.90297 45.0751 3.62077C45.0474 3.51674 45.0312 3.4252 45.0391 3.41738C45.047 3.40958 45.0389 3.40318 45.021 3.40318C45.0032 3.40318 44.9949 3.393 45.0026 3.38056C45.0208 3.35143 44.9378 3.14074 44.9082 3.14074C44.8958 3.14074 44.8857 3.12458 44.8857 3.10479C44.8857 3.03304 44.5946 2.72835 44.3666 2.56141C44.1441 2.39862 43.8378 2.28475 43.4141 2.20743C43.1558 2.16027 42.3832 2.13865 42.0782 2.17003ZM33.4539 2.26134C33.3647 2.28057 33.2271 2.32658 33.1482 2.36356C33.0081 2.42925 32.6759 2.70835 32.6759 2.76039C32.6759 2.77477 32.6205 2.84545 32.5529 2.91741C32.4853 2.98937 32.4001 3.09293 32.3636 3.14751C32.3272 3.20213 32.2942 3.24359 32.2904 3.23968C32.2867 3.2358 32.3106 3.06726 32.3435 2.86518C32.3765 2.6631 32.4104 2.45349 32.4188 2.39935L32.4342 2.30094H31.5549H30.6757L30.4025 3.92738C30.2522 4.82192 30.1363 5.56512 30.1449 5.57893C30.1536 5.59273 30.1492 5.611 30.1353 5.6195C30.1215 5.628 30.1102 5.67902 30.1103 5.73285C30.1104 5.7867 29.9782 6.61356 29.8164 7.57036C29.6546 8.52716 29.5286 9.32036 29.5365 9.33303C29.5444 9.34568 29.5359 9.36148 29.5176 9.36814C29.494 9.37673 29.4925 9.38885 29.5125 9.41008C29.5328 9.43158 29.8065 9.43801 30.49 9.43305L31.4394 9.42614L31.6306 8.29766C31.7357 7.67699 31.8526 7.01092 31.8904 6.81751C31.9281 6.62409 31.9532 6.45663 31.9462 6.44534C31.9392 6.43408 31.9441 6.41828 31.9572 6.41028C31.9703 6.40228 31.9819 6.35126 31.983 6.29693C31.984 6.24261 32.0269 6.03552 32.0782 5.83672C32.2748 5.07536 32.4761 4.64381 32.7044 4.49408C32.8251 4.41493 33.0626 4.34796 33.2226 4.34796C33.3065 4.34796 33.3377 4.33649 33.3475 4.30203C33.3546 4.27676 33.3858 4.14982 33.4167 4.01991C33.549 3.46401 33.8611 2.604 34.0039 2.40187C34.0826 2.29049 34.0677 2.25756 33.9302 2.2389C33.7578 2.21549 33.6412 2.22097 33.4539 2.26134ZM48.9645 2.26102C48.7555 2.31041 48.5923 2.37474 48.501 2.44381C48.3975 2.52204 48.1945 2.71785 48.203 2.73118C48.2067 2.73688 48.1571 2.79876 48.0929 2.86867C48.0286 2.93861 47.934 3.05172 47.8825 3.12006C47.831 3.1884 47.7863 3.24168 47.7833 3.23845C47.7802 3.23522 47.8046 3.06726 47.8376 2.86518C47.8706 2.6631 47.9044 2.45349 47.9129 2.39935L47.9282 2.30094H47.0577C46.2515 2.30094 46.186 2.30435 46.173 2.34687C46.1359 2.46806 45.7055 5.09418 45.7177 5.12554C45.7253 5.14533 45.7201 5.16152 45.7061 5.16152C45.6921 5.16152 45.682 5.20582 45.6836 5.25993C45.6852 5.31407 45.5436 6.20865 45.3689 7.2479C45.1943 8.28716 45.0495 9.1847 45.0472 9.24244C45.0449 9.30017 45.0366 9.36809 45.0288 9.39334C45.0154 9.43648 45.0727 9.43927 45.9787 9.43927H46.9429L46.9883 9.15714C47.1219 8.32626 47.3082 7.24342 47.3902 6.82045C47.4413 6.55648 47.4761 6.32913 47.4674 6.31525C47.4588 6.30137 47.4657 6.29 47.4828 6.29C47.5009 6.29 47.5082 6.26801 47.5001 6.23752C47.4925 6.20865 47.4967 6.18503 47.5095 6.18503C47.5222 6.18503 47.5316 6.14663 47.5303 6.09974C47.5239 5.86144 47.9016 4.74162 47.9884 4.74162C48.0009 4.74162 48.011 4.725 48.011 4.70469C48.011 4.64255 48.2635 4.43868 48.3857 4.4021C48.4491 4.38313 48.5745 4.36166 48.6643 4.35436L48.8276 4.34114L48.9103 4.00377C49.0081 3.60463 49.1982 3.04285 49.3094 2.82474C49.3529 2.73921 49.3855 2.65959 49.3818 2.64775C49.3718 2.61589 49.4997 2.35343 49.5252 2.35343C49.5373 2.35343 49.5472 2.33141 49.5472 2.30451C49.5472 2.22097 49.2332 2.19754 48.9645 2.26102ZM27.3622 3.89822C27.4569 3.94443 27.564 4.0171 27.6002 4.05972C27.7422 4.2269 27.8319 4.61352 27.7912 4.8826L27.7728 5.00406H26.768C26.2153 5.00406 25.7631 4.9982 25.7631 4.99104C25.7631 4.94078 25.8941 4.61433 25.9827 4.4437C26.2109 4.00422 26.5517 3.7876 26.9864 3.80574C27.151 3.81258 27.2229 3.8303 27.3622 3.89822ZM52.3867 4.04256C52.6653 4.12565 52.847 4.32345 52.983 4.69181C53.0525 4.87982 53.0547 4.90302 53.0536 5.42396C53.0525 5.94049 53.0491 5.97429 52.97 6.27121C52.8588 6.68807 52.6685 7.06924 52.4575 7.2974C51.9277 7.87033 51.214 7.86855 50.8622 7.29344C50.7067 7.03937 50.6741 6.87044 50.6734 6.31625C50.673 6.00694 50.6861 5.76408 50.7094 5.64703C50.7674 5.35562 50.9177 4.9254 51.0179 4.7639C51.0684 4.68233 51.1098 4.60226 51.1098 4.58594C51.1098 4.56961 51.1277 4.54946 51.1496 4.54117C51.1714 4.53285 51.1893 4.51214 51.1893 4.49516C51.1893 4.47815 51.2518 4.40454 51.3283 4.33156C51.4565 4.20921 51.6725 4.08458 51.8463 4.03261C51.961 3.99834 52.2568 4.0038 52.3867 4.04256ZM13.2858 6.26376C13.3508 6.26376 13.3546 6.27116 13.3546 6.39498C13.3546 6.46715 13.3457 6.5262 13.3348 6.5262C13.3238 6.5262 13.3148 6.58228 13.3146 6.65086C13.3141 6.82632 13.1862 7.16993 13.0422 7.38254C12.9101 7.57761 12.6656 7.83839 12.6147 7.83839C12.5974 7.83839 12.5363 7.86046 12.479 7.88744C12.3245 7.96008 12.1075 8.00391 11.9754 7.98914C11.751 7.96407 11.4707 7.7784 11.4504 7.64138C11.4473 7.62067 11.4373 7.59632 11.4282 7.58726C11.4191 7.57821 11.418 7.55425 11.4259 7.53402C11.4337 7.51378 11.4297 7.49722 11.417 7.49722C11.378 7.49722 11.4042 7.02654 11.4499 6.90673C11.5011 6.77216 11.6312 6.62879 11.7949 6.52633C12.0053 6.39464 12.182 6.33097 12.4448 6.29218C12.7582 6.24589 12.8144 6.24208 13.021 6.25321C13.1287 6.25901 13.2479 6.26376 13.2858 6.26376ZM42.8096 6.25442L43.0244 6.27098L43.0133 6.39204C42.9836 6.71494 42.8257 7.23268 42.7272 7.33031C42.7053 7.35201 42.6874 7.38663 42.6874 7.40723C42.6874 7.42786 42.6755 7.44473 42.6609 7.44473C42.6464 7.44473 42.6344 7.46077 42.6344 7.48035C42.6344 7.53827 42.3666 7.78645 42.2301 7.855C41.8264 8.05782 41.4336 8.02758 41.2111 7.77659C41.0985 7.64941 41.0589 7.51803 41.06 7.27415C41.0624 6.70505 41.4813 6.35446 42.2636 6.26662C42.5352 6.23615 42.5643 6.2355 42.8096 6.25442ZM56.2613 7.22045C56.0638 7.26874 55.9068 7.35787 55.7679 7.50066C55.6996 7.57094 55.6482 7.62844 55.6538 7.62844C55.6594 7.62844 55.6293 7.6867 55.5869 7.7579C55.4811 7.93573 55.4538 8.04994 55.4536 8.31501C55.4532 8.90589 55.7629 9.30217 56.3419 9.4516C56.4275 9.47367 56.5516 9.49154 56.6178 9.49131C56.7937 9.49063 57.0705 9.42649 57.2182 9.35216C57.3802 9.27068 57.6622 8.98194 57.7277 8.83067C57.892 8.45087 57.8671 8.0316 57.6613 7.71287C57.5568 7.55084 57.3668 7.36167 57.2425 7.29569C57.0448 7.19077 56.5408 7.15214 56.2613 7.22045ZM56.8837 7.50294C57.0915 7.56472 57.3521 7.81543 57.43 8.0285C57.48 8.16549 57.4868 8.41775 57.4443 8.56422C57.4082 8.68882 57.2544 8.92948 57.2147 8.92357C57.1849 8.91911 56.9113 8.49653 56.9106 8.45384C56.9104 8.43869 56.952 8.41132 57.0031 8.393C57.1283 8.34815 57.186 8.23507 57.1845 8.03753C57.1834 7.89421 57.1762 7.87589 57.0901 7.79771C56.9722 7.69069 56.8099 7.65468 56.4454 7.65468H56.1686V8.3239V8.99312H56.3142H56.4599V8.71756C56.4599 8.44924 56.4615 8.442 56.5195 8.44216C56.5674 8.44226 56.6098 8.49593 56.7359 8.71648L56.8926 8.99068L57.0272 8.999L57.1618 9.00732L57.0029 9.08553C56.8656 9.15302 56.815 9.16357 56.6321 9.16279C56.2698 9.16121 56.0348 9.01112 55.8841 8.68499C55.7349 8.36198 55.7823 8.03105 56.0164 7.76121C56.2568 7.4842 56.5384 7.40033 56.8837 7.50294ZM56.7882 7.92738C56.8631 7.9584 56.8758 7.97633 56.873 8.04669C56.8685 8.15529 56.8248 8.17867 56.6254 8.17917L56.4599 8.17956V8.03522V7.89088H56.5799C56.646 7.89088 56.7396 7.90731 56.7882 7.92738ZM4.32307 11.3556C4.13624 11.3765 3.82532 11.4391 3.54166 11.5129C3.19912 11.6019 2.60897 12.0036 2.34888 12.3248C1.81454 12.9845 1.5919 14.3319 1.87432 15.1969C1.98963 15.55 2.13864 15.7959 2.37709 16.0265C2.59711 16.2393 2.65741 16.2771 3.88605 16.9731C4.14802 17.1215 4.38928 17.512 4.38928 17.7876C4.38928 18.1917 4.13695 18.5672 3.76687 18.7138C3.33772 18.8838 2.44566 18.8634 1.95261 18.6723C1.72213 18.583 1.46498 18.4505 1.37289 18.3737C1.32633 18.3349 1.28462 18.3076 1.28017 18.313C1.27574 18.3184 1.23959 18.4586 1.19983 18.6246C1.16008 18.7906 1.08023 19.1185 1.02238 19.3534C0.96451 19.5882 0.924385 19.7919 0.933231 19.8061C0.942051 19.8203 0.93527 19.8318 0.918134 19.8318C0.900045 19.8318 0.892814 19.8538 0.900866 19.8843C0.908467 19.9132 0.903911 19.9368 0.890695 19.9368C0.877505 19.9368 0.866699 19.9992 0.866699 20.0754C0.866699 20.2071 0.870937 20.2157 0.952777 20.2486C1.21001 20.3521 1.84526 20.5416 2.10358 20.592C2.37585 20.6451 2.45846 20.6489 3.11003 20.6387C3.77148 20.6283 3.83838 20.6228 4.0919 20.558C4.56019 20.4383 5.07494 20.1818 5.38249 19.9151C5.77879 19.5713 6.08274 19.0168 6.22107 18.3853C6.27238 18.1511 6.28091 18.0335 6.28173 17.5486C6.28284 16.8977 6.2452 16.6882 6.05615 16.2922C5.80138 15.7584 5.463 15.439 4.77332 15.0811C4.62765 15.0055 4.49059 14.9296 4.46874 14.9124C4.44689 14.8953 4.34402 14.8322 4.24011 14.7722C3.76573 14.4983 3.58934 14.1508 3.7122 13.732C3.83242 13.3222 4.26064 13.1415 5.0351 13.1737C5.508 13.1934 5.88254 13.2821 6.22507 13.4556C6.34058 13.5141 6.44188 13.5552 6.4502 13.547C6.45854 13.5387 6.46856 13.5116 6.47248 13.4867C6.4764 13.4618 6.5754 13.065 6.69252 12.605C6.80961 12.145 6.90541 11.7584 6.90541 11.7459C6.90541 11.713 6.62495 11.5783 6.45515 11.5296C6.29942 11.485 5.97571 11.4238 5.67383 11.3819C5.40317 11.3443 4.56888 11.3281 4.32307 11.3556ZM36.2325 11.5414C36.0125 11.5667 35.68 11.6471 35.4619 11.7275C35.272 11.7975 34.8869 12.0071 34.6623 12.1628C34.5154 12.2646 33.9207 12.8246 33.9207 12.8611C33.9207 12.8679 33.8312 13.0013 33.7218 13.1575C33.5404 13.4165 33.271 13.9069 33.2459 14.0237C33.2403 14.0499 33.1863 14.2071 33.1259 14.3731C32.8863 15.0311 32.7614 15.7442 32.7371 16.5918C32.709 17.5756 32.8415 18.3317 33.1524 18.9622C33.2108 19.0806 33.2585 19.1947 33.2585 19.2159C33.2585 19.2371 33.2705 19.2545 33.285 19.2545C33.2996 19.2545 33.3115 19.2669 33.3115 19.2821C33.3115 19.2973 33.3792 19.4006 33.4619 19.5117C33.9325 20.144 34.5556 20.5103 35.3496 20.6216C35.6181 20.6592 36.2253 20.6376 36.5163 20.5801C36.7554 20.5329 37.2412 20.4094 37.2791 20.3862C37.294 20.3771 37.3249 20.2575 37.3478 20.1204C37.4566 19.4684 37.5705 18.7076 37.5714 18.6272C37.5719 18.5782 37.5801 18.4926 37.5896 18.437C37.5991 18.3814 37.6003 18.3359 37.5922 18.3359C37.5841 18.3359 37.4592 18.3936 37.3145 18.4641C36.5258 18.8484 35.9085 18.8902 35.3851 18.5949C35.01 18.3832 34.7144 17.9153 34.5956 17.3454C34.4655 16.7216 34.5507 15.7839 34.8 15.0949C35.0932 14.2844 35.5258 13.7907 36.1622 13.5405C36.3312 13.474 36.3713 13.469 36.7282 13.4696C37.0715 13.4702 37.1374 13.478 37.3506 13.5429C37.4817 13.5829 37.7285 13.6857 37.8991 13.7713C38.0698 13.8569 38.2196 13.927 38.2321 13.927C38.2446 13.927 38.3175 13.5166 38.3941 13.015C38.4708 12.5134 38.5392 12.0785 38.5463 12.0486C38.5573 12.0016 38.528 11.9811 38.3329 11.8993C38.2085 11.8471 37.9128 11.751 37.6757 11.6856C37.0805 11.5216 36.7179 11.4854 36.2325 11.5414ZM49.0856 11.834C49.0748 11.8704 49.0638 11.9388 48.9109 12.9157C48.8523 13.2905 48.8102 13.6123 48.8174 13.6308C48.8245 13.6494 48.8193 13.6645 48.8057 13.6645C48.7922 13.6645 48.7804 13.7265 48.7795 13.8023C48.7759 14.1074 48.7076 14.2809 48.6495 14.1325C48.6205 14.0585 48.2548 13.7243 48.0349 13.5709C47.9423 13.5062 47.7844 13.4304 47.6567 13.3892C47.4486 13.3222 47.4159 13.3191 47.0157 13.3285C46.6136 13.3379 46.584 13.3423 46.3783 13.4236C46.0961 13.535 45.8784 13.6765 45.5942 13.9332C45.2292 14.263 45.0164 14.5585 44.72 15.1473C44.3933 15.7963 44.1974 16.729 44.1972 17.6371C44.1971 18.1873 44.2391 18.5448 44.3467 18.9083C44.3838 19.0338 44.4163 19.1482 44.4189 19.1626C44.4216 19.177 44.433 19.2036 44.4444 19.2217C44.4558 19.2397 44.4583 19.2545 44.45 19.2545C44.427 19.2545 44.6433 19.6717 44.7358 19.8056C44.8489 19.9694 45.206 20.305 45.3757 20.4069C45.4534 20.4535 45.6043 20.5229 45.7111 20.561C45.8906 20.6251 45.9378 20.6304 46.3292 20.6305C46.7206 20.6306 46.7694 20.6252 46.969 20.5589C47.2154 20.4771 47.409 20.3569 47.6918 20.1104C47.8003 20.0158 47.891 19.941 47.8935 19.9442C47.896 19.9473 47.8825 20.0562 47.8635 20.1861C47.8446 20.316 47.8283 20.4548 47.8274 20.4945L47.8256 20.5667H48.6726H49.5197L49.5332 20.5076C49.5407 20.4751 49.5949 20.1415 49.6536 19.7662C49.7124 19.3909 49.7778 18.9776 49.799 18.8477C49.9377 17.9974 50.0011 17.5756 50.0132 17.4223C50.0251 17.2726 50.119 16.655 50.2754 15.6984C50.4518 14.6201 50.5872 13.7388 50.59 13.6514C50.5918 13.5937 50.6016 13.5402 50.6118 13.5326C50.622 13.525 50.6376 13.4248 50.6466 13.3099C50.6607 13.1295 50.8167 12.0813 50.8605 11.8734L50.8757 11.8012H49.9855C49.2961 11.8012 49.0931 11.8086 49.0856 11.834ZM15.2616 13.1513C14.9885 13.1934 14.5642 13.3114 14.3584 13.4025C14.2695 13.4418 14.1095 13.5347 14.0029 13.6089C13.7666 13.7734 13.3711 14.0904 13.3692 14.1168C13.3685 14.1274 13.2696 14.2533 13.1494 14.3965C13.0292 14.5397 12.8951 14.7259 12.8514 14.8102C12.8077 14.8946 12.763 14.9676 12.7519 14.9724C12.7409 14.9772 12.7386 14.992 12.7469 15.0052C12.7551 15.0184 12.7485 15.0292 12.7322 15.0292C12.7159 15.0292 12.71 15.041 12.719 15.0554C12.728 15.0699 12.7227 15.0817 12.7073 15.0817C12.6919 15.0817 12.6793 15.0947 12.6793 15.1107C12.6793 15.1266 12.6214 15.2831 12.5506 15.4584C12.4026 15.825 12.2961 16.2403 12.2378 16.6784C12.1805 17.1085 12.2024 17.9061 12.2815 18.2703C12.4321 18.9645 12.7652 19.6391 13.1119 19.9524C13.1872 20.0204 13.2906 20.114 13.3418 20.1603C13.542 20.3413 13.8585 20.5072 14.1871 20.6033C14.3007 20.6365 14.4585 20.6454 14.9378 20.6454C15.6014 20.6454 15.8806 20.6086 16.2511 20.4726L16.4334 20.4056L16.4781 20.1122C16.5026 19.9508 16.5639 19.5471 16.6143 19.2151C16.6646 18.8831 16.7118 18.5849 16.7192 18.5524C16.7376 18.4712 16.6961 18.4765 16.4824 18.5831C16.1759 18.7359 15.9193 18.7934 15.5397 18.7944C15.2094 18.7952 15.2082 18.795 15.0026 18.6954C14.6264 18.5133 14.3728 18.1735 14.255 17.6938C14.168 17.3396 14.2131 16.6615 14.352 16.2364C14.4736 15.8643 14.6086 15.633 14.8358 15.4072C15.025 15.2192 15.0746 15.1851 15.2658 15.1125C15.5642 14.9991 15.8068 14.9649 16.0496 15.002C16.3113 15.042 16.7108 15.1713 16.9068 15.2795L17.0687 15.369L17.1255 15.1532C17.2431 14.7058 17.4996 13.6538 17.4996 13.6188C17.4996 13.5239 16.5988 13.2161 16.1041 13.1419C15.8624 13.1057 15.5333 13.1094 15.2616 13.1513ZM40.6191 13.1536C40.1787 13.2217 39.8006 13.3646 39.4798 13.5842C39.2555 13.7378 38.8867 14.0527 38.8632 14.1107C38.8544 14.1323 38.7698 14.2504 38.6752 14.3731C38.3157 14.8392 38.0645 15.4815 37.9156 16.3152C37.8655 16.5959 37.8569 16.7416 37.8558 17.3255C37.8546 17.9241 37.8617 18.0451 37.9131 18.3114C38.1169 19.3672 38.5445 20.0358 39.2443 20.3927C39.6913 20.6207 39.7331 20.6293 40.4494 20.6393C41.0593 20.6479 41.0957 20.6455 41.3499 20.5813C41.6414 20.5077 42.0125 20.3416 42.2695 20.1699C42.4847 20.026 42.7908 19.7329 42.9512 19.5169C43.1266 19.2809 43.3837 18.7668 43.4954 18.4291C43.6556 17.9445 43.7947 17.1191 43.7694 16.8034C43.764 16.7369 43.7687 16.6826 43.7798 16.6826C43.7908 16.6826 43.7998 16.5468 43.7998 16.3808C43.7998 16.2148 43.7906 16.079 43.7793 16.079C43.7679 16.079 43.7631 16.0324 43.7686 15.9755C43.7811 15.8458 43.7094 15.39 43.6383 15.1473C43.5144 14.7241 43.3315 14.3473 43.0952 14.0283C42.8445 13.6898 42.4376 13.4022 42.012 13.2625C41.5542 13.1124 41.1107 13.0777 40.6191 13.1536ZM9.32283 13.1918C9.21755 13.2034 9.05069 13.2365 8.95203 13.2653C8.85337 13.294 8.7384 13.3254 8.69657 13.3349C8.59129 13.3589 8.22243 13.569 8.03105 13.714C7.80714 13.8837 7.539 14.1637 7.3769 14.3971C7.30084 14.5066 7.22324 14.6118 7.20443 14.6308C7.18565 14.6499 7.17026 14.6824 7.17026 14.703C7.17026 14.7236 7.16033 14.7405 7.1482 14.7405C7.13604 14.7405 7.12564 14.7553 7.12503 14.7733C7.12442 14.7914 7.06408 14.9301 6.99093 15.0817C6.63923 15.8104 6.48749 16.6142 6.51591 17.598C6.52757 18.0011 6.54481 18.1783 6.59532 18.4147C6.67959 18.8089 6.84468 19.2224 7.01135 19.4568C7.08419 19.5592 7.14378 19.6497 7.14378 19.6579C7.14378 19.7094 7.45631 19.9891 7.67497 20.1333C8.22325 20.495 8.71072 20.6191 9.58045 20.6185C10.0864 20.6181 10.4302 20.5795 10.8898 20.4714C11.2732 20.3812 11.3791 20.3385 11.3936 20.2685C11.414 20.1699 11.454 19.8738 11.4576 19.795C11.4605 19.7296 11.6181 18.8018 11.662 18.5918C11.6813 18.4989 11.6559 18.4999 11.4443 18.6C10.9182 18.8488 10.0946 18.9966 9.54899 18.9402C9.07786 18.8916 8.74949 18.7567 8.54767 18.5289C8.44382 18.4117 8.32345 18.1632 8.33023 18.0801C8.33287 18.0476 8.32623 18.021 8.31547 18.0211C8.30469 18.0211 8.29972 17.9149 8.3044 17.785L8.3129 17.549L10.0653 17.5422L11.8176 17.5355L11.8767 17.2337C11.9093 17.0677 11.9548 16.802 11.9779 16.6432C12.0277 16.3016 12.0626 15.5017 12.0278 15.5014C12.0147 15.5013 12.0023 15.4275 12.0004 15.3374C11.9922 14.9491 11.7749 14.3755 11.4963 14.0068C11.336 13.7947 11.0667 13.569 10.8216 13.4413C10.4541 13.25 9.79297 13.1399 9.32283 13.1918ZM29.4976 13.1941C29.2173 13.2291 28.8896 13.3227 28.6633 13.4325C28.4322 13.5446 27.8381 14.0037 27.7837 14.1122C27.7661 14.1474 27.7243 14.1983 27.691 14.2252C27.6576 14.252 27.6319 14.2816 27.6337 14.2908C27.6375 14.3098 27.4945 14.5212 27.4328 14.5877C27.3711 14.6543 27.0655 15.2686 27.0476 15.3621C27.0426 15.3883 27.0367 15.4097 27.0344 15.4097C27.0322 15.4097 27.0267 15.4284 27.0222 15.4512C27.0177 15.474 26.983 15.5921 26.9451 15.7136C26.6293 16.7274 26.6238 18.0785 26.932 18.8926C26.9773 19.0123 27.0149 19.1249 27.0156 19.1429C27.0162 19.161 27.0274 19.1757 27.0404 19.1757C27.0534 19.1757 27.0576 19.186 27.0497 19.1987C27.0419 19.2113 27.0844 19.2969 27.1441 19.3889C27.5783 20.0573 28.1428 20.4184 28.9897 20.5697C29.2645 20.6187 29.3654 20.6233 29.8949 20.6109C30.3866 20.5994 30.5463 20.5856 30.8086 20.532C31.1296 20.4666 31.5076 20.3641 31.5429 20.333C31.5603 20.3177 31.8151 18.8959 31.8479 18.6312C31.8564 18.5622 31.8511 18.5196 31.8339 18.5196C31.8187 18.5196 31.689 18.5718 31.5458 18.6355C31.4025 18.6992 31.2377 18.7638 31.1794 18.779C30.6256 18.9237 30.1407 18.9782 29.7485 18.9398C29.5082 18.9163 29.4209 18.8981 29.1238 18.81C28.8263 18.7217 28.556 18.3559 28.4905 17.9529C28.4743 17.8532 28.4686 17.7215 28.4777 17.6602L28.4944 17.5486H30.239C31.8779 17.5486 31.9845 17.5458 31.997 17.5027C32.0325 17.3803 32.1234 16.8707 32.162 16.5776C32.2209 16.1305 32.2209 15.4531 32.1621 15.1506C32.107 14.8677 31.9921 14.4983 31.9511 14.4719C31.9345 14.4613 31.9306 14.4525 31.9424 14.4522C31.9541 14.452 31.9212 14.3718 31.8693 14.274C31.7205 13.9934 31.2769 13.5639 30.9841 13.4169C30.8115 13.3302 30.4052 13.225 30.12 13.193C29.8517 13.163 29.745 13.1631 29.4976 13.1941ZM53.2022 13.1941C52.9241 13.2288 52.5952 13.3223 52.3666 13.4317C52.1338 13.543 51.535 14.0139 51.4409 14.1597C51.4118 14.2048 51.379 14.2418 51.3681 14.2418C51.3571 14.2419 51.3482 14.259 51.3482 14.2799C51.3482 14.3009 51.3312 14.3274 51.3103 14.339C51.2895 14.3505 51.2746 14.3681 51.2772 14.3781C51.2798 14.3881 51.2379 14.4535 51.184 14.5235C51.0209 14.7355 50.6659 15.4742 50.7005 15.5298C50.7088 15.5431 50.7018 15.5541 50.6848 15.5541C50.6678 15.5541 50.6608 15.5718 50.6692 15.5934C50.6775 15.6151 50.6721 15.6328 50.6571 15.6328C50.642 15.6328 50.6326 15.6535 50.6359 15.6787C50.6394 15.704 50.6269 15.7778 50.6083 15.8427C50.3546 16.7289 50.3449 18.0012 50.5863 18.7506C50.6175 18.8473 50.6437 18.9343 50.6447 18.9439C50.6456 18.9535 50.6544 18.9695 50.6644 18.9793C50.6743 18.9891 50.676 19.0137 50.6681 19.034C50.6603 19.0542 50.6691 19.0708 50.6876 19.0708C50.7062 19.0708 50.714 19.0781 50.7049 19.0871C50.6669 19.1247 50.8327 19.3948 51.0955 19.7231C51.3442 20.0338 51.9048 20.3819 52.3414 20.4968C52.9463 20.656 53.7972 20.6665 54.5397 20.5241C54.7776 20.4784 55.2184 20.3599 55.2471 20.3339C55.2642 20.3183 55.5197 18.8935 55.5524 18.6312C55.56 18.5698 55.5552 18.5196 55.5416 18.5196C55.528 18.5196 55.3804 18.5779 55.2136 18.6492C54.7547 18.8451 54.2555 18.9439 53.7187 18.945C53.3493 18.9458 53.1492 18.9164 52.8583 18.8185C52.6063 18.7337 52.4339 18.5751 52.3054 18.3097C52.2141 18.1212 52.1523 17.7905 52.1806 17.6413L52.1981 17.5486H53.9432C55.5824 17.5486 55.6891 17.5458 55.7015 17.5027C55.7231 17.4282 55.818 16.9213 55.8492 16.7145C55.9047 16.3459 55.9293 15.7861 55.9037 15.4753C55.874 15.1147 55.7753 14.7096 55.6669 14.5033C55.6236 14.4208 55.5956 14.346 55.6047 14.337C55.6138 14.328 55.6073 14.3206 55.5903 14.3206C55.5733 14.3206 55.5618 14.3118 55.5646 14.3009C55.5742 14.2651 55.5298 14.1632 55.5047 14.1632C55.4911 14.1632 55.4799 14.1476 55.4799 14.1287C55.4799 14.0794 55.1258 13.7248 54.9316 13.5797C54.7105 13.4144 54.6088 13.3663 54.3137 13.287C53.9104 13.1788 53.5595 13.1494 53.2022 13.1941ZM17.8317 13.3824C17.7689 13.7486 17.7099 14.2066 17.7203 14.2462C17.7273 14.2727 17.7209 14.2944 17.7061 14.2944C17.691 14.2944 17.684 14.3345 17.6901 14.3862C17.696 14.4368 17.6921 14.4781 17.6812 14.4781C17.6704 14.4781 17.6616 14.5342 17.6616 14.6027C17.6616 14.6713 17.5778 15.3061 17.4754 16.0134C17.2612 17.4918 17.2221 17.8964 17.2474 18.3753C17.3047 19.4605 17.6716 20.2471 18.2584 20.5425C18.4358 20.6318 18.4389 20.6323 18.8521 20.6406C19.2428 20.6484 19.2799 20.6448 19.4758 20.5796C19.5904 20.5415 19.7498 20.4701 19.8301 20.421C20.0357 20.2952 20.4559 19.8828 20.6259 19.6399C20.7049 19.5271 20.7733 19.4461 20.7779 19.4599C20.7825 19.4737 20.762 19.6807 20.7321 19.9199C20.7023 20.159 20.6779 20.3906 20.6779 20.4345V20.5142H21.5122H22.3465V20.4126C22.3465 20.2453 22.4442 19.4156 22.5455 18.7226C22.5977 18.3651 22.6337 18.0619 22.6255 18.0486C22.6172 18.0354 22.6228 18.0171 22.6378 18.0079C22.6529 17.9987 22.6588 17.981 22.6511 17.9685C22.6395 17.9499 23.0321 15.3347 23.1839 14.4192C23.2072 14.2786 23.2197 14.1465 23.2117 14.1257C23.2036 14.1048 23.2079 14.0841 23.2213 14.0796C23.2346 14.075 23.2522 13.9709 23.2603 13.8482C23.2684 13.7255 23.2866 13.561 23.3008 13.4826C23.3149 13.4041 23.3265 13.3303 23.3265 13.3185C23.3265 13.3067 22.9222 13.2971 22.428 13.2971H21.5297L21.5147 13.3693C21.4901 13.4875 21.3994 14.1437 21.3959 14.2288C21.3941 14.2721 21.3391 14.65 21.2738 15.0686C21.0529 16.4829 21.0281 16.6429 21.0095 16.7744C20.9639 17.0959 20.792 17.6457 20.6566 17.9028C20.5236 18.1553 20.2577 18.4162 20.0579 18.4903C19.8797 18.5563 19.6366 18.5632 19.4932 18.5062C19.3756 18.4595 19.1995 18.2357 19.1471 18.0665C19.1056 17.9325 19.1028 17.5044 19.1416 17.2337C19.1572 17.1254 19.2415 16.5596 19.3291 15.9762C19.4167 15.3929 19.4823 14.8998 19.4748 14.8806C19.4673 14.8613 19.4741 14.8455 19.4898 14.8455C19.5068 14.8455 19.514 14.8084 19.5075 14.7536C19.5015 14.7031 19.5062 14.6618 19.5179 14.6618C19.5295 14.6618 19.5392 14.5998 19.5395 14.524C19.5398 14.4482 19.5755 14.1618 19.6188 13.8876C19.6622 13.6133 19.6977 13.3683 19.6978 13.343C19.6979 13.3002 19.6363 13.2971 18.7721 13.2971H17.8464L17.8317 13.3824ZM26.7193 13.3634C26.5391 13.4133 26.2794 13.5957 26.115 13.7876C26.0453 13.8691 25.9695 13.9553 25.9465 13.9793C25.9236 14.0032 25.8971 14.0426 25.8877 14.0667C25.8784 14.0909 25.8585 14.1107 25.8434 14.1107C25.8284 14.1107 25.8161 14.1284 25.8161 14.15C25.8161 14.1717 25.8035 14.1894 25.7881 14.1894C25.7726 14.1894 25.7657 14.1986 25.7727 14.2098C25.7797 14.2211 25.7634 14.2593 25.7364 14.2947L25.6873 14.3592L25.6921 14.2284C25.6947 14.1564 25.7054 14.0912 25.7158 14.0835C25.7262 14.0757 25.7409 13.9813 25.7485 13.8735C25.7561 13.7658 25.7698 13.6157 25.779 13.5399L25.7957 13.4021H24.9854H24.175L24.1614 13.4611C24.1297 13.5983 23.9556 14.7625 23.9524 14.8586C23.9505 14.9164 23.9403 14.9699 23.9299 14.9777C23.9195 14.9855 23.9041 15.0859 23.8958 15.2008C23.8875 15.3157 23.8279 15.7463 23.7635 16.1577C23.3842 18.5777 23.3001 19.1382 23.3118 19.1684C23.3189 19.1869 23.3132 19.202 23.2992 19.202C23.285 19.202 23.2735 19.2602 23.2735 19.3314C23.2735 19.4025 23.2377 19.6868 23.194 19.963C23.1503 20.2393 23.1146 20.4881 23.1146 20.516C23.1146 20.5651 23.143 20.5667 24.0151 20.5667C24.9108 20.5667 24.9156 20.5664 24.9156 20.5118C24.9156 20.4817 24.9578 20.1844 25.0094 19.8512C25.0609 19.518 25.0971 19.2297 25.0897 19.2105C25.0822 19.1914 25.087 19.1757 25.1003 19.1757C25.1136 19.1757 25.1242 19.1196 25.124 19.0511C25.1235 18.9131 25.2973 17.8794 25.4206 17.2862C25.5115 16.8487 25.6356 16.3729 25.6959 16.2298C25.7187 16.1757 25.7298 16.1314 25.7205 16.1314C25.7112 16.1314 25.7185 16.1137 25.7366 16.0921C25.7548 16.0704 25.762 16.0527 25.7526 16.0527C25.7195 16.0527 25.8462 15.839 25.9409 15.7352C26.0952 15.5659 26.2411 15.4953 26.4666 15.481L26.6613 15.4686L26.6912 15.3211C26.7415 15.0733 26.8703 14.5787 26.9267 14.4169C26.9561 14.3328 26.979 14.256 26.9776 14.2464C26.9763 14.2367 26.9781 14.2199 26.9817 14.2091C26.9852 14.1982 26.9902 14.1806 26.9927 14.1697C27.0074 14.107 27.049 14.0001 27.1127 13.8614C27.3007 13.4517 27.3323 13.3735 27.3161 13.3574C27.2784 13.3202 26.8603 13.3243 26.7193 13.3634ZM9.78635 14.8855C9.96025 14.9367 10.1332 15.0673 10.2106 15.206C10.3011 15.3681 10.3558 15.6638 10.3345 15.8756L10.3167 16.0527H9.37733C8.49515 16.0527 8.43884 16.0499 8.45177 16.0068C8.45934 15.9815 8.47383 15.9254 8.484 15.8821C8.51676 15.7423 8.70476 15.3642 8.8106 15.2253C9.04452 14.9183 9.43528 14.7822 9.78635 14.8855ZM30.0064 14.8976C30.2114 14.9603 30.348 15.0824 30.4475 15.2916C30.5063 15.4154 30.5175 15.4799 30.5261 15.7444L30.5361 16.0527H29.591H28.6458L28.6644 15.9674C28.6745 15.9205 28.7126 15.8054 28.7489 15.7115C28.7852 15.6177 28.8155 15.5262 28.8164 15.5082C28.8172 15.4901 28.8284 15.4754 28.8414 15.4754C28.8544 15.4754 28.8591 15.4657 28.8517 15.4539C28.8307 15.4202 28.9747 15.2213 29.0892 15.126C29.4227 14.8481 29.6554 14.7901 30.0064 14.8976ZM53.7024 14.895C53.9002 14.956 54.0738 15.1106 54.1593 15.3018C54.2075 15.4096 54.2214 15.4967 54.23 15.7444L54.2407 16.0527H53.2977C52.7607 16.0527 52.3546 16.0426 52.3546 16.0292C52.3546 16.0163 52.3795 15.926 52.4099 15.8285C52.4403 15.731 52.4694 15.6292 52.4747 15.6023C52.4937 15.5042 52.6354 15.2762 52.7409 15.1737C53.0537 14.8699 53.3461 14.7851 53.7024 14.895ZM41.3664 14.9783C41.7928 15.1939 41.9857 15.7963 41.921 16.7095C41.8755 17.3512 41.7502 17.861 41.5535 18.2047C41.4998 18.2985 41.4473 18.396 41.4368 18.4212C41.4264 18.4465 41.4069 18.4671 41.3936 18.4671C41.3802 18.4671 41.3634 18.4893 41.3563 18.5164C41.3349 18.5976 41.0834 18.775 40.9252 18.8206C40.617 18.9094 40.3217 18.8637 40.1317 18.698C40.0659 18.6406 40.0189 18.583 40.0271 18.5698C40.0353 18.5566 40.0293 18.5459 40.0139 18.5459C39.9985 18.5459 39.9859 18.5282 39.9859 18.5065C39.9859 18.4849 39.974 18.4671 39.9594 18.4671C39.9448 18.4671 39.9329 18.4548 39.9329 18.4396C39.9329 18.4245 39.9084 18.3625 39.8785 18.3019C39.6525 17.8437 39.6401 16.9429 39.8505 16.2585C40.0986 15.4515 40.4142 15.0377 40.8701 14.9213C40.9972 14.8889 41.2459 14.9175 41.3664 14.9783ZM47.5507 15.1367C47.8879 15.1948 48.0933 15.4108 48.1977 15.8165C48.2723 16.107 48.2948 16.6085 48.2487 16.9593C48.2299 17.103 48.2134 17.253 48.2121 17.2927C48.2107 17.3324 48.1993 17.3649 48.1867 17.3649C48.1741 17.3649 48.1694 17.3944 48.1764 17.4305C48.1834 17.4666 48.1788 17.4961 48.1662 17.4961C48.1537 17.4961 48.1434 17.5254 48.1434 17.5611C48.1434 17.6646 47.9405 18.1604 47.88 18.2047C47.8702 18.2119 47.8071 18.295 47.7397 18.3893C47.5152 18.7037 47.3022 18.814 46.9197 18.814C46.6894 18.814 46.6488 18.8066 46.5439 18.7458C46.4306 18.6799 46.2242 18.4705 46.2487 18.4462C46.2553 18.4397 46.2388 18.3916 46.2119 18.3392C46.0247 17.9737 46.014 17.1137 46.1883 16.4333C46.2179 16.3178 46.2459 16.2056 46.2505 16.1839C46.2551 16.1623 46.2598 16.1416 46.2609 16.138C46.2621 16.1344 46.2631 16.1256 46.2633 16.1185C46.2634 16.1113 46.2921 16.0414 46.3271 15.9631C46.4412 15.7073 46.7679 15.3097 46.9383 15.219C47.0026 15.1849 47.2437 15.1228 47.3599 15.1105C47.3733 15.1091 47.4592 15.1209 47.5507 15.1367ZM56.2215 19.2151V19.3857H56.3805H56.5394V19.963V20.5404H56.7115H56.8837V19.963V19.3857H57.0558H57.228V19.2151V19.0445H56.7248H56.2215V19.2151ZM57.3339 19.7925V20.5404H57.4928H57.6518L57.6532 20.114L57.6547 19.6875L57.7914 20.1152L57.928 20.5428L58.0467 20.5351L58.1653 20.5273L58.238 20.2911C58.278 20.1612 58.3401 19.9663 58.3759 19.8581L58.4411 19.6612L58.4437 20.1008L58.4463 20.5404H58.592H58.7377V19.7925V19.0445H58.527H58.3164L58.2353 19.2954C58.1907 19.4334 58.1493 19.5722 58.1433 19.6038C58.1373 19.6354 58.1301 19.6642 58.1271 19.6678C58.1199 19.6769 58.1144 19.6986 58.0903 19.8124C58.0684 19.9167 58.0339 19.9633 58.0338 19.889C58.0338 19.8647 57.9749 19.6649 57.9029 19.4447L57.7721 19.0445H57.553H57.3339V19.7925Z"
		fill="#A2A3AB" />
</svg>
