<svg width="128" height="25" viewBox="0 0 128 25" fill="none" xmlns="http://www.w3.org/2000/svg">
<g clip-path="url(#clip0_3978_22282)">
<path d="M57.1976 16.3928V11.6625C57.1976 9.88076 56.0791 8.68245 54.277 8.66664C53.7636 8.63272 53.2507 8.73917 52.7917 8.97491C52.3326 9.21064 51.9443 9.56703 51.6671 10.0069C51.4145 9.58014 51.0532 9.23039 50.6212 8.99451C50.1892 8.75864 49.7026 8.64537 49.2125 8.66664C48.7853 8.64486 48.3599 8.73669 47.9785 8.93306C47.597 9.12942 47.2727 9.42351 47.0376 9.78619V8.85587H45.4219V16.3928H47.0531V12.2143C47.0531 10.9056 47.7678 10.212 48.8707 10.212C49.9426 10.212 50.4864 10.9214 50.4864 12.1986V16.3928H52.1176V12.2143C52.1176 10.9056 52.8633 10.212 53.9353 10.212C55.0382 10.212 55.5664 10.9214 55.5664 12.1986V16.3928H57.1976ZM81.3395 8.85587H78.6985V6.56963H77.0673V8.85587H75.5603V10.3538H77.0673V13.7911C77.0673 15.5414 77.7353 16.5821 79.6461 16.5821C80.3599 16.5842 81.0599 16.382 81.6657 15.9987L81.1997 14.5953C80.7664 14.8576 80.2746 15.0041 79.7704 15.0211C78.9626 15.0211 78.6985 14.5164 78.6985 13.7597V10.3538H81.3395V8.85587ZM95.1193 8.66664C94.7253 8.65486 94.3356 8.75119 93.9911 8.94544C93.6466 9.1397 93.3601 9.42469 93.1619 9.77038V8.85587H91.5617V16.3928H93.1773V12.167C93.1773 10.9214 93.7055 10.2276 94.762 10.2276C95.1076 10.2228 95.4508 10.2871 95.7719 10.4169L96.269 8.87168C95.9 8.7376 95.5112 8.66826 95.1193 8.66664ZM74.2865 9.45511C73.372 8.90314 72.3204 8.62946 71.2571 8.66664C69.3772 8.66664 68.1656 9.58116 68.1656 11.0791C68.1656 12.309 69.0666 13.0659 70.7288 13.3024L71.4901 13.4127C72.3755 13.5388 72.795 13.7753 72.795 14.2011C72.795 14.7845 72.2046 15.1156 71.1017 15.1156C70.2145 15.1415 69.3445 14.8638 68.6315 14.3273L67.8704 15.6043C68.8114 16.2715 69.9387 16.6143 71.0862 16.5821C73.23 16.5821 74.4728 15.557 74.4728 14.1222C74.4728 12.7977 73.4942 12.1039 71.8784 11.8674L71.1173 11.7571C70.4182 11.6625 69.8589 11.5207 69.8589 11.0161C69.8589 10.4642 70.387 10.1331 71.2726 10.1331C72.0858 10.1455 72.8824 10.368 73.5873 10.7796L74.2865 9.45511ZM117.568 8.66664C117.174 8.65485 116.784 8.75117 116.44 8.94542C116.095 9.13968 115.809 9.42468 115.61 9.77038V8.85587H114.01V16.3928H115.626V12.167C115.626 10.9214 116.154 10.2276 117.21 10.2276C117.556 10.2228 117.899 10.2871 118.22 10.4169L118.717 8.87168C118.348 8.7376 117.96 8.66826 117.568 8.66664ZM96.7504 12.6243C96.7504 14.9107 98.3196 16.5821 100.712 16.5821C101.682 16.6315 102.635 16.3109 103.384 15.6832L102.607 14.3587C102.049 14.7909 101.368 15.0287 100.665 15.0367C99.376 15.0211 98.4283 14.0749 98.4283 12.6243C98.4283 11.1738 99.376 10.2276 100.665 10.212C101.368 10.22 102.049 10.4578 102.607 10.89L103.384 9.56547C102.635 8.93783 101.682 8.61721 100.712 8.66664C98.3196 8.66664 96.7504 10.338 96.7504 12.6243ZM111.882 12.6243V8.85587H110.266V9.77038C109.99 9.40968 109.634 9.12126 109.225 8.92923C108.817 8.73721 108.37 8.64717 107.92 8.66664C105.839 8.66664 104.207 10.3224 104.207 12.6243C104.207 14.9264 105.839 16.5821 107.92 16.5821C108.37 16.6016 108.817 16.5115 109.225 16.3195C109.634 16.1274 109.99 15.839 110.266 15.4783V16.3928H111.882V12.6243ZM105.87 12.6243C105.87 11.2998 106.724 10.212 108.122 10.212C109.458 10.212 110.359 11.2525 110.359 12.6243C110.359 13.9961 109.458 15.0367 108.122 15.0367C106.724 15.0367 105.87 13.9488 105.87 12.6243ZM86.373 8.66664C84.198 8.66664 82.6756 10.2749 82.6756 12.6243C82.6756 15.0211 84.2601 16.5821 86.4817 16.5821C87.5901 16.6215 88.674 16.2455 89.5266 15.5256L88.7343 14.3115C88.1208 14.8105 87.361 15.0879 86.5749 15.0998C85.5339 15.0998 84.5863 14.6111 84.3533 13.255H89.8684C89.8839 13.0501 89.8994 12.8452 89.8994 12.6243C89.8839 10.2749 88.4547 8.66664 86.373 8.66664ZM86.3418 10.1331C87.3828 10.1331 88.0508 10.7953 88.2217 11.9621H84.3689C84.5398 10.8742 85.1922 10.1331 86.3418 10.1331ZM126.873 12.6243V5.82855H125.258V9.77038C124.982 9.4097 124.625 9.12128 124.217 8.92925C123.809 8.73723 123.361 8.64718 122.912 8.66664C120.83 8.66664 119.199 10.3224 119.199 12.6243C119.199 14.9264 120.83 16.5821 122.912 16.5821C123.361 16.6015 123.809 16.5115 124.217 16.3195C124.625 16.1274 124.982 15.839 125.258 15.4783V16.3928H126.873V12.6243ZM120.861 12.6243C120.861 11.2998 121.716 10.212 123.114 10.212C124.45 10.212 125.351 11.2525 125.351 12.6243C125.351 13.9961 124.45 15.0367 123.114 15.0367C121.716 15.0367 120.861 13.9488 120.861 12.6243ZM66.3013 12.6243V8.85587H64.6856V9.77038C64.4098 9.40968 64.0529 9.12125 63.6448 8.92922C63.2367 8.7372 62.7892 8.64716 62.3398 8.66664C60.2581 8.66664 58.6269 10.3224 58.6269 12.6243C58.6269 14.9264 60.2581 16.5821 62.3398 16.5821C62.7892 16.6016 63.2367 16.5115 63.6448 16.3195C64.0529 16.1275 64.4098 15.839 64.6856 15.4783V16.3928H66.3013V12.6243ZM60.2892 12.6243C60.2892 11.2998 61.1437 10.212 62.5418 10.212C63.8778 10.212 64.7788 11.2525 64.7788 12.6243C64.7788 13.9961 63.8778 15.0367 62.5418 15.0367C61.1437 15.0367 60.2892 13.9488 60.2892 12.6243Z" fill="white"/>
<path d="M24.7937 3.66492H15.0234V21.4849H24.7937V3.66492Z" fill="#FF5F00"/>
<path d="M15.6492 12.5755C15.6477 10.8593 16.0308 9.16524 16.7697 7.62156C17.5086 6.07789 18.5838 4.72506 19.914 3.66549C18.2668 2.35138 16.2885 1.53415 14.2053 1.30722C12.1221 1.08028 10.018 1.45279 8.13356 2.38218C6.24909 3.31156 4.66027 4.76033 3.5487 6.56287C2.43713 8.36541 1.84766 10.449 1.84766 12.5755C1.84766 14.702 2.43713 16.7856 3.5487 18.5881C4.66027 20.3907 6.24909 21.8394 8.13356 22.7688C10.018 23.6982 12.1221 24.0707 14.2053 23.8438C16.2885 23.6168 18.2668 22.7996 19.914 21.4855C18.5838 20.4259 17.5086 19.0731 16.7697 17.5294C16.0308 15.9857 15.6477 14.2917 15.6492 12.5755Z" fill="#EB001B"/>
<path d="M37.974 12.5755C37.974 14.702 37.3846 16.7855 36.2731 18.5881C35.1616 20.3906 33.5728 21.8394 31.6884 22.7688C29.804 23.6982 27.6999 24.0707 25.6168 23.8438C23.5336 23.6168 21.5554 22.7996 19.9082 21.4855C21.2372 20.4249 22.3116 19.0718 23.0503 17.5284C23.7891 15.9849 24.1729 14.2914 24.1729 12.5755C24.1729 10.8596 23.7891 9.16605 23.0503 7.62262C22.3116 6.07918 21.2372 4.72614 19.9082 3.6655C21.5554 2.35138 23.5336 1.53415 25.6168 1.30722C27.6999 1.08028 29.804 1.45281 31.6884 2.3822C33.5728 3.3116 35.1616 4.76037 36.2731 6.56291C37.3846 8.36546 37.974 10.449 37.974 12.5755Z" fill="#F79E1B"/>
</g>
<defs>
<clipPath id="clip0_3978_22282">
<rect width="126.932" height="24.5209" fill="white" transform="translate(0.841797 0.314697)"/>
</clipPath>
</defs>
</svg>
