<svg viewBox="0 0 66 66" xmlns="http://www.w3.org/2000/svg">
<path d="M24.3309 7.92754V54.7195L34.932 58.0815V18.8335C34.932 16.9875 35.7587 15.7595 37.0912 16.1855C38.8056 16.6755 39.1448 18.3635 39.1448 20.2075V35.8735C45.7585 39.0515 50.9606 35.8635 50.9606 27.4675C50.9606 18.8335 47.9137 14.9975 38.9437 11.9255C35.3992 10.7255 28.8382 8.75754 24.3431 7.92554L24.3309 7.92754ZM36.9429 51.2395L53.9973 45.1655C55.931 44.4795 56.2296 43.5015 54.6635 42.9895C53.0771 42.4795 50.2293 42.6135 48.2712 43.3115L36.8881 47.3115V40.9455L37.532 40.7275C37.532 40.7275 40.7901 39.6055 45.4234 39.0815C50.016 38.6035 55.6771 39.1635 60.152 40.8415C65.157 42.4475 65.6851 44.7695 64.4156 46.3755C63.1562 47.9675 60.026 49.1355 60.026 49.1355L36.8881 57.4155V51.2895L36.9429 51.2395ZM4.89792 50.6055C-0.255358 49.1475 -1.10036 46.1575 1.23558 44.4055C3.40495 42.8535 7.07542 41.6055 7.07542 41.6055L22.2874 36.2395V42.4055L11.3918 46.3335C9.47636 47.0535 9.15948 48.0215 10.7479 48.5315C12.3343 49.0535 15.1781 48.9395 17.0854 48.2195L22.3321 46.3335V51.8635C22.0153 51.9375 21.6435 51.9775 21.2739 52.0615C16.0271 52.9395 10.4615 52.5835 4.92839 50.7815L4.89792 50.6055Z"/>
</svg>
