<svg viewBox="0 0 66 66" xmlns="http://www.w3.org/2000/svg">
<path d="M15.5417 51.8136C20.0899 55.8112 25.9411 58.0108 31.9964 57.9995C38.3026 57.9995 44.0573 55.673 48.4589 51.8136C52.3651 47.8339 39.4667 33.6745 31.9964 28.0339C24.5339 33.673 11.6276 47.8339 15.5417 51.8136V51.8136ZM38.7917 21.8105C43.9995 27.9792 54.3839 43.2933 51.4542 48.7058C55.0493 44.2646 57.0064 38.7213 56.9964 33.0074C56.9964 26.0495 54.1573 19.7511 49.5589 15.2261C49.5589 15.2261 49.5011 15.1761 49.3886 15.137C49.1997 15.072 49.0007 15.0419 48.8011 15.048C47.5745 15.048 44.6683 15.9495 38.7933 21.8105H38.7917ZM14.6042 15.137C14.4917 15.1761 14.4339 15.2261 14.4245 15.2261C12.0666 17.5475 10.1951 20.3156 8.91937 23.3687C7.64368 26.4217 6.98941 29.6985 6.99481 33.0074C6.99481 38.9558 9.06981 44.4089 12.537 48.6964C9.6245 43.2777 19.9917 27.9699 25.2073 21.8089C19.3323 15.9402 16.4183 15.0464 15.1901 15.0464C14.9895 15.0369 14.7892 15.0705 14.6026 15.1449L14.6042 15.137ZM31.9964 15.398C31.9964 15.398 25.8604 11.8089 21.0667 11.637C19.187 11.573 18.0401 12.248 17.8995 12.3449C22.3683 9.34329 27.1198 7.99954 31.962 7.99954H31.9948C36.862 7.99954 41.5886 9.34329 46.0901 12.3449C45.9511 12.2464 44.8104 11.5714 42.9229 11.637C38.1292 11.8074 31.9933 15.3886 31.9933 15.3886L31.9964 15.398Z"/>
</svg>
