<svg width="16" height="16" viewBox="0 0 16 16" fill="none" xmlns="http://www.w3.org/2000/svg">
<g clip-path="url(#clip0_547_1467)">
<path fill-rule="evenodd" clip-rule="evenodd" d="M8 16C12.4183 16 16 12.4183 16 8C16 3.58172 12.4183 0 8 0C3.58172 0 0 3.58172 0 8C0 12.4183 3.58172 16 8 16ZM3.72507 10.9449C4.14507 11.0551 4.5782 11.1103 5.02445 11.1103C5.54945 11.1103 5.9957 11.0315 6.3632 10.874C6.7307 10.7113 7.00633 10.496 7.19007 10.2282C7.37383 9.9605 7.4657 9.66125 7.4657 9.3305C7.4657 8.94725 7.36333 8.64538 7.15857 8.42488C6.95907 8.19913 6.7202 8.03638 6.44195 7.93663C6.16895 7.83162 5.82245 7.7345 5.40245 7.64525C5.0297 7.5665 4.75933 7.49038 4.59132 7.41687C4.42332 7.34337 4.33932 7.23312 4.33932 7.08612C4.33932 6.93912 4.4102 6.821 4.55195 6.73175C4.6937 6.63725 4.91945 6.59 5.2292 6.59C5.7227 6.59 6.23195 6.73175 6.75695 7.01525L7.23732 5.85762C6.96957 5.70012 6.65982 5.582 6.30807 5.50325C5.95633 5.41925 5.59932 5.37725 5.23707 5.37725C4.70682 5.37725 4.25795 5.456 3.89045 5.6135C3.5282 5.771 3.2552 5.98625 3.07145 6.25925C2.8877 6.527 2.79582 6.82888 2.79582 7.16488C2.79582 7.54812 2.89557 7.85262 3.09507 8.07837C3.29457 8.30412 3.53345 8.4695 3.8117 8.5745C4.08995 8.67425 4.43645 8.76875 4.8512 8.858C5.2292 8.942 5.5022 9.02337 5.6702 9.10213C5.84345 9.17562 5.93007 9.29113 5.93007 9.44862C5.93007 9.74788 5.63083 9.8975 5.03232 9.8975C4.71732 9.8975 4.39707 9.84762 4.07157 9.74788C3.74607 9.64812 3.45995 9.51688 3.2132 9.35413L2.70132 10.5039C2.96382 10.6876 3.30507 10.8346 3.72507 10.9449ZM9.7452 9.53525H10.5957L11.5958 11H13.2653L12.0762 9.2675C12.4227 9.0995 12.6878 8.8685 12.8716 8.5745C13.0606 8.27525 13.1551 7.92613 13.1551 7.52712C13.1551 7.11237 13.0553 6.75275 12.8558 6.44825C12.6563 6.1385 12.3728 5.90225 12.0053 5.7395C11.6378 5.5715 11.2047 5.4875 10.706 5.4875H8.18596V11H9.7452V9.53525ZM11.336 6.92862C11.4987 7.07037 11.5801 7.26988 11.5801 7.52712C11.5801 7.78437 11.4987 7.98387 11.336 8.12562C11.1732 8.26213 10.9317 8.33037 10.6115 8.33037H9.7452V6.716H10.6115C10.9317 6.716 11.1732 6.78687 11.336 6.92862Z" fill="white"/>
</g>
<defs>
<clipPath id="clip0_547_1467">
<rect width="16" height="16" fill="white"/>
</clipPath>
</defs>
</svg>
