<svg width="22" height="22" viewBox="0 0 22 22" fill="none" xmlns="http://www.w3.org/2000/svg">
<path fill-rule="evenodd" clip-rule="evenodd" d="M7.94461 2.68881L9.52692 1.1079L9.52692 1.1065C9.91765 0.715903 10.4475 0.496476 11 0.496476C11.5525 0.496476 12.0824 0.715903 12.4731 1.1065L14.054 2.68881C14.1821 2.81697 14.3559 2.889 14.5371 2.88905L17.0268 2.88905C18.1778 2.88905 19.1104 3.82162 19.1104 4.97265L19.1104 7.46232C19.1108 7.64305 19.1828 7.81625 19.3106 7.94402L20.8929 9.52632C21.2835 9.91705 21.5029 10.4469 21.5029 10.9994C21.5029 11.5519 21.2835 12.0818 20.8929 12.4725L19.3106 14.0534C19.1827 14.1817 19.1107 14.3553 19.1104 14.5365L19.1104 17.0262C19.1104 18.1772 18.1778 19.1098 17.0268 19.1098H14.5371C14.3564 19.1102 14.1832 19.1822 14.0554 19.31L12.4731 20.8923C12.0824 21.2829 11.5525 21.5023 11 21.5023C10.4475 21.5023 9.91765 21.2829 9.52692 20.8923L7.94601 19.31C7.81773 19.1821 7.64407 19.1101 7.46292 19.1098L4.97324 19.1098C3.82222 19.1098 2.88964 18.1772 2.88964 17.0262L2.88964 14.5365C2.88922 14.3558 2.81722 14.1826 2.6894 14.0548L1.1071 12.4725C0.7165 12.0818 0.497074 11.5519 0.497074 10.9994C0.497074 10.4469 0.716501 9.91705 1.1071 9.52632L2.6894 7.94542C2.81731 7.81713 2.88929 7.64347 2.88964 7.46232L2.88964 4.97265C2.88964 3.82162 3.82222 2.88905 4.97324 2.88905L7.46292 2.88905C7.64365 2.88862 7.81685 2.81663 7.94461 2.68881ZM7.49941 12.6436C6.98675 13.1563 6.98675 13.9875 7.49941 14.5002C8.01207 15.0128 8.84326 15.0128 9.35592 14.5002L14.5008 9.35532C15.0134 8.84266 15.0134 8.01147 14.5008 7.49881C13.9881 6.98615 13.1569 6.98615 12.6442 7.49881L7.49941 12.6436ZM8.8996 8.87402C9.20891 8.55834 9.39962 8.126 9.39962 7.64912C9.39962 6.68243 8.61597 5.89878 7.64929 5.89878C6.6826 5.89878 5.89895 6.68243 5.89895 7.64912C5.89895 8.6158 6.6826 9.39945 7.64929 9.39945C8.12639 9.39945 8.5589 9.20857 8.87463 8.899H8.8996L8.8996 8.87402ZM15.8973 14.1468C15.8973 15.1135 15.1137 15.8972 14.147 15.8972C13.1803 15.8972 12.3967 15.1135 12.3967 14.1468C12.3967 13.1802 13.1803 12.3965 14.147 12.3965C15.1137 12.3965 15.8973 13.1802 15.8973 14.1468Z" fill="white"/>
</svg>
