<svg width="102" height="25" viewBox="0 0 102 25" fill="none" xmlns="http://www.w3.org/2000/svg">
<g clip-path="url(#clip0)">
<path d="M26.802 8.83521H37.128V10.7528H33.0678V21.5323H30.8352V10.7528H26.793V8.83521H26.802ZM36.6869 12.3388H38.5954V14.113H38.6314C38.6945 13.8621 38.8115 13.6202 38.9826 13.3872C39.1536 13.1542 39.3607 12.9302 39.6037 12.742C39.8468 12.5449 40.1169 12.3926 40.414 12.2671C40.7111 12.1506 41.0171 12.0879 41.3232 12.0879C41.5573 12.0879 41.7284 12.0969 41.8184 12.1058C41.9084 12.1148 41.9984 12.1327 42.0975 12.1417V14.0951C41.9534 14.0682 41.8094 14.0503 41.6563 14.0323C41.5033 14.0144 41.3593 14.0055 41.2152 14.0055C40.8731 14.0055 40.549 14.0771 40.2429 14.2115C39.9368 14.346 39.6758 14.5521 39.4507 14.8119C39.2256 15.0807 39.0456 15.4033 38.9105 15.7976C38.7755 16.1918 38.7125 16.6399 38.7125 17.1506V21.5234H36.6779V12.3388H36.6869ZM51.4512 21.5323H49.4526V20.251H49.4166C49.1645 20.7169 48.7954 21.0843 48.3003 21.3621C47.8051 21.6399 47.301 21.7832 46.7878 21.7832C45.5725 21.7832 44.6902 21.4875 44.1501 20.8872C43.6099 20.2868 43.3398 19.3818 43.3398 18.1721V12.3388H45.3744V17.975C45.3744 18.7814 45.5275 19.3549 45.8426 19.6865C46.1487 20.018 46.5898 20.1883 47.148 20.1883C47.5801 20.1883 47.9312 20.1255 48.2193 19.9911C48.5074 19.8567 48.7414 19.6865 48.9125 19.4624C49.0925 19.2474 49.2186 18.9786 49.2996 18.6739C49.3806 18.3693 49.4166 18.0377 49.4166 17.6793V12.3477H51.4512V21.5323ZM54.9172 18.5843C54.9803 19.1757 55.2053 19.5879 55.5924 19.8298C55.9886 20.0628 56.4567 20.1883 57.0059 20.1883C57.1949 20.1883 57.411 20.1703 57.654 20.1434C57.8971 20.1166 58.1312 20.0538 58.3382 19.9732C58.5543 19.8926 58.7254 19.7671 58.8694 19.6058C59.0044 19.4445 59.0675 19.2384 59.0585 18.9786C59.0494 18.7187 58.9504 18.5037 58.7704 18.3424C58.5903 18.1721 58.3653 18.0467 58.0862 17.9391C57.8071 17.8406 57.492 17.751 57.1319 17.6793C56.7718 17.6076 56.4117 17.527 56.0426 17.4463C55.6645 17.3657 55.2953 17.2581 54.9442 17.1417C54.5931 17.0252 54.278 16.8639 53.999 16.6578C53.7199 16.4607 53.4948 16.2008 53.3328 15.8872C53.1617 15.5736 53.0807 15.1883 53.0807 14.7223C53.0807 14.2205 53.2067 13.8083 53.4498 13.4678C53.6929 13.1273 54.008 12.8585 54.3771 12.6524C54.7552 12.4463 55.1693 12.3029 55.6284 12.2133C56.0876 12.1327 56.5287 12.0879 56.9428 12.0879C57.42 12.0879 57.8791 12.1417 58.3112 12.2402C58.7434 12.3388 59.1395 12.5001 59.4906 12.7331C59.8417 12.9571 60.1298 13.2528 60.3638 13.6112C60.5979 13.9696 60.742 14.4087 60.805 14.9194H58.6803C58.5813 14.4356 58.3653 14.104 58.0141 13.9427C57.663 13.7725 57.2579 13.6918 56.8078 13.6918C56.6637 13.6918 56.4927 13.7008 56.2946 13.7277C56.0966 13.7546 55.9165 13.7994 55.7365 13.8621C55.5654 13.9248 55.4214 14.0234 55.2953 14.1488C55.1783 14.2743 55.1153 14.4356 55.1153 14.6417C55.1153 14.8926 55.2053 15.0897 55.3764 15.242C55.5474 15.3943 55.7725 15.5198 56.0516 15.6273C56.3307 15.7259 56.6457 15.8155 57.0059 15.8872C57.366 15.9589 57.7351 16.0395 58.1132 16.1202C58.4823 16.2008 58.8424 16.3083 59.2025 16.4248C59.5626 16.5413 59.8777 16.7026 60.1568 16.9087C60.4359 17.1148 60.6609 17.3657 60.832 17.6703C61.003 17.975 61.0931 18.3603 61.0931 18.8083C61.0931 19.3549 60.967 19.8119 60.7149 20.1972C60.4629 20.5736 60.1388 20.8872 59.7427 21.1202C59.3465 21.3531 58.8964 21.5323 58.4103 21.6399C57.9241 21.7474 57.438 21.8012 56.9608 21.8012C56.3757 21.8012 55.8355 21.7384 55.3404 21.604C54.8452 21.4696 54.4131 21.2725 54.053 21.0126C53.6929 20.7438 53.4048 20.4123 53.1977 20.018C52.9907 19.6237 52.8826 19.1488 52.8646 18.6022H54.9172V18.5843ZM61.6332 12.3388H63.1727V9.57893H65.2073V12.3388H67.0438V13.8531H65.2073V18.7635C65.2073 18.9786 65.2163 19.1578 65.2343 19.3191C65.2523 19.4714 65.2973 19.6058 65.3603 19.7133C65.4233 19.8209 65.5224 19.9015 65.6574 19.9553C65.7924 20.009 65.9635 20.0359 66.1976 20.0359C66.3416 20.0359 66.4856 20.0359 66.6297 20.027C66.7737 20.018 66.9178 20.0001 67.0618 19.9642V21.5323C66.8367 21.5592 66.6117 21.5771 66.4046 21.604C66.1885 21.6309 65.9725 21.6399 65.7474 21.6399C65.2073 21.6399 64.7751 21.5861 64.451 21.4875C64.1269 21.389 63.8659 21.2366 63.6858 21.0395C63.4968 20.8424 63.3797 20.6004 63.3077 20.3047C63.2447 20.009 63.1997 19.6685 63.1907 19.2922V13.871H61.6512V12.3388H61.6332ZM68.4842 12.3388H70.4108V13.5843H70.4468C70.7349 13.0467 71.131 12.6703 71.6442 12.4374C72.1573 12.2044 72.7065 12.0879 73.3096 12.0879C74.0389 12.0879 74.669 12.2133 75.2092 12.4732C75.7494 12.7241 76.1995 13.0736 76.5596 13.5216C76.9197 13.9696 77.1808 14.4893 77.3608 15.0807C77.5409 15.6721 77.6309 16.3083 77.6309 16.9804C77.6309 17.5986 77.5499 18.199 77.3878 18.7725C77.2258 19.3549 76.9827 19.8657 76.6586 20.3137C76.3345 20.7617 75.9204 21.1112 75.4163 21.38C74.9121 21.6488 74.3269 21.7832 73.6427 21.7832C73.3457 21.7832 73.0486 21.7564 72.7515 21.7026C72.4544 21.6488 72.1663 21.5592 71.8962 21.4427C71.6261 21.3262 71.3651 21.1739 71.14 20.9857C70.9059 20.7976 70.7169 20.5825 70.5548 20.3406H70.5188V24.9284H68.4842V12.3388ZM75.5963 16.9445C75.5963 16.5323 75.5423 16.1291 75.4343 15.7348C75.3262 15.3406 75.1642 15.0001 74.9481 14.6954C74.7321 14.3908 74.462 14.1488 74.1469 13.9696C73.8228 13.7904 73.4537 13.6918 73.0396 13.6918C72.1843 13.6918 71.5361 13.9875 71.104 14.5789C70.6719 15.1703 70.4558 15.9589 70.4558 16.9445C70.4558 17.4105 70.5098 17.8406 70.6269 18.2348C70.7439 18.6291 70.9059 18.9696 71.14 19.2564C71.3651 19.5431 71.6352 19.7671 71.9502 19.9284C72.2653 20.0986 72.6344 20.1793 73.0486 20.1793C73.5167 20.1793 73.9038 20.0807 74.2279 19.8926C74.552 19.7044 74.8131 19.4535 75.0201 19.1578C75.2272 18.8531 75.3802 18.5126 75.4703 18.1273C75.5513 17.742 75.5963 17.3477 75.5963 16.9445ZM79.1884 8.83521H81.223V10.7528H79.1884V8.83521ZM79.1884 12.3388H81.223V21.5323H79.1884V12.3388ZM83.0415 8.83521H85.0761V21.5323H83.0415V8.83521ZM91.3149 21.7832C90.5767 21.7832 89.9195 21.6578 89.3434 21.4158C88.7672 21.1739 88.281 20.8334 87.8759 20.4123C87.4798 19.9822 87.1737 19.4714 86.9667 18.88C86.7596 18.2886 86.6516 17.6345 86.6516 16.9266C86.6516 16.2277 86.7596 15.5825 86.9667 14.9911C87.1737 14.3997 87.4798 13.889 87.8759 13.4589C88.272 13.0288 88.7672 12.6972 89.3434 12.4553C89.9195 12.2133 90.5767 12.0879 91.3149 12.0879C92.0532 12.0879 92.7104 12.2133 93.2865 12.4553C93.8627 12.6972 94.3488 13.0377 94.754 13.4589C95.1501 13.889 95.4562 14.3997 95.6632 14.9911C95.8703 15.5825 95.9783 16.2277 95.9783 16.9266C95.9783 17.6345 95.8703 18.2886 95.6632 18.88C95.4562 19.4714 95.1501 19.9822 94.754 20.4123C94.3578 20.8424 93.8627 21.1739 93.2865 21.4158C92.7104 21.6578 92.0532 21.7832 91.3149 21.7832ZM91.3149 20.1793C91.7651 20.1793 92.1612 20.0807 92.4943 19.8926C92.8274 19.7044 93.0975 19.4535 93.3135 19.1488C93.5296 18.8442 93.6826 18.4947 93.7907 18.1094C93.8897 17.7241 93.9437 17.3298 93.9437 16.9266C93.9437 16.5323 93.8897 16.147 93.7907 15.7528C93.6916 15.3585 93.5296 15.018 93.3135 14.7133C93.0975 14.4087 92.8274 14.1667 92.4943 13.9786C92.1612 13.7904 91.7651 13.6918 91.3149 13.6918C90.8648 13.6918 90.4687 13.7904 90.1356 13.9786C89.8025 14.1667 89.5324 14.4176 89.3163 14.7133C89.1003 15.018 88.9472 15.3585 88.8392 15.7528C88.7402 16.147 88.6862 16.5323 88.6862 16.9266C88.6862 17.3298 88.7402 17.7241 88.8392 18.1094C88.9382 18.4947 89.1003 18.8442 89.3163 19.1488C89.5324 19.4535 89.8025 19.7044 90.1356 19.8926C90.4687 20.0897 90.8648 20.1793 91.3149 20.1793ZM96.5725 12.3388H98.1119V9.57893H100.147V12.3388H101.983V13.8531H100.147V18.7635C100.147 18.9786 100.156 19.1578 100.174 19.3191C100.192 19.4714 100.237 19.6058 100.3 19.7133C100.363 19.8209 100.462 19.9015 100.597 19.9553C100.732 20.009 100.903 20.0359 101.137 20.0359C101.281 20.0359 101.425 20.0359 101.569 20.027C101.713 20.018 101.857 20.0001 102.001 19.9642V21.5323C101.776 21.5592 101.551 21.5771 101.344 21.604C101.128 21.6309 100.912 21.6399 100.687 21.6399C100.147 21.6399 99.7144 21.5861 99.3903 21.4875C99.0662 21.389 98.8051 21.2366 98.6251 21.0395C98.436 20.8424 98.319 20.6004 98.247 20.3047C98.184 20.009 98.1389 19.6685 98.1299 19.2922V13.871H96.5905V12.3388H96.5725Z" fill="white"/>
<path d="M24.4242 8.83513H15.0974L12.2166 0L9.32674 8.83513L0 8.82617L7.55322 14.2921L4.66337 23.1183L12.2166 17.6613L19.7608 23.1183L16.88 14.2921L24.4242 8.83513Z" fill="#00B67A"/>
<path d="M17.5264 16.2904L16.8782 14.2922L12.2148 17.6614L17.5264 16.2904Z" fill="#005128"/>
</g>
<defs>
<clipPath id="clip0">
<rect width="102" height="25" fill="white"/>
</clipPath>
</defs>
</svg>
