<svg width="23" height="16" viewBox="0 0 23 16" fill="none" xmlns="http://www.w3.org/2000/svg">
<rect width="22.4" height="16" rx="2" fill="white"/>
<mask id="mask0_2747_12817" style="mask-type:alpha" maskUnits="userSpaceOnUse" x="0" y="0" width="23" height="16">
<rect width="22.4" height="16" rx="2" fill="white"/>
</mask>
<g mask="url(#mask0_2747_12817)">
<path fill-rule="evenodd" clip-rule="evenodd" d="M22.4 0H0V1.06667H22.4V0ZM22.4 2.13334H0V3.2H22.4V2.13334ZM0 4.26666H22.4V5.33333H0V4.26666ZM22.4 6.4H0V7.46667H22.4V6.4ZM0 8.53334H22.4V9.6H0V8.53334ZM22.4 10.6667H0V11.7333H22.4V10.6667ZM0 12.8H22.4V13.8667H0V12.8ZM22.4 14.9333H0V16H22.4V14.9333Z" fill="#D02F44"/>
<rect width="9.6" height="7.46667" fill="#46467F"/>
<g filter="url(#filter0_d_2747_12817)">
<path fill-rule="evenodd" clip-rule="evenodd" d="M2.13332 1.59998C2.13332 1.89454 1.89454 2.13332 1.59998 2.13332C1.30543 2.13332 1.06665 1.89454 1.06665 1.59998C1.06665 1.30543 1.30543 1.06665 1.59998 1.06665C1.89454 1.06665 2.13332 1.30543 2.13332 1.59998ZM4.26665 1.59998C4.26665 1.89454 4.02787 2.13332 3.73332 2.13332C3.43877 2.13332 3.19999 1.89454 3.19999 1.59998C3.19999 1.30543 3.43877 1.06665 3.73332 1.06665C4.02787 1.06665 4.26665 1.30543 4.26665 1.59998ZM5.86665 2.13332C6.1612 2.13332 6.39998 1.89454 6.39998 1.59998C6.39998 1.30543 6.1612 1.06665 5.86665 1.06665C5.5721 1.06665 5.33332 1.30543 5.33332 1.59998C5.33332 1.89454 5.5721 2.13332 5.86665 2.13332ZM8.53332 1.59998C8.53332 1.89454 8.29454 2.13332 7.99998 2.13332C7.70543 2.13332 7.46665 1.89454 7.46665 1.59998C7.46665 1.30543 7.70543 1.06665 7.99998 1.06665C8.29454 1.06665 8.53332 1.30543 8.53332 1.59998ZM2.66665 3.19998C2.9612 3.19998 3.19998 2.9612 3.19998 2.66665C3.19998 2.3721 2.9612 2.13332 2.66665 2.13332C2.3721 2.13332 2.13332 2.3721 2.13332 2.66665C2.13332 2.9612 2.3721 3.19998 2.66665 3.19998ZM5.33332 2.66665C5.33332 2.9612 5.09454 3.19998 4.79998 3.19998C4.50543 3.19998 4.26665 2.9612 4.26665 2.66665C4.26665 2.3721 4.50543 2.13332 4.79998 2.13332C5.09454 2.13332 5.33332 2.3721 5.33332 2.66665ZM6.93332 3.19998C7.22787 3.19998 7.46665 2.9612 7.46665 2.66665C7.46665 2.3721 7.22787 2.13332 6.93332 2.13332C6.63877 2.13332 6.39999 2.3721 6.39999 2.66665C6.39999 2.9612 6.63877 3.19998 6.93332 3.19998ZM8.53332 3.73332C8.53332 4.02787 8.29454 4.26665 7.99998 4.26665C7.70543 4.26665 7.46665 4.02787 7.46665 3.73332C7.46665 3.43877 7.70543 3.19999 7.99998 3.19999C8.29454 3.19999 8.53332 3.43877 8.53332 3.73332ZM5.86665 4.26665C6.1612 4.26665 6.39998 4.02787 6.39998 3.73332C6.39998 3.43877 6.1612 3.19999 5.86665 3.19999C5.5721 3.19999 5.33332 3.43877 5.33332 3.73332C5.33332 4.02787 5.5721 4.26665 5.86665 4.26665ZM4.26665 3.73332C4.26665 4.02787 4.02787 4.26665 3.73332 4.26665C3.43877 4.26665 3.19999 4.02787 3.19999 3.73332C3.19999 3.43877 3.43877 3.19999 3.73332 3.19999C4.02787 3.19999 4.26665 3.43877 4.26665 3.73332ZM1.59998 4.26665C1.89454 4.26665 2.13332 4.02787 2.13332 3.73332C2.13332 3.43877 1.89454 3.19999 1.59998 3.19999C1.30543 3.19999 1.06665 3.43877 1.06665 3.73332C1.06665 4.02787 1.30543 4.26665 1.59998 4.26665ZM3.19998 4.79998C3.19998 5.09454 2.9612 5.33332 2.66665 5.33332C2.3721 5.33332 2.13332 5.09454 2.13332 4.79998C2.13332 4.50543 2.3721 4.26665 2.66665 4.26665C2.9612 4.26665 3.19998 4.50543 3.19998 4.79998ZM4.79998 5.33332C5.09454 5.33332 5.33332 5.09454 5.33332 4.79998C5.33332 4.50543 5.09454 4.26665 4.79998 4.26665C4.50543 4.26665 4.26665 4.50543 4.26665 4.79998C4.26665 5.09454 4.50543 5.33332 4.79998 5.33332ZM7.46665 4.79998C7.46665 5.09454 7.22787 5.33332 6.93332 5.33332C6.63877 5.33332 6.39999 5.09454 6.39999 4.79998C6.39999 4.50543 6.63877 4.26665 6.93332 4.26665C7.22787 4.26665 7.46665 4.50543 7.46665 4.79998ZM7.99998 6.39998C8.29454 6.39998 8.53332 6.1612 8.53332 5.86665C8.53332 5.5721 8.29454 5.33332 7.99998 5.33332C7.70543 5.33332 7.46665 5.5721 7.46665 5.86665C7.46665 6.1612 7.70543 6.39998 7.99998 6.39998ZM6.39998 5.86665C6.39998 6.1612 6.1612 6.39998 5.86665 6.39998C5.5721 6.39998 5.33332 6.1612 5.33332 5.86665C5.33332 5.5721 5.5721 5.33332 5.86665 5.33332C6.1612 5.33332 6.39998 5.5721 6.39998 5.86665ZM3.73332 6.39998C4.02787 6.39998 4.26665 6.1612 4.26665 5.86665C4.26665 5.5721 4.02787 5.33332 3.73332 5.33332C3.43877 5.33332 3.19999 5.5721 3.19999 5.86665C3.19999 6.1612 3.43877 6.39998 3.73332 6.39998ZM2.13332 5.86665C2.13332 6.1612 1.89454 6.39998 1.59998 6.39998C1.30543 6.39998 1.06665 6.1612 1.06665 5.86665C1.06665 5.5721 1.30543 5.33332 1.59998 5.33332C1.89454 5.33332 2.13332 5.5721 2.13332 5.86665Z" fill="url(#paint0_linear_2747_12817)"/>
</g>
</g>
<defs>
<filter id="filter0_d_2747_12817" x="1.06665" y="1.06665" width="7.46655" height="6.33334" filterUnits="userSpaceOnUse" color-interpolation-filters="sRGB">
<feFlood flood-opacity="0" result="BackgroundImageFix"/>
<feColorMatrix in="SourceAlpha" type="matrix" values="0 0 0 0 0 0 0 0 0 0 0 0 0 0 0 0 0 0 127 0" result="hardAlpha"/>
<feOffset dy="1"/>
<feColorMatrix type="matrix" values="0 0 0 0 0 0 0 0 0 0 0 0 0 0 0 0 0 0 0.06 0"/>
<feBlend mode="normal" in2="BackgroundImageFix" result="effect1_dropShadow_2747_12817"/>
<feBlend mode="normal" in="SourceGraphic" in2="effect1_dropShadow_2747_12817" result="shape"/>
</filter>
<linearGradient id="paint0_linear_2747_12817" x1="1.06665" y1="1.06665" x2="1.06665" y2="6.39998" gradientUnits="userSpaceOnUse">
<stop stop-color="white"/>
<stop offset="1" stop-color="#F0F0F0"/>
</linearGradient>
</defs>
</svg>
