<svg width="85" height="24" viewBox="0 0 85 24" fill="none" xmlns="http://www.w3.org/2000/svg">
<g clip-path="url(#clip0_4954_23547)">
<path fill-rule="evenodd" clip-rule="evenodd" d="M12.476 0.406543L12.4761 0.406281L12.4761 0.406348L12.4762 0.406283V0.406413L19.7782 12.39L12.4762 16.6591V16.6592L12.4761 16.6591L5.17406 12.39L5.17398 12.39L12.476 0.406543ZM12.476 23.9368L5.17398 13.7595L12.4762 18.0265L19.7826 13.7596L12.4762 23.9371L12.4761 23.9372L12.476 23.9368Z" fill="#00B3FF"/>
<path d="M13 24C19.6274 24 25 18.6274 25 12C25 5.37258 19.6274 0 13 0C6.37258 0 1 5.37258 1 12C1 18.6274 6.37258 24 13 24Z" fill="#26A17B"/>
<path d="M14.2791 13.1074V13.1055C14.1961 13.1113 13.7678 13.1363 12.8148 13.1363C12.0527 13.1363 11.5183 13.1151 11.3293 13.1055V13.1074C8.39871 12.9781 6.21286 12.4688 6.21286 11.8572C6.21286 11.2476 8.40064 10.7363 11.3293 10.6071V12.6C11.5203 12.6135 12.0701 12.6463 12.8283 12.6463C13.7389 12.6463 14.1942 12.6077 14.2791 12.6V10.609C17.2039 10.7402 19.3839 11.2495 19.3839 11.8592C19.3839 12.4688 17.2019 12.9781 14.2791 13.1093V13.1074ZM14.2791 10.4026V8.61994H18.3595V5.90161H7.2508V8.61994H11.3312V10.4026C8.01479 10.555 5.52219 11.2109 5.52219 11.9981C5.52219 12.7852 8.01672 13.4412 11.3312 13.5955V19.31H14.281V13.5955C17.5916 13.4431 20.0804 12.7871 20.0804 12C20.0804 11.2148 17.5916 10.5569 14.281 10.4045" fill="white"/>
<path d="M36.9244 6.34253V8.89436H39.4203V10.8091H36.9072V14.6915C36.9072 15.5489 37.3833 15.9674 38.0812 15.9674C38.4302 15.9674 38.8341 15.8581 39.1642 15.6941L39.7881 17.5901C39.147 17.8446 38.6141 17.9539 37.9351 17.9727C35.9721 18.0461 34.688 16.9342 34.688 14.6915V10.8091H33V8.89436H34.688V6.57995L36.9244 6.34253ZM79.9549 8.7748L80.1199 9.8133C80.8178 8.70135 81.7529 8.53738 82.6708 8.53738C83.6059 8.53738 84.5049 8.9012 85 9.39311L83.991 11.3249C83.532 10.9423 83.1109 10.7408 82.3769 10.7408C81.2028 10.7408 80.1199 11.3608 80.1199 13.0193V17.7592H77.8818V8.77138L79.9549 8.7748ZM74.4697 12.2199C74.3236 11.0533 73.4057 10.4692 72.1216 10.4692C70.9115 10.4692 69.9196 11.0533 69.5896 12.2199H74.4697ZM69.5535 14.0612C69.6996 15.1732 70.6725 15.976 72.2505 15.976C73.0756 15.976 74.1586 15.6651 74.6725 15.1373L76.1027 16.5413C75.1487 17.5252 73.5896 18 72.2127 18C69.0945 18 67.2398 16.0853 67.2398 13.2055C67.2398 10.4709 69.1117 8.50151 72.0477 8.50151C75.0748 8.50151 76.9656 10.3616 76.6167 14.0612H69.5535ZM59.6833 5V9.99435C60.4912 8.95585 61.4813 8.64499 62.5092 8.64499C65.0774 8.64499 66.2153 10.377 66.2153 13.021V17.7609H63.9772V13.0398C63.9772 11.3984 63.1143 10.7066 61.9214 10.7066C60.5995 10.7066 59.6833 11.8186 59.6833 13.1679V17.7626H57.4452V5.00171L59.6833 5ZM53.7391 6.24005V8.79188H56.2351V10.7066H53.722V14.589C53.722 15.4465 54.1998 15.8649 54.896 15.8649C55.2449 15.8649 55.6489 15.7556 55.9789 15.5916L56.6029 17.4876C55.9618 17.7421 55.4289 17.8514 54.7499 17.8702C52.7868 17.9436 51.5028 16.83 51.5028 14.589V10.7066H49.8148V8.79188H51.5028V6.47747L53.7391 6.24005ZM47.5561 12.2199C47.41 11.0533 46.492 10.4692 45.208 10.4692C43.9979 10.4692 43.006 11.0533 42.676 12.2199H47.5561ZM42.6399 14.0612C42.786 15.1732 43.7589 15.976 45.3369 15.976C46.162 15.976 47.2449 15.6651 47.7589 15.1373L49.1891 16.5413C48.2351 17.5252 46.676 18 45.2991 18C42.1792 18 40.3262 16.0853 40.3262 13.2055C40.3262 10.4709 42.1981 8.50151 45.1324 8.50151C48.1594 8.50151 50.0486 10.3616 49.7013 14.0612H42.6399Z" fill="white"/>
</g>
<defs>
<clipPath id="clip0_4954_23547">
<rect width="85" height="24" fill="white"/>
</clipPath>
</defs>
</svg>
