<svg width="46" height="21" viewBox="0 0 46 21" fill="none" xmlns="http://www.w3.org/2000/svg">
	<path fill-rule="evenodd" clip-rule="evenodd"
		d="M18.4234 0.616731C17.6656 0.863863 17.28 1.41076 17.1951 2.35855L17.1549 2.80765L16.7941 2.82556L16.4334 2.84353L16.4139 3.16223L16.3944 3.48094H16.7839H17.1733V5.51457V7.54821H17.6558H18.1383V5.51457V3.48094H18.7817H19.4251V3.14706V2.81318H18.7725H18.1197L18.1556 2.36584C18.1989 1.82586 18.3774 1.46042 18.6666 1.31928C18.871 1.21954 19.426 1.18839 19.674 1.2627C19.7848 1.29584 19.8074 1.26076 19.8564 0.979325L19.9122 0.658132L19.6848 0.586925C19.3506 0.482329 18.7952 0.495441 18.4234 0.616731ZM31.1991 2.0146V3.40141L30.9459 3.17419C30.6275 2.88839 30.168 2.74179 29.5906 2.74179C28.247 2.74179 27.3168 3.65383 27.2272 5.05928C27.1555 6.18264 27.6469 7.07817 28.5557 7.48022C28.8609 7.61529 29.0025 7.63914 29.4941 7.63836C30.2246 7.63714 30.623 7.4855 31.037 7.05109L31.3215 6.75254L31.3407 7.13517L31.36 7.51785L31.8041 7.53601L32.2482 7.55416L32.2062 6.99554C32.1831 6.68825 32.1642 5.12982 32.1642 3.53229V0.627779H31.6817H31.1991V2.0146ZM35.8309 3.76929C35.8307 5.49715 35.8121 7.05425 35.7898 7.2295L35.7492 7.54821H36.1681H36.587L36.6314 7.17742L36.6759 6.80669L36.8988 7.0523C37.0213 7.18743 37.2873 7.37477 37.4899 7.46862C37.8151 7.61929 37.9297 7.63927 38.4694 7.63927C39.0116 7.63927 39.123 7.61966 39.4552 7.46571C40.4222 7.0177 40.9032 6.14597 40.8333 4.96822C40.7503 3.57115 39.9179 2.74209 38.5981 2.74221C37.9593 2.74221 37.4525 2.91959 37.076 3.27478L36.7966 3.53843V2.08313V0.627779H36.314H35.8315L35.8309 3.76929ZM15.2753 0.976289C15.2045 0.991587 15.0815 1.06079 15.0018 1.13006C14.8295 1.27994 14.8065 1.62535 14.9554 1.82598C15.081 1.99517 15.4424 2.0614 15.697 1.9619C16.3278 1.71538 15.9492 0.830475 15.2753 0.976289ZM20.6665 1.003C20.2362 1.11106 20.1297 1.54474 20.4576 1.85415C20.6292 2.01599 20.6863 2.03512 20.913 2.0064C21.3679 1.94885 21.5588 1.64284 21.3849 1.25001C21.3368 1.14153 21.2886 1.05272 21.2777 1.05272C21.2668 1.05272 21.1713 1.02989 21.0653 1.00197C20.9594 0.974044 20.78 0.974529 20.6665 1.003ZM0.887314 1.82428C1.05846 2.28468 1.60077 3.76164 2.09251 5.10639L2.98656 7.55136L3.52707 7.53461L4.06752 7.51785L5.37546 4.27011C6.09477 2.48385 6.68392 1.01557 6.68469 1.00719C6.6854 0.998811 6.45725 0.992012 6.17764 0.992012C5.6812 0.992012 5.66775 0.995958 5.60611 1.15895C5.57143 1.2508 5.21834 2.17273 4.8215 3.20776C4.42466 4.24279 3.99977 5.39013 3.87727 5.75739C3.75483 6.12466 3.63271 6.4776 3.60588 6.54171C3.56992 6.62785 3.51227 6.50911 3.38495 6.08642C3.29024 5.7719 2.85544 4.50383 2.41877 3.26847L1.62489 1.02237L1.10053 1.00476L0.576172 0.987156L0.887314 1.82428ZM8.38748 2.75435C7.07246 2.92694 6.23367 4.00659 6.31558 5.42121C6.37052 6.36979 6.77393 7.00878 7.54194 7.36384C8.0663 7.60624 8.58532 7.69196 9.25959 7.6474C9.78762 7.61256 10.5323 7.4654 10.6222 7.37811C10.6463 7.3548 10.6339 7.20492 10.5947 7.04502C10.5393 6.81871 10.5011 6.76274 10.4224 6.79224C10.1704 6.88664 9.44945 6.99985 9.09437 7.00083C8.06308 7.00356 7.38444 6.50025 7.23369 5.62081L7.18943 5.36281H9.05403C11.1225 5.36281 10.9977 5.38946 10.9958 4.94807C10.9945 4.64308 10.8304 4.01108 10.6805 3.7339C10.289 3.0098 9.38467 2.62353 8.38748 2.75435ZM13.8598 2.75357C13.7183 2.77372 13.5134 2.83461 13.4046 2.88882C13.1619 3.0098 12.7643 3.41659 12.6988 3.61079C12.6526 3.74786 12.6483 3.74877 12.6002 3.6327C12.5725 3.56593 12.5479 3.35419 12.5454 3.16223L12.5409 2.81318H12.1129H11.6849L11.7269 3.46006C11.75 3.81579 11.7688 4.88117 11.7688 5.82757V7.54821H12.2125H12.6562L12.6865 6.10645C12.7049 5.23867 12.7477 4.57236 12.794 4.43274C12.8896 4.14524 13.2763 3.73238 13.5521 3.62341C13.666 3.57843 13.8904 3.54164 14.0508 3.54164H14.3424V3.15416C14.3424 2.7172 14.309 2.68952 13.8598 2.75357ZM24.194 2.76188C22.8145 2.97132 21.9177 4.29251 22.179 5.73038C22.4196 7.05449 23.48 7.75357 25.0869 7.6474C25.6298 7.61158 26.3585 7.4651 26.4575 7.37198C26.5005 7.33143 26.3927 6.75904 26.342 6.75904C26.3329 6.75904 26.1988 6.80444 26.044 6.85987C25.642 7.00392 24.3753 7.0055 24.0438 6.86242C23.516 6.63459 23.1664 6.17663 23.0726 5.59045L23.0362 5.36281H24.9391H26.8419L26.8094 4.82435C26.7604 4.01357 26.425 3.38162 25.8663 3.04726C25.4052 2.77141 24.8054 2.66906 24.194 2.76188ZM14.9643 2.85367C14.9407 2.87589 14.9214 3.94127 14.9214 5.22118V7.54821H15.4039H15.8865V5.18069V2.81318H15.4469C15.205 2.81318 14.9879 2.83139 14.9643 2.85367ZM20.3902 5.18069V7.54821H20.8727H21.3553V5.18069V2.81318H20.8727H20.3902V5.18069ZM40.8708 2.85871C40.8864 2.88372 41.3526 3.91031 41.9067 5.13996C42.6366 6.75952 42.9021 7.41198 42.8704 7.50747C42.7098 7.99026 42.0858 8.61177 41.5051 8.86728C41.2574 8.97624 41.1734 9.04332 41.2006 9.11034C41.2214 9.16121 41.2701 9.32233 41.3091 9.46826C41.348 9.6142 41.416 9.73361 41.4601 9.73361C41.6456 9.73361 42.4525 9.29313 42.7351 9.03768C43.1058 8.70258 43.5325 8.09201 43.8451 7.44932C44.0442 7.04004 45.3297 4.10123 45.7336 3.13188L45.8665 2.81318H45.3605H44.8545L44.4182 3.95141C44.1782 4.57746 43.8592 5.4311 43.7094 5.84845C43.5596 6.2658 43.4207 6.5663 43.4008 6.51621C43.3808 6.46613 43.2904 6.22027 43.1998 5.96986C43.1092 5.71945 42.7822 4.90679 42.4733 4.16394L41.9115 2.8133L41.3769 2.81324C41.0829 2.81318 40.8551 2.8337 40.8708 2.85871ZM9.23932 3.42412C9.65868 3.57357 10.0275 4.08896 10.0302 4.52932L10.0317 4.75812L8.63229 4.74179L7.23292 4.7254L7.25454 4.57364C7.31617 4.14123 7.72865 3.61012 8.13147 3.44451C8.36856 3.34708 8.99104 3.33561 9.23932 3.42412ZM25.3262 3.55348C25.6204 3.73718 25.8385 4.10954 25.8704 4.48258L25.8912 4.7254L24.4918 4.74179L23.0924 4.75812L23.0931 4.62038C23.0947 4.25481 23.5216 3.6826 23.961 3.45696C24.2727 3.29694 24.9974 3.34818 25.3262 3.55348ZM30.4135 3.53606C30.6928 3.67161 30.9492 3.91808 31.0953 4.19119C31.2402 4.46224 31.2429 5.81422 31.0992 6.13875C30.6605 7.12964 29.1683 7.26939 28.5275 6.37963C28.196 5.91936 28.0977 5.24401 28.2709 4.6168C28.4279 4.04817 28.7513 3.66002 29.2139 3.48519C29.4876 3.38181 30.1539 3.41003 30.4135 3.53606ZM38.9519 3.53533C39.2824 3.67969 39.5186 3.91984 39.7044 4.30046C39.9105 4.72231 39.916 5.68 39.7149 6.09552C39.1596 7.24298 37.4975 7.28711 36.9004 6.17019C36.8217 6.02292 36.7966 5.796 36.7966 5.2332C36.7966 4.60423 36.8172 4.45047 36.9309 4.22871C37.0857 3.92694 37.5068 3.56289 37.7913 3.48482C38.1315 3.39152 38.677 3.41525 38.9519 3.53533ZM27.6898 10.7648C25.8443 11.1417 24.6798 12.1016 24.4407 13.443C24.3125 14.1623 24.5153 14.7681 25.0725 15.3301C25.5061 15.7675 25.8533 15.9871 26.8831 16.4758C27.9907 17.0013 28.3039 17.2553 28.3039 17.6284C28.3039 17.9803 28.1662 18.1847 27.8036 18.3708C27.0226 18.7719 25.5514 18.6986 24.1978 18.191C23.9741 18.1071 23.7767 18.0521 23.7591 18.0687C23.7415 18.0853 23.6176 18.5555 23.4839 19.1136L23.2407 20.1281L23.4567 20.2133C24.2646 20.5318 26.0397 20.724 27.1622 20.6144C28.1192 20.521 28.5999 20.401 29.319 20.0761C30.1156 19.7161 30.6486 19.232 30.9892 18.559C31.2257 18.0917 31.2313 18.0644 31.2313 17.3825C31.2313 16.7345 31.2183 16.6611 31.0503 16.3602C30.6708 15.6802 30.1191 15.2682 28.6475 14.5658C27.3764 13.9591 27.0906 13.5862 27.5326 13.1111C27.6392 12.9966 27.8491 12.8565 27.9991 12.7998C28.6039 12.5712 29.7329 12.6215 30.7414 12.9221C31.0351 13.0096 31.2864 13.071 31.2996 13.0585C31.3324 13.0276 31.7782 11.2041 31.7782 11.101C31.7782 11.0469 31.5319 10.9622 31.0544 10.8519C30.0668 10.6239 28.5694 10.5851 27.6898 10.7648ZM6.38596 10.9214C6.3314 11.0555 6.40752 11.0998 6.84425 11.1881C7.41487 11.3034 8.60346 11.6687 8.97007 11.8413C9.41375 12.0502 9.62561 12.2545 9.73769 12.5814C9.83832 12.8749 12.0262 20.3976 12.0262 20.4501C12.0262 20.4669 12.7081 20.4734 13.5415 20.4644L15.057 20.4481L17.2738 15.7435C18.493 13.1559 19.5068 10.9909 19.5265 10.9325C19.56 10.8335 19.4633 10.8263 18.0936 10.8263H16.6248L15.1824 14.0752C14.3891 15.8621 13.7206 17.3032 13.6968 17.2774C13.673 17.2517 13.3859 15.9607 13.0587 14.4085C12.7315 12.8563 12.426 11.5177 12.3798 11.4339C12.2733 11.2409 12.0518 11.0502 11.7881 10.9245C11.6087 10.8389 11.2507 10.8263 9.00339 10.8263C6.72136 10.8263 6.42019 10.8372 6.38596 10.9214ZM19.6621 15.6069C19.0329 18.2362 18.5194 20.4084 18.5212 20.4342C18.523 20.4598 19.152 20.4735 19.9191 20.4645L21.3138 20.4481L22.4591 15.6827C23.089 13.0618 23.605 10.8969 23.6058 10.8718C23.6065 10.8468 22.9769 10.8263 22.2067 10.8263H20.8063L19.6621 15.6069ZM35.9602 10.9446C35.8363 11.0067 35.6714 11.1219 35.5936 11.2005C35.4684 11.3271 31.1991 20.2901 31.1991 20.4265C31.1991 20.4573 31.8305 20.4737 32.6603 20.4645L34.1215 20.4481L34.4028 19.7652L34.6841 19.0823H36.4991H38.3141L38.4694 19.7804L38.6246 20.4785H39.9373H41.2499L41.2154 20.3419C41.1963 20.2667 40.6993 18.1428 40.1108 15.622C39.5223 13.1012 39.0261 10.9909 39.0081 10.9325C38.9783 10.8355 38.8551 10.8265 37.5804 10.829C36.3473 10.8313 36.1592 10.8448 35.9602 10.9446ZM37.4028 15.1516C37.6123 16.0614 37.7967 16.8672 37.8124 16.9424L37.841 17.079H36.67C35.9869 17.079 35.508 17.0558 35.5206 17.0232C35.7962 16.3072 36.9664 13.4997 36.9896 13.4987C37.0073 13.498 37.1932 14.2418 37.4028 15.1516Z"
		fill="#A2A3AB" />
</svg>
