<svg xmlns="http://www.w3.org/2000/svg" viewBox="0 0 39 13">
	<path fill="#fff"
		d="M15.166.7l-5 11.83h-3.21l-2.42-9.44a1.3 1.3 0 00-.73-1 12.63 12.63 0 00-3-1l.07-.34h5.2a1.44 1.44 0 011.42 1.2l1.29 6.85 3.17-8.1h3.21zm12.68 8c0-3.13-4.32-3.3-4.29-4.69 0-.43.41-.88 1.3-1a5.72 5.72 0 013 .52l.53-2.5a8.1 8.1 0 00-2.86-.53c-3 0-5.15 1.61-5.17 3.91 0 1.71 1.52 2.65 2.68 3.22 1.16.57 1.59 1 1.59 1.47 0 .79-1 1.15-1.84 1.16a6.47 6.47 0 01-3.14-.75l-.55 2.59a9.1 9.1 0 003.4.63c3.22 0 5.32-1.59 5.33-4l.02-.03zm7.98 3.89h2.83L36.187.7h-2.61a1.38 1.38 0 00-1.3.87l-4.59 11h3.21l.64-1.77h3.93l.36 1.79zm-3.42-4.19l1.61-4.45.94 4.39-2.55.06zM19.547.7l-2.53 11.83h-3.06L16.486.7h3.06z"/></svg>