<svg width="24" height="24" viewBox="0 0 24 24" fill="none" xmlns="http://www.w3.org/2000/svg">
<path d="M4.10238 21.0307C6.28546 22.9496 9.09392 24.0054 12.0004 24C15.0273 24 17.7894 22.8832 19.9021 21.0307C21.7771 19.1205 15.586 12.324 12.0004 9.61649C8.41849 12.3232 2.22369 19.1205 4.10238 21.0307ZM15.262 6.62924C17.7617 9.59024 22.746 16.941 21.3398 19.539C23.0654 17.4072 24.0048 14.7464 24 12.0037C24 8.66399 22.6373 5.64075 20.4301 3.46875C20.4301 3.46875 20.4023 3.44475 20.3484 3.426C20.2577 3.3948 20.1622 3.38031 20.0664 3.38325C19.4776 3.38325 18.0827 3.816 15.2628 6.62924H15.262ZM3.6524 3.426C3.5984 3.44475 3.57065 3.46875 3.56615 3.46875C2.43438 4.58301 1.53608 5.91171 0.923773 7.37718C0.311463 8.84265 -0.00257593 10.4155 1.59133e-05 12.0037C1.59133e-05 14.859 0.995983 17.4765 2.66018 19.5345C1.26222 16.9335 6.23831 9.58574 8.74173 6.62849C5.92182 3.8115 4.52312 3.3825 3.93364 3.3825C3.83735 3.37795 3.7412 3.39406 3.65165 3.42975L3.6524 3.426ZM12.0004 3.55125C12.0004 3.55125 9.05522 1.8285 6.7543 1.746C5.85208 1.71525 5.30159 2.03925 5.2341 2.08575C7.37902 0.644999 9.6597 0 11.9839 0H11.9996C14.3358 0 16.6045 0.644999 18.7652 2.08575C18.6984 2.0385 18.1509 1.7145 17.245 1.746C14.944 1.82775 11.9989 3.54675 11.9989 3.54675L12.0004 3.55125Z" fill="white"/>
</svg>
