<svg width="44" height="18" viewBox="0 0 44 18" fill="none" xmlns="http://www.w3.org/2000/svg">
<path d="M8.14996 2.48249C7.64605 3.05671 6.8398 3.50961 6.03355 3.44491C5.93277 2.66851 6.3275 1.84358 6.78941 1.33406C7.29332 0.743673 8.17515 0.323122 8.88902 0.290771C8.973 1.09953 8.64546 1.8921 8.14996 2.48249ZM8.88062 3.59857C7.71324 3.53387 6.71382 4.23749 6.15953 4.23749C5.59683 4.23749 4.74859 3.63092 3.82476 3.6471C2.62378 3.66327 1.50679 4.31836 0.893707 5.36166C-0.366059 7.44824 0.566168 10.5377 1.78394 12.2361C2.38023 13.0772 3.0941 13.9991 4.03472 13.9668C4.92496 13.9344 5.27769 13.4088 6.35269 13.4088C7.43609 13.4088 7.74683 13.9668 8.68746 13.9506C9.66168 13.9344 10.2748 13.1095 10.8711 12.2684C11.5513 11.3141 11.8285 10.384 11.8453 10.3355C11.8285 10.3193 9.96402 9.63188 9.94722 7.56147C9.93043 5.83073 11.4169 5.00581 11.4841 4.95728C10.6443 3.76032 9.33414 3.63092 8.88062 3.59857ZM15.6246 1.25319V13.8617H17.657V9.551H20.4705C23.0404 9.551 24.8461 7.85262 24.8461 5.39401C24.8461 2.9354 23.074 1.25319 20.5377 1.25319H15.6246ZM17.657 2.90305H20.0002C21.7638 2.90305 22.7716 3.80885 22.7716 5.40209C22.7716 6.99534 21.7638 7.90923 19.9918 7.90923H17.657V2.90305ZM28.5582 13.9587C29.8347 13.9587 31.0189 13.336 31.5564 12.3493H31.5984V13.8617H33.4796V7.58573C33.4796 5.76603 31.9679 4.59334 29.6416 4.59334C27.4832 4.59334 25.8875 5.78221 25.8287 7.41589H27.6595C27.8107 6.63949 28.5582 6.12997 29.5828 6.12997C30.8257 6.12997 31.5228 6.68801 31.5228 7.71513V8.41066L28.9865 8.55623C26.6265 8.69372 25.35 9.62379 25.35 11.2413C25.35 12.875 26.6685 13.9587 28.5582 13.9587ZM29.1041 12.4625C28.0207 12.4625 27.332 11.9611 27.332 11.1928C27.332 10.4002 27.9955 9.9392 29.2636 9.86641L31.5228 9.72893V10.4406C31.5228 11.6214 30.4814 12.4625 29.1041 12.4625ZM35.9908 17.2908C37.9728 17.2908 38.905 16.5629 39.7197 14.355L43.289 4.71465H41.223L38.8294 12.1633H38.7875L36.3939 4.71465H34.2691L37.7125 13.894L37.5277 14.452C37.2169 15.3983 36.713 15.7622 35.8144 15.7622C35.6548 15.7622 35.3441 15.7461 35.2181 15.7299V17.2422C35.3357 17.2746 35.8396 17.2908 35.9908 17.2908Z" fill="#A2A3AB"/>
</svg>
