<svg id="SvgjsSvg1010" width="288" height="288" xmlns="http://www.w3.org/2000/svg" version="1.1" xmlns:xlink="http://www.w3.org/1999/xlink" xmlns:svgjs="http://svgjs.com/svgjs"><defs id="SvgjsDefs1011"></defs><g id="SvgjsG1012"><svg xmlns="http://www.w3.org/2000/svg" width="288" height="288" version="1.0" viewBox="0 0 2560 1050"><g transform="matrix(.1 0 0 -.1 0 1050)" fill="#ffffff" class="color000 svgShape"><path d="M4982 10484c-233-39-483-139-707-282-410-262-726-726-825-1212-24-115-37-319-26-395l8-48 136 6c630 26 1241 538 1471 1232 66 198 82 294 88 518l6 197-34-1c-19-1-71-7-117-15zM9137 9903c-4-3-7-1756-7-3895l0-3888 605 0 605 0 0 1329 0 1330 978 4c1033 4 1033 4 1287 53 807 155 1458 657 1779 1372 323 717 310 1654-32 2354-294 602-807 1031-1466 1227-210 63-410 96-667 111-193 11-3071 14-3082 3zm2933-1037c226-33 384-79 555-161 427-205 680-584 745-1118 16-129 8-482-14-600-127-680-562-1071-1306-1174-110-15-223-17-915-17l-790-1-3 1548-2 1548 807-4c691-3 825-6 923-21zM4885 8453c-283-33-439-76-850-233-532-203-544-204-1025-18-403 155-547 197-755 218-287 30-658-43-960-189-712-343-1165-1042-1260-1944-19-188-20-555 0-763 75-790 376-1651 813-2319 404-619 726-955 1039-1084 122-50 197-65 328-64 202 0 329 33 655 168 326 135 475 169 745 169 275 0 397-29 759-179 229-95 343-129 490-146 313-34 601 70 866 313 257 237 654 793 869 1218 112 220 281 633 281 685 0 10-20 25-47 37-154 68-378 226-525 370-365 358-548 801-548 1326 0 179 11 278 50 440 73 303 231 586 464 830 100 105 231 218 328 283 35 23 65 43 67 45 8 6-121 166-204 253-312 324-722 518-1221 576-117 14-282 18-359 8zM17220 7833c-254-24-472-67-668-132-354-116-635-284-867-516-285-286-442-621-479-1022l-6-63 544 0 545 0 16 58c43 154 110 274 219 389 172 182 415 296 709 333 125 16 421 8 542-14 339-63 587-228 709-473 85-169 97-241 103-603l5-306-733-42c-788-46-1008-63-1177-87-1156-169-1760-723-1762-1615-1-973 726-1645 1816-1677 395-12 720 55 1049 216 360 177 600 397 809 744 9 15 21 27 26 27 6 0 10-169 10-465l0-465 560 0 560 0 0 2009c0 2184 2 2117-55 2336-202 778-893 1271-1915 1364-104 10-474 13-560 4zm1367-3470c-5-333-13-393-72-548-133-354-444-632-840-754-562-172-1180-56-1430 269-98 127-145 269-145 434 0 131 20 222 70 324 130 263 446 430 911 483 87 9 1354 94 1473 98l38 1-5-307zM20230 7759c0-6 459-1283 1021-2837l1020-2825-85-261c-90-274-149-407-231-522-137-191-322-307-563-350-95-17-343-21-504-9l-98 7 0-465c0-402 2-466 15-471 37-14 386-28 560-23 410 13 694 74 960 207 366 183 631 480 880 985 57 116 132 284 168 375 68 173 2197 6138 2205 6178l4 22-610 0-611 0-34-107c-19-60-339-1095-713-2301-508-1642-681-2192-692-2190-10 2-249 762-725 2301l-711 2297-628 0c-449 0-628-3-628-11z" fill="#ffffff" class="color000 svgShape"></path></g></svg></g></svg>