<?xml version="1.0" encoding="utf-8"?>
<!-- Generator: Adobe Illustrator 20.1.0, SVG Export Plug-In . SVG Version: 6.00 Build 0)  -->
<svg version="1.1" id="Слой_1" xmlns="http://www.w3.org/2000/svg" xmlns:xlink="http://www.w3.org/1999/xlink" x="0px" y="0px"
	 width="24px" height="25px" viewBox="0 0 24 25" enable-background="new 0 0 24 25" xml:space="preserve">
<g>
	<path fill="#EAB11F" d="M4,0.5h16c1.9,0,3.5,1.6,3.5,3.5v16c0,1.9-1.6,3.5-3.5,3.5H4c-1.9,0-3.5-1.6-3.5-3.5V4
		C0.5,2.1,2.1,0.5,4,0.5z"/>
	<path fill="#EAB11F" d="M20,24H4c-2.2,0-4-1.8-4-4V4c0-2.2,1.8-4,4-4h16c2.2,0,4,1.8,4,4v16C24,22.2,22.2,24,20,24z M4,1
		C2.3,1,1,2.3,1,4v16c0,1.7,1.3,3,3,3h16c1.7,0,3-1.3,3-3V4c0-1.7-1.3-3-3-3H4z"/>
</g>
<polygon fill="#FFFFFF" points="9.9,17.4 5.3,12.8 6.7,11.3 9.9,14.6 17.2,7.3 18.6,8.7 "/>
</svg>
