<svg width="40" height="41" viewBox="0 0 40 41" fill="none" xmlns="http://www.w3.org/2000/svg">
<path d="M20 12.3213L12 20.3213L20 28.3213L22.8 25.5213L19.6 22.3213L28 22.3213L28 18.3213L19.6 18.3213L22.8 15.1213L20 12.3213ZM20 0.321291C22.7667 0.321291 25.3667 0.846624 27.8 1.89729C30.2333 2.94662 32.35 4.37129 34.15 6.17129C35.95 7.97129 37.3747 10.088 38.424 12.5213C39.4747 14.9546 40 17.5546 40 20.3213C40 23.088 39.4747 25.688 38.424 28.1213C37.3747 30.5546 35.95 32.6713 34.15 34.4713C32.35 36.2713 30.2333 37.6966 27.8 38.7473C25.3667 39.7966 22.7667 40.3213 20 40.3213C17.2333 40.3213 14.6333 39.7966 12.2 38.7473C9.76667 37.6966 7.65 36.2713 5.85 34.4713C4.05 32.6713 2.62533 30.5546 1.576 28.1213C0.525332 25.688 -1.50659e-06 23.088 -1.74846e-06 20.3213C-1.99033e-06 17.5546 0.525331 14.9546 1.576 12.5213C2.62533 10.088 4.05 7.97129 5.85 6.17129C7.64999 4.37129 9.76666 2.94662 12.2 1.89729C14.6333 0.846625 17.2333 0.321291 20 0.321291Z" fill="white"/>
</svg>
