<svg width="48" height="49" viewBox="0 0 48 49" fill="none" xmlns="http://www.w3.org/2000/svg">
<rect y="0.321289" width="48" height="48" rx="24" fill="#3C9AA1"/>
<path d="M13.1238 31.3162C13.6638 32.9812 15.305 34.0437 17.0563 34.0437H17.125C17.2857 34.8279 17.7121 35.5325 18.3323 36.0386C18.9524 36.5447 19.7283 36.8211 20.5288 36.8212C21.1 36.8212 21.6338 36.6775 22.1063 36.43C22.3034 36.3219 22.4675 36.1622 22.5809 35.9679C22.6943 35.7737 22.7528 35.5524 22.75 35.3275V13.105C22.7525 12.8186 22.6563 12.5401 22.4776 12.3163C22.2989 12.0925 22.0486 11.9371 21.7688 11.8762C21.1416 11.7544 20.4919 11.8427 19.92 12.1275C18.99 12.5725 18.445 13.5662 18.445 14.6V14.6687C17.749 14.5267 17.0262 14.6015 16.3741 14.8831C15.7219 15.1646 15.1718 15.6394 14.798 16.2434C14.4241 16.8474 14.2445 17.5515 14.2833 18.2608C14.3221 18.9701 14.5775 19.6504 15.015 20.21C14.0351 20.3635 13.1423 20.8622 12.4978 21.6161C11.8533 22.37 11.4994 23.3294 11.5 24.3212C11.5 25.7937 12.2638 27.085 13.4163 27.8362C12.8788 28.8 12.7025 30.0187 13.1238 31.3162ZM32.985 20.21C33.4225 19.6504 33.6779 18.9701 33.7167 18.2608C33.7555 17.5515 33.5759 16.8474 33.202 16.2434C32.8282 15.6394 32.2781 15.1646 31.6259 14.8831C30.9738 14.6015 30.251 14.5267 29.555 14.6687V14.6C29.555 13.5675 29.0088 12.5725 28.0788 12.1275C27.5074 11.8426 26.858 11.7543 26.2313 11.8762C25.9515 11.9373 25.7013 12.0928 25.5227 12.3165C25.344 12.5403 25.2477 12.8187 25.25 13.105V35.3262C25.25 35.7825 25.49 36.2162 25.895 36.4287C26.3675 36.6775 26.9 36.8212 27.4713 36.8212C28.2719 36.8211 29.0479 36.5444 29.6681 36.0381C30.2883 35.5318 30.7146 34.8269 30.875 34.0425H30.945C32.695 34.0425 34.3375 32.98 34.8775 31.315C35.2987 30.0175 35.1225 28.7987 34.585 27.835C35.1721 27.4557 35.6549 26.9354 35.9894 26.3217C36.3239 25.7079 36.4994 25.0202 36.5 24.3212C36.5006 23.3294 36.1467 22.37 35.5022 21.6161C34.8577 20.8622 33.9649 20.3635 32.985 20.21Z" fill="white"/>
</svg>
