<svg width="48" height="49" viewBox="0 0 48 49" fill="none" xmlns="http://www.w3.org/2000/svg">
<rect y="0.321289" width="48" height="48" rx="24" fill="#8852F2"/>
<path fill-rule="evenodd" clip-rule="evenodd" d="M34.5689 13.7513L33.9407 10.6088C33.9242 10.5255 33.8853 10.4483 33.8283 10.3854C33.7713 10.3225 33.6983 10.2763 33.617 10.2516C33.5358 10.227 33.4494 10.2249 33.367 10.2455C33.2847 10.2661 33.2095 10.3087 33.1495 10.3688L30.5732 12.945C30.4209 13.0975 30.3001 13.2785 30.2178 13.4776C30.1354 13.6767 30.0931 13.8902 30.0932 14.1057V16.2375L24.7289 21.6038C24.3121 21.4926 23.8754 21.4787 23.4524 21.5631C23.0294 21.6475 22.6314 21.8279 22.2892 22.0904C21.9469 22.3529 21.6696 22.6905 21.4785 23.0772C21.2874 23.4639 21.1876 23.8893 21.187 24.3207C21.1883 24.7203 21.2748 25.115 21.4406 25.4786C21.6065 25.8421 21.8479 26.1662 22.1488 26.4291C22.4497 26.6921 22.8032 26.8879 23.1857 27.0035C23.5682 27.1192 23.971 27.1519 24.3672 27.0997C24.7633 27.0475 25.1438 26.9114 25.4833 26.7006C25.8228 26.4897 26.1134 26.209 26.3359 25.877C26.5583 25.5451 26.7075 25.1695 26.7734 24.7754C26.8394 24.3812 26.8205 23.9776 26.7182 23.5913L32.0807 18.2269H34.2145C34.43 18.227 34.6434 18.1847 34.8425 18.1024C35.0417 18.02 35.2227 17.8992 35.3751 17.7469L37.9495 15.1707C38.0095 15.1106 38.0521 15.0354 38.0728 14.9531C38.0934 14.8707 38.0913 14.7843 38.0666 14.7031C38.042 14.6219 37.9958 14.5488 37.9329 14.4918C37.87 14.4348 37.7927 14.396 37.7095 14.3794L34.567 13.7513H34.5689Z" fill="white"/>
<path fill-rule="evenodd" clip-rule="evenodd" d="M12.7495 24.3203C12.7489 22.5775 13.1532 20.8583 13.9306 19.2984C14.7081 17.7385 15.8373 16.3806 17.2292 15.3317C18.6212 14.2829 20.2378 13.5717 21.9515 13.2545C23.6653 12.9372 25.4293 13.0224 27.1045 13.5035C27.4623 13.6038 27.8453 13.5585 28.1698 13.3773C28.4943 13.1962 28.7339 12.8939 28.8362 12.5367C28.9385 12.1794 28.8952 11.7962 28.7159 11.4707C28.5365 11.1452 28.2356 10.904 27.8789 10.7997C24.8829 9.94059 21.6865 10.1011 18.7917 11.2559C15.8968 12.4108 13.4677 14.4946 11.8858 17.18C10.304 19.8654 9.65905 23.0002 10.0524 26.092C10.4457 29.1838 11.8549 32.0573 14.0587 34.2611C16.2626 36.4649 19.1361 37.8742 22.2278 38.2675C25.3196 38.6608 28.4544 38.0158 31.1398 36.434C33.8252 34.8521 35.909 32.423 37.0639 29.5282C38.2188 26.6333 38.3792 23.4369 37.5201 20.441C37.4701 20.2625 37.3852 20.0958 37.2705 19.9502C37.1558 19.8047 37.0134 19.6833 36.8516 19.5929C36.6898 19.5026 36.5117 19.4451 36.3276 19.4238C36.1436 19.4026 35.9571 19.4179 35.7789 19.4689C35.6008 19.5199 35.4345 19.6056 35.2895 19.7212C35.1446 19.8367 35.024 19.9797 34.9345 20.142C34.8451 20.3043 34.7886 20.4827 34.7683 20.6669C34.748 20.8511 34.7644 21.0375 34.8164 21.2153C35.2584 22.7621 35.3636 24.3857 35.1249 25.9765C34.8861 27.5674 34.309 29.0885 33.4324 30.4374C32.5557 31.7862 31.4 32.9314 30.0432 33.7956C28.6864 34.6598 27.16 35.223 25.567 35.4471C23.974 35.6713 22.3515 35.5512 20.8089 35.0949C19.2662 34.6387 17.8394 33.8569 16.6246 32.8024C15.4098 31.7478 14.4353 30.445 13.7668 28.9818C13.0983 27.5186 12.7514 25.929 12.7495 24.3203Z" fill="white"/>
<path fill-rule="evenodd" clip-rule="evenodd" d="M18.3745 24.3204C18.3745 23.527 18.5424 22.7425 18.8671 22.0186C19.1918 21.2946 19.6659 20.6475 20.2584 20.1198C20.851 19.5921 21.5484 19.1957 22.305 18.9567C23.0616 18.7177 23.8601 18.6414 24.6483 18.7329C24.8338 18.7581 25.0224 18.7459 25.2031 18.6972C25.3838 18.6485 25.553 18.5642 25.7007 18.4493C25.8484 18.3343 25.9717 18.1911 26.0633 18.0279C26.155 17.8646 26.2131 17.6848 26.2343 17.4988C26.2555 17.3129 26.2394 17.1245 26.1869 16.9449C26.1344 16.7652 26.0465 16.5979 25.9285 16.4526C25.8105 16.3074 25.6646 16.1871 25.4995 16.099C25.3344 16.0108 25.1534 15.9565 24.967 15.9392C23.2265 15.7381 21.4666 16.0838 19.9315 16.9284C18.3964 17.7729 17.1623 19.0744 16.4005 20.6522C15.6387 22.23 15.3869 24.0058 15.6802 25.7331C15.9734 27.4605 16.7971 29.0537 18.037 30.2917C19.2768 31.5296 20.8713 32.3509 22.5991 32.6415C24.3269 32.9322 26.1023 32.6777 27.6789 31.9135C29.2556 31.1493 30.5552 29.9132 31.3974 28.3768C32.2396 26.8405 32.5826 25.08 32.3789 23.3398C32.3598 23.1547 32.3041 22.9753 32.2151 22.8119C32.1261 22.6485 32.0055 22.5043 31.8604 22.3879C31.7153 22.2714 31.5485 22.1849 31.3697 22.1333C31.191 22.0818 31.0037 22.0662 30.8189 22.0875C30.634 22.1089 30.4552 22.1667 30.2929 22.2576C30.1306 22.3485 29.9879 22.4708 29.8731 22.6173C29.7584 22.7637 29.6738 22.9315 29.6244 23.1109C29.575 23.2903 29.5616 23.4777 29.5852 23.6623C29.6758 24.4239 29.6096 25.196 29.3909 25.9311C29.1721 26.6662 28.8053 27.3488 28.313 27.937C27.8208 28.5251 27.2134 29.0064 26.5283 29.3512C25.8432 29.696 25.0948 29.8971 24.3292 29.942C23.5635 29.987 22.7968 29.8749 22.076 29.6126C21.3553 29.3503 20.6958 28.9434 20.1381 28.4169C19.5804 27.8904 19.1363 27.2554 18.833 26.5509C18.5297 25.8465 18.3737 25.0874 18.3745 24.3204Z" fill="white"/>
</svg>
