<svg width="48" height="49" viewBox="0 0 48 49" fill="none" xmlns="http://www.w3.org/2000/svg">
<rect y="0.321289" width="48" height="48" rx="24" fill="#9E3749"/>
<path d="M21.5 13.0713C21.1458 13.0713 20.8492 12.9513 20.61 12.7113C20.37 12.4721 20.25 12.1755 20.25 11.8213C20.25 11.4671 20.37 11.17 20.61 10.93C20.8492 10.6909 21.1458 10.5713 21.5 10.5713H26.5C26.8542 10.5713 27.1513 10.6909 27.3913 10.93C27.6304 11.17 27.75 11.4671 27.75 11.8213C27.75 12.1755 27.6304 12.4721 27.3913 12.7113C27.1513 12.9513 26.8542 13.0713 26.5 13.0713H21.5ZM24 26.8213C24.3542 26.8213 24.6513 26.7013 24.8913 26.4613C25.1304 26.2221 25.25 25.9255 25.25 25.5713V20.5713C25.25 20.2171 25.1304 19.92 24.8913 19.68C24.6513 19.4409 24.3542 19.3213 24 19.3213C23.6458 19.3213 23.3492 19.4409 23.11 19.68C22.87 19.92 22.75 20.2171 22.75 20.5713V25.5713C22.75 25.9255 22.87 26.2221 23.11 26.4613C23.3492 26.7013 23.6458 26.8213 24 26.8213ZM24 36.8213C22.4583 36.8213 21.005 36.5246 19.64 35.9313C18.2758 35.3371 17.0833 34.5296 16.0625 33.5088C15.0417 32.488 14.2342 31.2955 13.64 29.9313C13.0467 28.5663 12.75 27.113 12.75 25.5713C12.75 24.0296 13.0467 22.5763 13.64 21.2113C14.2342 19.8471 15.0417 18.6546 16.0625 17.6338C17.0833 16.613 18.2758 15.8059 19.64 15.2125C21.005 14.6184 22.4583 14.3213 24 14.3213C25.2917 14.3213 26.5313 14.5296 27.7188 14.9463C28.9062 15.363 30.0208 15.9671 31.0625 16.7588L31.9688 15.8525C32.1979 15.6234 32.4792 15.5088 32.8125 15.5088C33.1458 15.5088 33.4375 15.6338 33.6875 15.8838C33.9167 16.113 34.0312 16.4046 34.0312 16.7588C34.0312 17.113 33.9167 17.4046 33.6875 17.6338L32.8125 18.5088C33.6042 19.5505 34.2083 20.665 34.625 21.8525C35.0417 23.04 35.25 24.2796 35.25 25.5713C35.25 27.113 34.9533 28.5663 34.36 29.9313C33.7658 31.2955 32.9583 32.488 31.9375 33.5088C30.9167 34.5296 29.7242 35.3371 28.36 35.9313C26.995 36.5246 25.5417 36.8213 24 36.8213Z" fill="white"/>
</svg>
