<svg width="16" height="16" viewBox="0 0 16 16" fill="none" xmlns="http://www.w3.org/2000/svg">
<g clip-path="url(#clip0_547_1442)">
<path fill-rule="evenodd" clip-rule="evenodd" d="M8 16C12.4183 16 16 12.4183 16 8C16 3.58172 12.4183 0 8 0C3.58172 0 0 3.58172 0 8C0 12.4183 3.58172 16 8 16ZM4.64645 9.53525H5.49695L6.49708 11H8.16658L6.97745 9.2675C7.32395 9.0995 7.58908 8.8685 7.77282 8.5745C7.96182 8.27525 8.05632 7.92613 8.05632 7.52712C8.05632 7.11237 7.95657 6.75275 7.75708 6.44825C7.55757 6.1385 7.27407 5.90225 6.90657 5.7395C6.53907 5.5715 6.10595 5.4875 5.6072 5.4875H3.0872V11H4.64645V9.53525ZM6.2372 6.92862C6.39995 7.07037 6.48133 7.26988 6.48133 7.52712C6.48133 7.78437 6.39995 7.98387 6.2372 8.12562C6.07445 8.26213 5.83295 8.33037 5.5127 8.33037H4.64645V6.716H5.5127C5.83295 6.716 6.07445 6.78687 6.2372 6.92862ZM12.8225 10.4645C13.1375 10.1442 13.295 9.76625 13.295 9.3305C13.295 8.94725 13.1927 8.64538 12.9879 8.42488C12.7884 8.19913 12.5495 8.03638 12.2713 7.93663C11.9983 7.83162 11.6518 7.7345 11.2318 7.64525C10.859 7.5665 10.5887 7.49038 10.4207 7.41687C10.2527 7.34337 10.1687 7.23312 10.1687 7.08612C10.1687 6.93912 10.2395 6.821 10.3813 6.73175C10.523 6.63725 10.7488 6.59 11.0585 6.59C11.552 6.59 12.0613 6.73175 12.5863 7.01525L13.0667 5.85762C12.8514 5.73162 12.6047 5.62925 12.3264 5.5505C12.0534 5.47175 11.7673 5.41925 11.468 5.393V4.5425H10.523V5.40875C9.9088 5.48225 9.43892 5.68175 9.11342 6.00725C8.78792 6.3275 8.62517 6.71338 8.62517 7.16488C8.62517 7.54812 8.72492 7.85262 8.92442 8.07837C9.12392 8.30412 9.3628 8.4695 9.64105 8.5745C9.9193 8.67425 10.2658 8.76875 10.6805 8.858C11.0585 8.942 11.3315 9.02337 11.4995 9.10213C11.6728 9.17562 11.7594 9.29113 11.7594 9.44862C11.7594 9.74788 11.4602 9.8975 10.8617 9.8975C10.5467 9.8975 10.2264 9.84762 9.90092 9.74788C9.57542 9.64812 9.2893 9.51688 9.04255 9.35413L8.53067 10.5039C8.76167 10.6614 9.05305 10.7952 9.4048 10.9055C9.75655 11.0105 10.1293 11.0761 10.523 11.1024V11.945H11.468V11.0709C12.0613 10.9816 12.5128 10.7795 12.8225 10.4645Z" fill="white"/>
</g>
<defs>
<clipPath id="clip0_547_1442">
<rect width="16" height="16" fill="white"/>
</clipPath>
</defs>
</svg>
