<svg width="76" height="24" viewBox="0 0 76 24" fill="none" xmlns="http://www.w3.org/2000/svg">
<path d="M23.638 14.9029C22.0353 21.3315 15.5243 25.2438 9.09495 23.6407C2.66827 22.038 -1.24406 15.5266 0.359419 9.09838C1.9614 2.66907 8.47246 -1.24364 14.8999 0.359095C21.3288 1.96183 25.2408 8.47401 23.638 14.9029Z" fill="#F7931A"/>
<path d="M17.2894 10.2905C17.5282 8.69372 16.3125 7.83536 14.6501 7.26274L15.1894 5.09976L13.8728 4.77164L13.3478 6.87762C13.0017 6.79137 12.6462 6.70999 12.2929 6.62937L12.8217 4.50952L11.5058 4.1814L10.9662 6.34362C10.6797 6.27837 10.3984 6.21387 10.1254 6.146L10.1269 6.13925L8.31121 5.68588L7.96096 7.09212C7.96096 7.09212 8.93783 7.31599 8.9172 7.32986C9.45045 7.46299 9.54682 7.81586 9.53069 8.0956L8.91645 10.5597C8.9532 10.5691 9.00082 10.5826 9.05332 10.6036C9.00945 10.5927 8.96257 10.5807 8.9142 10.5691L8.05321 14.0209C7.98796 14.1829 7.82259 14.4259 7.44984 14.3337C7.46297 14.3528 6.49285 14.0948 6.49285 14.0948L5.83923 15.6019L7.55259 16.029C7.87134 16.1089 8.18371 16.1925 8.49121 16.2713L7.94634 18.459L9.26145 18.7871L9.80107 16.6226C10.1603 16.7201 10.5091 16.8101 10.8503 16.8949L10.3126 19.0492L11.6292 19.3774L12.174 17.1938C14.4191 17.6186 16.1074 17.4473 16.818 15.4167C17.3906 13.7817 16.7895 12.8386 15.6083 12.2236C16.4685 12.0252 17.1165 11.4593 17.2894 10.2905V10.2905ZM14.2811 14.5088C13.8743 16.1438 11.1214 15.2599 10.2289 15.0383L10.9519 12.1399C11.8444 12.3627 14.7064 12.8037 14.2811 14.5088ZM14.6884 10.2668C14.3171 11.7541 12.0259 10.9984 11.2827 10.8132L11.9382 8.18448C12.6814 8.36973 15.075 8.71547 14.6884 10.2668V10.2668Z" fill="white"/>
<path d="M39.08 12.632C39.544 12.784 39.912 13.04 40.184 13.4C40.456 13.752 40.592 14.192 40.592 14.72C40.592 15.448 40.312 16.012 39.752 16.412C39.192 16.804 38.376 17 37.304 17H33.128V8.6H37.064C38.056 8.6 38.82 8.796 39.356 9.188C39.892 9.572 40.16 10.104 40.16 10.784C40.16 11.2 40.064 11.568 39.872 11.888C39.68 12.208 39.416 12.456 39.08 12.632ZM34.688 9.824V12.14H36.896C37.44 12.14 37.856 12.044 38.144 11.852C38.44 11.652 38.588 11.364 38.588 10.988C38.588 10.604 38.44 10.316 38.144 10.124C37.856 9.924 37.44 9.824 36.896 9.824H34.688ZM37.208 15.776C38.416 15.776 39.02 15.372 39.02 14.564C39.02 13.756 38.416 13.352 37.208 13.352H34.688V15.776H37.208ZM42.1129 10.592H43.6129V17H42.1129V10.592ZM42.8689 9.536C42.5969 9.536 42.3689 9.452 42.1849 9.284C42.0009 9.108 41.9089 8.892 41.9089 8.636C41.9089 8.38 42.0009 8.168 42.1849 8C42.3689 7.824 42.5969 7.736 42.8689 7.736C43.1409 7.736 43.3689 7.82 43.5529 7.988C43.7369 8.148 43.8289 8.352 43.8289 8.6C43.8289 8.864 43.7369 9.088 43.5529 9.272C43.3769 9.448 43.1489 9.536 42.8689 9.536ZM49.4337 16.652C49.2577 16.796 49.0417 16.904 48.7857 16.976C48.5377 17.048 48.2737 17.084 47.9937 17.084C47.2897 17.084 46.7457 16.9 46.3617 16.532C45.9777 16.164 45.7857 15.628 45.7857 14.924V11.84H44.7297V10.64H45.7857V9.176H47.2857V10.64H49.0017V11.84H47.2857V14.888C47.2857 15.2 47.3617 15.44 47.5137 15.608C47.6657 15.768 47.8857 15.848 48.1737 15.848C48.5097 15.848 48.7897 15.76 49.0137 15.584L49.4337 16.652ZM53.3967 17.084C52.7327 17.084 52.1367 16.944 51.6087 16.664C51.0807 16.384 50.6687 15.996 50.3727 15.5C50.0767 14.996 49.9287 14.428 49.9287 13.796C49.9287 13.164 50.0767 12.6 50.3727 12.104C50.6687 11.608 51.0767 11.22 51.5967 10.94C52.1247 10.66 52.7247 10.52 53.3967 10.52C54.0287 10.52 54.5807 10.648 55.0527 10.904C55.5327 11.16 55.8927 11.528 56.1327 12.008L54.9807 12.68C54.7967 12.384 54.5647 12.164 54.2847 12.02C54.0127 11.868 53.7127 11.792 53.3847 11.792C52.8247 11.792 52.3607 11.976 51.9927 12.344C51.6247 12.704 51.4407 13.188 51.4407 13.796C51.4407 14.404 51.6207 14.892 51.9807 15.26C52.3487 15.62 52.8167 15.8 53.3847 15.8C53.7127 15.8 54.0127 15.728 54.2847 15.584C54.5647 15.432 54.7967 15.208 54.9807 14.912L56.1327 15.584C55.8847 16.064 55.5207 16.436 55.0407 16.7C54.5687 16.956 54.0207 17.084 53.3967 17.084ZM60.2156 17.084C59.5676 17.084 58.9836 16.944 58.4636 16.664C57.9436 16.384 57.5356 15.996 57.2396 15.5C56.9516 14.996 56.8076 14.428 56.8076 13.796C56.8076 13.164 56.9516 12.6 57.2396 12.104C57.5356 11.608 57.9436 11.22 58.4636 10.94C58.9836 10.66 59.5676 10.52 60.2156 10.52C60.8716 10.52 61.4596 10.66 61.9796 10.94C62.4996 11.22 62.9036 11.608 63.1916 12.104C63.4876 12.6 63.6356 13.164 63.6356 13.796C63.6356 14.428 63.4876 14.996 63.1916 15.5C62.9036 15.996 62.4996 16.384 61.9796 16.664C61.4596 16.944 60.8716 17.084 60.2156 17.084ZM60.2156 15.8C60.7676 15.8 61.2236 15.616 61.5836 15.248C61.9436 14.88 62.1236 14.396 62.1236 13.796C62.1236 13.196 61.9436 12.712 61.5836 12.344C61.2236 11.976 60.7676 11.792 60.2156 11.792C59.6636 11.792 59.2076 11.976 58.8476 12.344C58.4956 12.712 58.3196 13.196 58.3196 13.796C58.3196 14.396 58.4956 14.88 58.8476 15.248C59.2076 15.616 59.6636 15.8 60.2156 15.8ZM65.0699 10.592H66.5699V17H65.0699V10.592ZM65.8259 9.536C65.5539 9.536 65.3259 9.452 65.1419 9.284C64.9579 9.108 64.8659 8.892 64.8659 8.636C64.8659 8.38 64.9579 8.168 65.1419 8C65.3259 7.824 65.5539 7.736 65.8259 7.736C66.0979 7.736 66.3259 7.82 66.5099 7.988C66.6939 8.148 66.7859 8.352 66.7859 8.6C66.7859 8.864 66.6939 9.088 66.5099 9.272C66.3339 9.448 66.1059 9.536 65.8259 9.536ZM72.1747 10.52C72.9827 10.52 73.6307 10.756 74.1187 11.228C74.6067 11.7 74.8507 12.4 74.8507 13.328V17H73.3507V13.52C73.3507 12.96 73.2187 12.54 72.9547 12.26C72.6907 11.972 72.3147 11.828 71.8267 11.828C71.2747 11.828 70.8387 11.996 70.5187 12.332C70.1987 12.66 70.0387 13.136 70.0387 13.76V17H68.5387V10.592H69.9667V11.42C70.2147 11.124 70.5267 10.9 70.9027 10.748C71.2787 10.596 71.7027 10.52 72.1747 10.52Z" fill="white"/>
</svg>
