<svg width="16" height="16" viewBox="0 0 16 16" fill="none" xmlns="http://www.w3.org/2000/svg">
<g clip-path="url(#clip0_547_1436)">
<path fill-rule="evenodd" clip-rule="evenodd" d="M8 16C12.4183 16 16 12.4183 16 8C16 3.58172 12.4183 0 8 0C3.58172 0 0 3.58172 0 8C0 12.4183 3.58172 16 8 16ZM10.5438 11.286C10.9638 10.859 11.1738 10.355 11.1738 9.774C11.1738 9.263 11.0373 8.8605 10.7643 8.5665C10.4983 8.2655 10.1798 8.0485 9.80883 7.9155C9.44483 7.7755 8.98283 7.646 8.42283 7.527C7.92583 7.422 7.56533 7.3205 7.34133 7.2225C7.11733 7.1245 7.00533 6.9775 7.00533 6.7815C7.00533 6.5855 7.09983 6.428 7.28883 6.309C7.47783 6.183 7.77883 6.12 8.19183 6.12C8.84983 6.12 9.52883 6.309 10.2288 6.687L10.8693 5.1435C10.5823 4.9755 10.2533 4.839 9.88233 4.734C9.51833 4.629 9.13683 4.559 8.73783 4.524V3.39H7.47783V4.545C6.65883 4.643 6.03233 4.909 5.59833 5.343C5.16433 5.77 4.94733 6.2845 4.94733 6.8865C4.94733 7.3975 5.08033 7.8035 5.34633 8.1045C5.61233 8.4055 5.93083 8.626 6.30183 8.766C6.67283 8.899 7.13483 9.025 7.68783 9.144C8.19183 9.256 8.55583 9.3645 8.77983 9.4695C9.01083 9.5675 9.12633 9.7215 9.12633 9.9315C9.12633 10.3305 8.72733 10.53 7.92933 10.53C7.50933 10.53 7.08233 10.4635 6.64833 10.3305C6.21433 10.1975 5.83283 10.0225 5.50383 9.8055L4.82133 11.3385C5.12933 11.5485 5.51783 11.727 5.98683 11.874C6.45583 12.014 6.95283 12.1015 7.47783 12.1365V13.26H8.73783V12.0945C9.52883 11.9755 10.1308 11.706 10.5438 11.286Z" fill="white"/>
</g>
<defs>
<clipPath id="clip0_547_1436">
<rect width="16" height="16" fill="white"/>
</clipPath>
</defs>
</svg>
