<svg width="16" height="22" viewBox="0 0 16 22" fill="none" xmlns="http://www.w3.org/2000/svg">
<path d="M0 3.68746C0 2.75368 0.34241 1.85814 0.951903 1.19785C1.5614 0.53757 2.38805 0.166626 3.25 0.166626H12.75C13.612 0.166626 14.4386 0.53757 15.0481 1.19785C15.6576 1.85814 16 2.75368 16 3.68746V18.3125C16 18.7748 15.9159 19.2327 15.7526 19.6598C15.5893 20.087 15.3499 20.4751 15.0481 20.8021C14.7463 21.129 14.388 21.3883 13.9937 21.5653C13.5994 21.7422 13.1768 21.8333 12.75 21.8333H3.25C2.8232 21.8333 2.40059 21.7422 2.00628 21.5653C1.61197 21.3883 1.25369 21.129 0.951903 20.8021C0.650112 20.4751 0.410719 20.087 0.247392 19.6598C0.0840639 19.2327 0 18.7748 0 18.3125V3.68746ZM5 3.41663C4.46957 3.41663 3.96086 3.6449 3.58579 4.05123C3.21071 4.45756 3 5.00866 3 5.58329V6.66663C3 7.24126 3.21071 7.79236 3.58579 8.19869C3.96086 8.60502 4.46957 8.83329 5 8.83329H11C11.5304 8.83329 12.0391 8.60502 12.4142 8.19869C12.7893 7.79236 13 7.24126 13 6.66663V5.58329C13 5.00866 12.7893 4.45756 12.4142 4.05123C12.0391 3.6449 11.5304 3.41663 11 3.41663H5ZM5.5 12.3541C5.5 11.995 5.3683 11.6505 5.13388 11.3966C4.89946 11.1426 4.58152 11 4.25 11C3.91848 11 3.60054 11.1426 3.36612 11.3966C3.1317 11.6505 3 11.995 3 12.3541C3 12.7133 3.1317 13.0577 3.36612 13.3117C3.60054 13.5656 3.91848 13.7083 4.25 13.7083C4.58152 13.7083 4.89946 13.5656 5.13388 13.3117C5.3683 13.0577 5.5 12.7133 5.5 12.3541ZM4.25 18.0416C4.58152 18.0416 4.89946 17.899 5.13388 17.645C5.3683 17.391 5.5 17.0466 5.5 16.6875C5.5 16.3283 5.3683 15.9839 5.13388 15.7299C4.89946 15.476 4.58152 15.3333 4.25 15.3333C3.91848 15.3333 3.60054 15.476 3.36612 15.7299C3.1317 15.9839 3 16.3283 3 16.6875C3 17.0466 3.1317 17.391 3.36612 17.645C3.60054 17.899 3.91848 18.0416 4.25 18.0416ZM13 12.3541C13 11.995 12.8683 11.6505 12.6339 11.3966C12.3995 11.1426 12.0815 11 11.75 11C11.4185 11 11.1005 11.1426 10.8661 11.3966C10.6317 11.6505 10.5 11.995 10.5 12.3541C10.5 12.7133 10.6317 13.0577 10.8661 13.3117C11.1005 13.5656 11.4185 13.7083 11.75 13.7083C12.0815 13.7083 12.3995 13.5656 12.6339 13.3117C12.8683 13.0577 13 12.7133 13 12.3541ZM11.75 18.0416C12.0815 18.0416 12.3995 17.899 12.6339 17.645C12.8683 17.391 13 17.0466 13 16.6875C13 16.3283 12.8683 15.9839 12.6339 15.7299C12.3995 15.476 12.0815 15.3333 11.75 15.3333C11.4185 15.3333 11.1005 15.476 10.8661 15.7299C10.6317 15.9839 10.5 16.3283 10.5 16.6875C10.5 17.0466 10.6317 17.391 10.8661 17.645C11.1005 17.899 11.4185 18.0416 11.75 18.0416ZM9.25 12.3541C9.25 11.995 9.1183 11.6505 8.88388 11.3966C8.64946 11.1426 8.33152 11 8 11C7.66848 11 7.35054 11.1426 7.11612 11.3966C6.8817 11.6505 6.75 11.995 6.75 12.3541C6.75 12.7133 6.8817 13.0577 7.11612 13.3117C7.35054 13.5656 7.66848 13.7083 8 13.7083C8.33152 13.7083 8.64946 13.5656 8.88388 13.3117C9.1183 13.0577 9.25 12.7133 9.25 12.3541ZM8 18.0416C8.33152 18.0416 8.64946 17.899 8.88388 17.645C9.1183 17.391 9.25 17.0466 9.25 16.6875C9.25 16.3283 9.1183 15.9839 8.88388 15.7299C8.64946 15.476 8.33152 15.3333 8 15.3333C7.66848 15.3333 7.35054 15.476 7.11612 15.7299C6.8817 15.9839 6.75 16.3283 6.75 16.6875C6.75 17.0466 6.8817 17.391 7.11612 17.645C7.35054 17.899 7.66848 18.0416 8 18.0416Z" fill="white"/>
</svg>
