<svg width="16" height="16" viewBox="0 0 16 16" fill="none" xmlns="http://www.w3.org/2000/svg">
<g clip-path="url(#clip0_547_1430)">
<path fill-rule="evenodd" clip-rule="evenodd" d="M8 16C12.4183 16 16 12.4183 16 8C16 3.58172 12.4183 0 8 0C3.58172 0 0 3.58172 0 8C0 12.4183 3.58172 16 8 16ZM10.2494 9.38202C9.7734 9.95603 9.1959 10.243 8.5169 10.243C8.1459 10.243 7.8134 10.1695 7.5194 10.0225C7.2254 9.86852 6.9909 9.65502 6.8159 9.38202H9.0629V8.35302H6.4799C6.4729 8.30402 6.4694 8.23403 6.4694 8.14302C6.4694 8.05202 6.4729 7.98202 6.4799 7.93302H9.0629V6.90402H6.8159C6.9909 6.63102 7.2254 6.42102 7.5194 6.27402C7.8134 6.12002 8.1459 6.04302 8.5169 6.04302C9.1959 6.04302 9.7734 6.33002 10.2494 6.90402L11.5724 5.70702C11.2154 5.25902 10.7674 4.91602 10.2284 4.67802C9.6894 4.44002 9.0839 4.32102 8.4119 4.32102C7.8029 4.32102 7.2359 4.42952 6.7109 4.64652C6.1859 4.85652 5.7379 5.15752 5.3669 5.54952C4.9959 5.93452 4.7264 6.38602 4.5584 6.90402H3.3929V7.93302H4.3694V8.14302V8.35302H3.3929V9.38202H4.5584C4.7264 9.90002 4.9959 10.355 5.3669 10.747C5.7379 11.132 6.1859 11.433 6.7109 11.65C7.2359 11.86 7.8029 11.965 8.4119 11.965C9.0839 11.965 9.6894 11.846 10.2284 11.608C10.7674 11.37 11.2154 11.027 11.5724 10.579L10.2494 9.38202Z" fill="white"/>
</g>
<defs>
<clipPath id="clip0_547_1430">
<rect width="16" height="16" fill="white"/>
</clipPath>
</defs>
</svg>
