<?xml version="1.0" encoding="utf-8"?>
<!-- Generator: Adobe Illustrator 20.1.0, SVG Export Plug-In . SVG Version: 6.00 Build 0)  -->
<svg version="1.1" id="Слой_1" xmlns="http://www.w3.org/2000/svg" xmlns:xlink="http://www.w3.org/1999/xlink" x="0px" y="0px"
	 width="33px" height="32px" viewBox="0 0 33 32" enable-background="new 0 0 33 32" xml:space="preserve">
<g>
	<defs>
		<rect id="SVGID_1_" x="0.9" width="32" height="32"/>
	</defs>
	<clipPath id="SVGID_2_">
		<use xlink:href="#SVGID_1_"  overflow="visible"/>
	</clipPath>
	<g clip-path="url(#SVGID_2_)">
		<path fill="#1877F2" d="M32.9,16c0-8.8-7.2-16-16-16C8,0,0.9,7.2,0.9,16c0,8,5.9,14.6,13.5,15.8V20.6h-4.1V16h4.1v-3.5
			c0-4,2.4-6.2,6-6.2c1.8,0,3.6,0.3,3.6,0.3v3.9h-2c-2,0-2.6,1.2-2.6,2.5v3h4.4l-0.7,4.6h-3.7v11.2C27,30.6,32.9,24,32.9,16z"/>
		<path fill="#FFFFFF" d="M23.1,20.6l0.7-4.6h-4.4v-3c0-1.3,0.6-2.5,2.6-2.5h2V6.6c0,0-1.8-0.3-3.6-0.3c-3.7,0-6,2.2-6,6.2V16h-4.1
			v4.6h4.1v11.2c1.7,0.3,3.3,0.3,5,0V20.6H23.1z"/>
	</g>
</g>
</svg>
