<svg width="16" height="16" viewBox="0 0 16 16" fill="none" xmlns="http://www.w3.org/2000/svg">
<g clip-path="url(#clip0_547_1424)">
<path fill-rule="evenodd" clip-rule="evenodd" d="M8 16C12.4183 16 16 12.4183 16 8C16 3.58172 12.4183 0 8 0C3.58172 0 0 3.58172 0 8C0 12.4183 3.58172 16 8 16ZM11.2305 10.3935H7.81801V8.9235H10.191V7.7265H7.81801V7.6215C7.81801 7.1595 7.95451 6.813 8.22751 6.582C8.50751 6.344 8.90651 6.225 9.42451 6.225C9.98451 6.225 10.4605 6.3405 10.8525 6.5715L11.4615 4.9755C10.8945 4.6605 10.1805 4.503 9.31951 4.503C8.18551 4.503 7.30351 4.7795 6.67351 5.3325C6.05051 5.8855 5.73901 6.6625 5.73901 7.6635V7.7265H4.74151V8.9235H5.73901V10.3935H4.74151V12H11.2305V10.3935Z" fill="white"/>
</g>
<defs>
<clipPath id="clip0_547_1424">
<rect width="16" height="16" fill="white"/>
</clipPath>
</defs>
</svg>
