<svg width="16" height="16" viewBox="0 0 16 16" fill="none" xmlns="http://www.w3.org/2000/svg">
<g clip-path="url(#clip0_547_1485)">
<path fill-rule="evenodd" clip-rule="evenodd" d="M8 16C12.4183 16 16 12.4183 16 8C16 3.58172 12.4183 0 8 0C3.58172 0 0 3.58172 0 8C0 12.4183 3.58172 16 8 16ZM5.70384 10V6.04231H4.607V8.15119L2.85996 6.04231H1.93838V10H3.03523V7.89112L4.78226 10H5.70384ZM7.60163 9.01058L8.02002 8.56392L9.15079 10H10.4512L8.74936 7.795L10.3664 6.04231H9.13383L7.60163 7.68758V6.04231H6.49348V10H7.60163V9.01058ZM11.8644 8.94838H12.475L13.193 10H14.3916L13.5379 8.75615C13.7867 8.63554 13.977 8.46969 14.1089 8.25862C14.2446 8.04377 14.3125 7.79312 14.3125 7.50665C14.3125 7.20888 14.2409 6.95069 14.0976 6.73208C13.9544 6.50969 13.7509 6.34008 13.487 6.22323C13.2232 6.10261 12.9122 6.04231 12.5541 6.04231H10.7449V10H11.8644V8.94838ZM13.0064 7.07696C13.1233 7.17873 13.1817 7.32196 13.1817 7.50665C13.1817 7.69135 13.1233 7.83458 13.0064 7.93635C12.8896 8.03435 12.7162 8.08335 12.4863 8.08335H11.8644V6.92431H12.4863C12.7162 6.92431 12.8896 6.97519 13.0064 7.07696Z" fill="white"/>
</g>
<defs>
<clipPath id="clip0_547_1485">
<rect width="16" height="16" fill="white"/>
</clipPath>
</defs>
</svg>
