<svg width="32" height="25" viewBox="0 0 32 25" fill="none" xmlns="http://www.w3.org/2000/svg">
<path d="M11.9781 0.000996817V23.3242L17.197 25V5.43704C17.197 4.51691 17.604 3.90482 18.26 4.11715C19.1039 4.36139 19.2709 5.20277 19.2709 6.1219V13.9305C22.5269 15.5146 25.0878 13.9256 25.0878 9.74061C25.0878 5.43704 23.5879 3.525 19.1719 1.99378C17.427 1.39565 14.197 0.414706 11.9841 0L11.9781 0.000996817ZM18.187 21.5896L26.5828 18.5621C27.5348 18.2202 27.6818 17.7327 26.9108 17.4775C26.1298 17.2233 24.7278 17.2901 23.7639 17.638L18.16 19.6317V16.4586L18.4769 16.35C18.4769 16.35 20.0809 15.7907 22.3619 15.5295C24.6228 15.2913 27.4098 15.5704 29.6127 16.4068C32.0767 17.2073 32.3367 18.3647 31.7117 19.1652C31.0917 19.9587 29.5507 20.5409 29.5507 20.5409L18.16 24.668V21.6146L18.187 21.5896ZM2.41124 21.2736C-0.125712 20.5469 -0.541705 19.0565 0.608274 18.1833C1.67625 17.4097 3.48322 16.7876 3.48322 16.7876L10.9721 14.113V17.1864L5.60818 19.1443C4.6652 19.5031 4.5092 19.9856 5.29119 20.2399C6.07218 20.5 7.47215 20.4432 8.41113 20.0843L10.9941 19.1443V21.9007C10.8381 21.9376 10.6551 21.9575 10.4731 21.9994C7.89014 22.437 5.15019 22.2596 2.42624 21.3614L2.41124 21.2736Z" fill="white"/>
</svg>
