<svg width="16" height="16" viewBox="0 0 16 16" fill="none" xmlns="http://www.w3.org/2000/svg">
<g clip-path="url(#clip0_547_1491)">
<path fill-rule="evenodd" clip-rule="evenodd" d="M8 16C12.4183 16 16 12.4183 16 8C16 3.58172 12.4183 0 8 0C3.58172 0 0 3.58172 0 8C0 12.4183 3.58172 16 8 16ZM7.2333 10.1835V9.627H8.50379C9.53279 9.627 10.3343 9.417 10.9083 8.997C11.4823 8.577 11.7693 7.9575 11.7693 7.1385C11.7693 6.3195 11.4823 5.7 10.9083 5.28C10.3343 4.86 9.53279 4.65 8.50379 4.65H5.1438V10.1835H4.16729V11.202H5.1438V12H7.2333V11.202H9.4698V10.1835H7.2333ZM9.3543 6.519C9.56429 6.666 9.6693 6.8795 9.6693 7.1595C9.6693 7.4395 9.56429 7.6565 9.3543 7.8105C9.1513 7.9645 8.8608 8.0415 8.48279 8.0415H7.2333V6.288H8.48279C8.8608 6.288 9.1513 6.365 9.3543 6.519Z" fill="white"/>
</g>
<defs>
<clipPath id="clip0_547_1491">
<rect width="16" height="16" fill="white"/>
</clipPath>
</defs>
</svg>
