<svg width="16" height="16" viewBox="0 0 16 16" fill="none" xmlns="http://www.w3.org/2000/svg">
<g clip-path="url(#clip0_547_1479)">
<path fill-rule="evenodd" clip-rule="evenodd" d="M8 16C12.4183 16 16 12.4183 16 8C16 3.58172 12.4183 0 8 0C3.58172 0 0 3.58172 0 8C0 12.4183 3.58172 16 8 16ZM5.53925 9.95263L5.98025 9.50375L7.17725 11H8.9885L7.067 8.55875L8.83887 6.73175H7.067L5.53925 8.22013V5.15675H4.043V11H5.53925V9.95263ZM11.4423 6.8105C11.2008 6.905 11.0039 7.04938 10.8517 7.24362V6.73175H9.4263V11H10.9225V9.03912C10.9225 8.68213 11.0118 8.417 11.1903 8.24375C11.374 8.0705 11.626 7.98387 11.9463 7.98387C12.0355 7.98387 12.1484 7.99175 12.2849 8.0075V6.66087C11.9699 6.66087 11.689 6.71075 11.4423 6.8105Z" fill="white"/>
</g>
<defs>
<clipPath id="clip0_547_1479">
<rect width="16" height="16" fill="white"/>
</clipPath>
</defs>
</svg>
