<svg width="16" height="18" viewBox="0 0 16 18" fill="none" xmlns="http://www.w3.org/2000/svg">
	<circle cx="8.03394" cy="10.5209" r="6.74487" stroke="#ADAEB3" stroke-width="1.28379" />
	<path
		d="M8.03322 6.29826C7.26455 6.29826 6.51045 6.50808 5.85224 6.9051C5.19403 7.30212 4.65668 7.87128 4.29812 8.55121C3.93957 9.23113 3.77341 9.99604 3.81756 10.7634C3.86171 11.5309 4.1145 12.2717 4.54868 12.906C4.98285 13.5403 5.58193 14.0441 6.28133 14.363C6.98074 14.6819 7.75392 14.8038 8.51753 14.7157C9.28113 14.6275 10.0062 14.3326 10.6145 13.8627C11.2228 13.3928 11.6914 12.7658 11.9696 12.0492L8.03322 10.5209L8.03322 6.29826Z"
		fill="#ADAEB3" />
	<rect x="5.70117" y="0.364014" width="4.62378" height="1.58812" rx="0.385137" fill="#ADAEB3" />
	<rect x="7.12109" y="1.34833" width="1.78234" height="2.42769" rx="0.385137" fill="#ADAEB3" />
</svg>
