<svg width="24" height="24" viewBox="0 0 24 24" fill="none" xmlns="http://www.w3.org/2000/svg">
<rect x="10" y="6" width="5" height="13" fill="white"/>
<path d="M12.2936 17.1697C12.5769 17.1697 12.8146 17.0737 13.0066 16.8817C13.1979 16.6903 13.2936 16.453 13.2936 16.1697C13.2936 15.8863 13.1979 15.6487 13.0066 15.4567C12.8146 15.2653 12.5769 15.1697 12.2936 15.1697C12.0102 15.1697 11.7729 15.2653 11.5816 15.4567C11.3896 15.6487 11.2936 15.8863 11.2936 16.1697C11.2936 16.453 11.3896 16.6903 11.5816 16.8817C11.7729 17.0737 12.0102 17.1697 12.2936 17.1697ZM11.2936 13.1697H13.2936V7.16968H11.2936V13.1697ZM12.2936 22.1697C10.9102 22.1697 9.61025 21.907 8.39358 21.3817C7.17691 20.857 6.11858 20.1447 5.21858 19.2447C4.31858 18.3447 3.60625 17.2863 3.08158 16.0697C2.55625 14.853 2.29358 13.553 2.29358 12.1697C2.29358 10.7863 2.55625 9.48634 3.08158 8.26968C3.60625 7.05301 4.31858 5.99468 5.21858 5.09468C6.11858 4.19468 7.17691 3.48201 8.39358 2.95668C9.61025 2.43201 10.9102 2.16968 12.2936 2.16968C13.6769 2.16968 14.9769 2.43201 16.1936 2.95668C17.4102 3.48201 18.4686 4.19468 19.3686 5.09468C20.2686 5.99468 20.9809 7.05301 21.5056 8.26968C22.0309 9.48634 22.2936 10.7863 22.2936 12.1697C22.2936 13.553 22.0309 14.853 21.5056 16.0697C20.9809 17.2863 20.2686 18.3447 19.3686 19.2447C18.4686 20.1447 17.4102 20.857 16.1936 21.3817C14.9769 21.907 13.6769 22.1697 12.2936 22.1697Z" fill="#E84545"/>
</svg>
