<svg width="22" height="22" viewBox="0 0 22 22" fill="none" xmlns="http://www.w3.org/2000/svg">
	<path opacity="0.5" fill-rule="evenodd" clip-rule="evenodd"
		d="M11 22C17.0751 22 22 17.0751 22 11C22 4.92487 17.0751 0 11 0C4.92487 0 0 4.92487 0 11C0 17.0751 4.92487 22 11 22ZM10.7519 11.5105C10.5039 11.901 10.3798 12.3975 10.3798 13H12.3488C12.3488 12.5983 12.4419 12.2524 12.6279 11.9623C12.8243 11.6722 13.1189 11.3375 13.5116 10.9582C13.832 10.6457 14.0904 10.3724 14.2868 10.1381C14.4832 9.89261 14.6486 9.59693 14.7829 9.25105C14.9276 8.90516 15 8.50349 15 8.04603C15 7.09763 14.6537 6.35565 13.9612 5.82008C13.2791 5.27336 12.3592 5 11.2015 5C10.2506 5 9.42377 5.17852 8.72093 5.53556C8.01809 5.88145 7.44444 6.38354 7 7.04184L8.50388 8.09623C9.07235 7.2371 9.91473 6.80753 11.031 6.80753C11.6202 6.80753 12.0904 6.95258 12.4419 7.24268C12.7933 7.53278 12.969 7.91213 12.969 8.38075C12.969 8.71548 12.876 9.01674 12.6899 9.28452C12.5142 9.54114 12.2403 9.84798 11.8682 10.205C11.3824 10.6736 11.0103 11.1088 10.7519 11.5105ZM10.4729 16.6318C10.7106 16.8773 11.0103 17 11.3721 17C11.7235 17 12.0129 16.8773 12.2403 16.6318C12.478 16.3752 12.5969 16.0628 12.5969 15.6946C12.5969 15.3264 12.478 15.0195 12.2403 14.7741C12.0129 14.5286 11.7235 14.4059 11.3721 14.4059C11.0103 14.4059 10.7106 14.5286 10.4729 14.7741C10.2455 15.0195 10.1318 15.3264 10.1318 15.6946C10.1318 16.0628 10.2455 16.3752 10.4729 16.6318Z"
		fill="white" />
</svg>
